<svg width="64" height="64" viewBox="0 0 64 64" fill="none" xmlns="http://www.w3.org/2000/svg">
<path d="M46.0963 0C38.7874 0 32.8413 5.94613 32.8413 13.255C32.8413 18.1175 35.4943 22.5482 39.6957 24.8644V42.5396L46.0963 47.3401L52.4971 42.5396V39.1305L50.5703 37.2036L52.4971 35.2769V32.1081L50.5703 30.1814L52.4971 28.2545V24.8644C56.6983 22.5484 59.3513 18.1176 59.3513 13.255C59.3513 5.94613 53.4051 0 46.0963 0ZM49.8757 21.9786L48.7471 22.4685V26.7013L45.2671 30.1814L48.7471 33.6614V33.7236L45.2671 37.2036L48.7362 40.6729L46.0963 42.6527L43.4457 40.6647V22.4685L42.3171 21.9786C38.8388 20.4694 36.5913 17.045 36.5913 13.255C36.5913 8.01388 40.8552 3.75 46.0963 3.75C51.3374 3.75 55.6013 8.01388 55.6013 13.255C55.6013 17.0451 53.3538 20.4694 49.8757 21.9786Z" fill="#253678"/>
<path d="M46.0963 7.72363C42.9947 7.72363 40.4713 10.247 40.4713 13.3486C40.4713 16.4503 42.9947 18.9736 46.0963 18.9736C49.1979 18.9736 51.7213 16.4503 51.7213 13.3486C51.7213 10.247 49.1979 7.72363 46.0963 7.72363ZM46.0963 15.2236C45.0624 15.2236 44.2213 14.3825 44.2213 13.3486C44.2213 12.3148 45.0624 11.4736 46.0963 11.4736C47.1302 11.4736 47.9713 12.3148 47.9713 13.3486C47.9713 14.3825 47.1302 15.2236 46.0963 15.2236ZM26.8708 32.3939C26.8708 27.6268 22.9926 23.7484 18.2253 23.7484C13.4581 23.7484 9.5798 27.6268 9.5798 32.3939V38.6804H4.6488V50.4236C4.6488 57.9098 10.7392 64.0001 18.2253 64.0001C25.7114 64.0001 31.8017 57.9098 31.8017 50.4238V38.6805H26.8708V32.3939ZM13.3298 32.3939C13.3298 29.6945 15.5259 27.4984 18.2253 27.4984C20.9247 27.4984 23.1208 29.6945 23.1208 32.3939V38.6804H13.3298V32.3939ZM28.0517 50.4238C28.0517 55.8421 23.6436 60.2501 18.2253 60.2501C12.8071 60.2501 8.3988 55.842 8.3988 50.4238V42.4305H28.0517V50.4238ZM19.7253 17.14C19.7253 13.5331 22.6598 10.5986 26.2667 10.5986H29.0859V6.84863H26.2667C20.5921 6.84863 15.9753 11.4654 15.9753 17.14V19.9593H19.7253V17.14ZM44.2213 53.7088C44.2213 57.3156 41.2868 60.2501 37.6801 60.2501H34.8608V64.0001H37.6801C43.3546 64.0001 47.9713 59.3834 47.9713 53.7088V50.8896H44.2213V53.7088Z" fill="#253678"/>
</svg>
