<svg width="64" height="64" viewBox="0 0 64 64" fill="none" xmlns="http://www.w3.org/2000/svg">
<g clip-path="url(#clip0_814_6946)">
<path d="M50.8894 35.7642H62.1176C62.6169 35.7642 63.0957 35.9626 63.4487 36.3156C63.8017 36.6686 64 37.1474 64 37.6466V60.2348C64 60.7341 63.8017 61.2128 63.4487 61.5658C63.0957 61.9189 62.6169 62.1172 62.1176 62.1172H49.8824C49.3831 62.1172 48.9043 61.9189 48.5513 61.5658C48.1983 61.2128 48 60.7341 48 60.2348V38.2169L25.728 4.808C25.5858 4.60245 25.4859 4.37063 25.4342 4.12607C25.3825 3.88151 25.38 3.6291 25.427 3.38358C25.4739 3.13806 25.5692 2.90434 25.7074 2.69606C25.8456 2.48778 26.0239 2.30911 26.2319 2.17049C26.4399 2.03186 26.6735 1.93605 26.9189 1.88865C27.1643 1.84125 27.4167 1.8432 27.6614 1.8944C27.9061 1.94559 28.1381 2.04501 28.3439 2.18684C28.5497 2.32867 28.7253 2.51008 28.8602 2.72047L50.8894 35.7642ZM60.2353 49.4329V45.8424L51.7647 48.4494V52.0391L60.2353 49.4329ZM60.2353 53.3718L51.7647 55.9788V58.3525H60.2353V53.3718ZM60.2353 41.9035V39.5289H51.7647V44.5096L60.2353 41.9035ZM17.8089 50.8231L15.7176 46.1172H1.88235C1.38312 46.1172 0.904338 45.9189 0.551328 45.5658C0.198319 45.2128 0 44.7341 0 44.2348C0 43.7356 0.198319 43.2568 0.551328 42.9038C0.904338 42.5508 1.38312 42.3525 1.88235 42.3525H16.9412C17.3054 42.3524 17.6618 42.458 17.9672 42.6565C18.2725 42.855 18.5138 43.1378 18.6616 43.4706L21.9294 50.8231H33.8824V43.7567C33.8824 43.6541 33.5784 42.36 32.9694 39.8734C32.8105 39.2374 32.4435 38.6727 31.9268 38.2692C31.41 37.8657 30.7732 37.6466 30.1176 37.6466H1.88235C1.38312 37.6466 0.904338 37.4483 0.551328 37.0953C0.198319 36.7423 0 36.2635 0 35.7642C0 35.265 0.198319 34.7862 0.551328 34.4332C0.904338 34.0802 1.38312 33.8819 1.88235 33.8819H27.4569L24.4687 25.4141C24.0799 24.3124 23.3589 23.3584 22.4051 22.6837C21.4514 22.0089 20.3118 21.6466 19.1435 21.6466H1.88235C1.38312 21.6466 0.904338 21.4483 0.551328 21.0953C0.198319 20.7422 0 20.2635 0 19.7642C0 19.265 0.198319 18.7862 0.551328 18.4332C0.904338 18.0802 1.38312 17.8819 1.88235 17.8819H19.1435C21.0907 17.8819 22.99 18.4858 24.5796 19.6105C26.1692 20.7352 27.3708 22.3252 28.0188 24.1614L31.4494 33.8819H33.6508L37.1896 32.9972C37.4306 32.9335 37.6819 32.9183 37.9288 32.9525C38.1757 32.9867 38.4134 33.0696 38.628 33.1964C38.8426 33.3232 39.0299 33.4913 39.179 33.6911C39.3281 33.8909 39.4361 34.1183 39.4966 34.3601C39.5571 34.6019 39.569 34.8533 39.5316 35.0998C39.4941 35.3462 39.4081 35.5828 39.2785 35.7957C39.1489 36.0086 38.9783 36.1937 38.7766 36.3402C38.5749 36.4867 38.3461 36.5916 38.1035 36.6489L35.904 37.1995C36.2202 37.7388 36.464 38.3289 36.6212 38.9595L37.4776 42.3873C37.5899 42.8351 37.6468 43.295 37.6471 43.7567V50.8231C37.6471 51.8215 37.2504 52.7791 36.5444 53.4851C35.8384 54.1911 34.8808 54.5878 33.8824 54.5878V58.3525C33.8824 59.3509 33.4857 60.3085 32.7797 61.0145C32.0737 61.7205 31.1161 62.1172 30.1176 62.1172H22.5882C21.5898 62.1172 20.6322 61.7205 19.9262 61.0145C19.2202 60.3085 18.8235 59.3509 18.8235 58.3525V54.5878H1.88235C1.38312 54.5878 0.904338 54.3894 0.551328 54.0364C0.198319 53.6834 0 53.2046 0 52.7054C0 52.2062 0.198319 51.7274 0.551328 51.3744C0.904338 51.0214 1.38312 50.8231 1.88235 50.8231H17.8089ZM30.1176 54.5878H22.5882V58.3525H30.1176V54.5878ZM28.2353 46.1172C27.4864 46.1172 26.7683 45.8197 26.2388 45.2902C25.7092 44.7607 25.4118 44.0425 25.4118 43.2936C25.4118 42.5448 25.7092 41.8266 26.2388 41.2971C26.7683 40.7676 27.4864 40.4701 28.2353 40.4701C28.9841 40.4701 29.7023 40.7676 30.2318 41.2971C30.7613 41.8266 31.0588 42.5448 31.0588 43.2936C31.0588 44.0425 30.7613 44.7607 30.2318 45.2902C29.7023 45.8197 28.9841 46.1172 28.2353 46.1172Z" fill="#253678"/>
</g>
<defs>
<clipPath id="clip0_814_6946">
<rect width="64" height="64" fill="white"/>
</clipPath>
</defs>
</svg>
