<svg width="140" height="140" viewBox="0 0 140 140" fill="none" xmlns="http://www.w3.org/2000/svg">
<path fill-rule="evenodd" clip-rule="evenodd" d="M69.8511 57.726C60.3913 57.726 52.7235 65.3864 52.7235 74.8349C52.7235 84.2835 60.3913 91.9438 69.8511 91.9438C79.3109 91.9438 86.9788 84.2835 86.9788 74.8349C86.9788 65.3864 79.3109 57.726 69.8511 57.726ZM51.8298 74.8349C51.8298 64.892 59.8987 56.8324 69.8511 56.8324C79.8035 56.8324 87.8724 64.892 87.8724 74.8349C87.8724 84.7779 79.8035 92.8375 69.8511 92.8375C59.8987 92.8375 51.8298 84.7779 51.8298 74.8349Z" fill="#CED6E0"/>
<path fill-rule="evenodd" clip-rule="evenodd" d="M69.8511 43.1459C52.3303 43.1459 38.1277 57.334 38.1277 74.8349C38.1277 92.3359 52.3303 106.524 69.8511 106.524C87.3719 106.524 101.575 92.3359 101.575 74.8349C101.575 57.334 87.3719 43.1459 69.8511 43.1459ZM37.2341 74.8349C37.2341 56.8396 51.8377 42.2522 69.8511 42.2522C87.8645 42.2522 102.468 56.8396 102.468 74.8349C102.468 92.8303 87.8645 107.418 69.8511 107.418C51.8377 107.418 37.2341 92.8303 37.2341 74.8349Z" fill="#CED6E0"/>
<path fill-rule="evenodd" clip-rule="evenodd" d="M69.8511 27.6731C43.7758 27.6731 22.6384 48.7886 22.6384 74.835C22.6384 100.881 43.7758 121.997 69.8511 121.997C95.9265 121.997 117.064 100.881 117.064 74.835C117.064 48.7886 95.9265 27.6731 69.8511 27.6731ZM21.7448 74.835C21.7448 48.2942 43.2832 26.7794 69.8511 26.7794C96.4191 26.7794 117.958 48.2942 117.958 74.835C117.958 101.376 96.4191 122.89 69.8511 122.89C43.2832 122.89 21.7448 101.376 21.7448 74.835Z" fill="#CED6E0"/>
<path fill-rule="evenodd" clip-rule="evenodd" d="M69.8511 10.7124C34.3987 10.7124 5.65961 39.4215 5.65961 74.8349C5.65961 110.248 34.3987 138.957 69.8511 138.957C105.304 138.957 134.043 110.248 134.043 74.8349C134.043 39.4215 105.304 10.7124 69.8511 10.7124ZM4.76599 74.8349C4.76599 38.9271 33.906 9.81882 69.8511 9.81882C105.796 9.81882 134.936 38.9271 134.936 74.8349C134.936 110.743 105.796 139.851 69.8511 139.851C33.906 139.851 4.76599 110.743 4.76599 74.8349Z" fill="#CED6E0"/>
<path d="M26.0281 120.486H22.823V112.743H19.2903V120.486H16.0851V110.22H26.0281V120.486Z" fill="#253678"/>
<path d="M27.9911 123.313V113.05H30.6928V114.148C31.0651 113.687 31.4077 113.374 31.7205 113.211C32.1405 112.99 32.6081 112.883 33.1175 112.883C34.1243 112.883 34.9017 113.264 35.4498 114.023C36.0039 114.785 36.2809 115.725 36.2809 116.844C36.2809 118.081 35.98 119.025 35.3813 119.679C34.7796 120.328 34.023 120.652 33.1056 120.652C32.6617 120.652 32.2536 120.578 31.8843 120.429C31.5209 120.28 31.1932 120.057 30.9043 119.766V123.315H27.9911V123.313ZM30.8834 116.787C30.8834 117.376 31.0085 117.811 31.2587 118.096C31.509 118.382 31.8247 118.522 32.209 118.522C32.5456 118.522 32.8256 118.388 33.0519 118.117C33.2783 117.84 33.3915 117.376 33.3915 116.725C33.3915 116.124 33.2724 115.68 33.037 115.401C32.8017 115.115 32.5128 114.975 32.1732 114.975C31.8039 114.975 31.497 115.118 31.2498 115.401C31.0026 115.686 30.8804 116.147 30.8804 116.787H30.8834Z" fill="#253678"/>
<path d="M46.0749 120.486H43.3434V116.832L40.5077 120.486H37.7643V113.056H40.4958V116.76L43.3613 113.056H46.0779V120.486H46.0749Z" fill="#253678"/>
<path d="M53.5992 116.528C54.1711 116.585 54.6239 116.772 54.9605 117.088C55.3 117.406 55.4698 117.829 55.4698 118.361C55.4698 119.069 55.2345 119.602 54.7609 119.956C54.2873 120.307 53.4383 120.483 52.2141 120.483H47.9158V113.053H52.5596C53.4026 113.053 54.043 113.211 54.4809 113.529C54.9247 113.847 55.1481 114.291 55.1481 114.859C55.1481 115.261 55.0051 115.612 54.7162 115.909C54.4273 116.204 54.0549 116.4 53.5962 116.499V116.525L53.5992 116.528ZM50.8051 115.886H51.5349C52.0175 115.886 52.2588 115.668 52.2588 115.234C52.2588 114.883 52.0026 114.71 51.4932 114.71H50.8051V115.886ZM50.8051 118.736H51.7553C51.9907 118.736 52.1843 118.683 52.3302 118.575C52.4762 118.468 52.5507 118.311 52.5507 118.105C52.5507 117.656 52.2856 117.433 51.7553 117.433H50.8051V118.736Z" fill="#253678"/>
<path d="M56.8699 123.313V113.05H59.5716V114.148C59.9439 113.687 60.2865 113.374 60.5992 113.211C61.0192 112.99 61.4869 112.883 61.9962 112.883C63.0031 112.883 63.7805 113.264 64.3286 114.023C64.8826 114.785 65.1596 115.725 65.1596 116.844C65.1596 118.081 64.8588 119.025 64.2601 119.679C63.6584 120.328 62.9018 120.652 61.9843 120.652C61.5405 120.652 61.1324 120.578 60.763 120.429C60.3996 120.28 60.072 120.057 59.7831 119.766V123.315H56.8669L56.8699 123.313ZM59.7622 116.787C59.7622 117.376 59.8873 117.811 60.1375 118.096C60.3877 118.382 60.7035 118.522 61.0877 118.522C61.4243 118.522 61.7043 118.388 61.9307 118.117C62.1571 117.84 62.2703 117.376 62.2703 116.725C62.2703 116.124 62.1511 115.68 61.9158 115.401C61.6805 115.115 61.3916 114.975 61.052 114.975C60.6826 114.975 60.3758 115.118 60.1286 115.401C59.8843 115.686 59.7592 116.147 59.7592 116.787H59.7622Z" fill="#253678"/>
<path d="M69.1749 115.457L66.4166 115.171C66.5209 114.695 66.6698 114.32 66.8634 114.05C67.063 113.776 67.346 113.538 67.7153 113.336C67.9804 113.19 68.3438 113.08 68.8085 112.999C69.2702 112.919 69.7736 112.88 70.3128 112.88C71.1766 112.88 71.8736 112.928 72.3979 113.026C72.9221 113.118 73.36 113.318 73.7085 113.621C73.9558 113.832 74.1494 114.13 74.2894 114.517C74.4324 114.901 74.5009 115.267 74.5009 115.615V118.9C74.5009 119.251 74.5217 119.525 74.5634 119.727C74.6111 119.923 74.7094 120.176 74.8613 120.483H72.1507C72.0434 120.292 71.9719 120.147 71.9392 120.048C71.9064 119.944 71.8736 119.786 71.8409 119.572C71.4626 119.932 71.0873 120.188 70.7119 120.343C70.2026 120.548 69.6068 120.652 68.9307 120.652C68.0311 120.652 67.349 120.447 66.8813 120.036C66.4196 119.626 66.1873 119.12 66.1873 118.516C66.1873 117.951 66.3541 117.486 66.6907 117.123C67.0273 116.76 67.6468 116.49 68.5494 116.311C69.6336 116.097 70.3336 115.948 70.6553 115.862C70.977 115.772 71.3166 115.659 71.677 115.52C71.677 115.168 71.6026 114.924 71.4566 114.785C71.3107 114.645 71.0515 114.573 70.6821 114.573C70.2085 114.573 69.8541 114.648 69.6187 114.796C69.4341 114.913 69.2851 115.133 69.1719 115.454L69.1749 115.457ZM71.677 116.957C71.2809 117.097 70.8668 117.222 70.4349 117.329C69.8481 117.483 69.4787 117.635 69.3209 117.784C69.16 117.939 69.0796 118.114 69.0796 118.308C69.0796 118.531 69.157 118.715 69.3149 118.861C69.4758 119.001 69.7111 119.072 70.0179 119.072C70.3247 119.072 70.6375 118.995 70.9115 118.84C71.1915 118.686 71.3881 118.498 71.5013 118.281C71.6204 118.058 71.68 117.766 71.68 117.412V116.957H71.677Z" fill="#253678"/>
<path d="M82.5762 115.136H80.4851V120.486H77.5928V115.136H75.5017V113.056H82.5792V115.136H82.5762Z" fill="#253678"/>
<path d="M92.1141 120.486H89.2217V117.677H86.5975V120.486H83.7051V113.056H86.5975V115.597H89.2217V113.056H92.1141V120.486Z" fill="#253678"/>
<path d="M102.37 120.486H99.6384V116.832L96.8026 120.486H94.0592V113.056H96.7907V116.76L99.6562 113.056H102.373V120.486H102.37Z" fill="#253678"/>
<path d="M112.596 120.486H109.34L108.235 118.433C108.059 118.105 107.886 117.9 107.717 117.817C107.553 117.733 107.344 117.692 107.1 117.692V120.486H104.214V113.056H107.1V115.737C107.335 115.713 107.511 115.636 107.624 115.505C107.737 115.374 107.901 115.088 108.113 114.645C108.33 114.201 108.524 113.877 108.694 113.672C108.863 113.466 109.081 113.312 109.346 113.211C109.611 113.109 109.942 113.044 110.338 113.014C110.734 112.987 111.327 112.972 112.11 112.972V114.996H111.982C111.595 114.996 111.3 115.014 111.094 115.046C110.892 115.073 110.728 115.139 110.606 115.237C110.484 115.335 110.341 115.534 110.18 115.838C110.019 116.141 109.885 116.353 109.775 116.475C109.671 116.591 109.516 116.671 109.307 116.713C109.709 116.751 110.019 116.838 110.237 116.972C110.454 117.103 110.782 117.528 111.223 118.254L112.593 120.489L112.596 120.486Z" fill="#253678"/>
<path d="M117.803 114.425H119.533C122.655 114.425 124.216 115.576 124.216 117.882C124.216 118.608 123.995 119.248 123.552 119.804C123.108 120.361 122.47 120.688 121.636 120.792C120.802 120.89 120.302 120.938 120.135 120.938H114.568V112.395H110.514V110.226H117.806V114.428L117.803 114.425ZM117.803 118.632H119.462C120.477 118.632 120.984 118.257 120.984 117.507C120.984 116.802 120.477 116.448 119.462 116.448H117.803V118.632Z" fill="#253678"/>
<path d="M73.8753 70.6454C75.0549 72.0707 75.743 73.615 76.2762 75.2456C76.4281 75.7068 76.2553 76.04 75.9932 76.4001C75.1175 77.6171 74.2894 78.8698 73.3838 80.063C73.0532 80.5004 73.0234 80.8158 73.3332 81.2472C76.4162 85.5588 79.4902 89.8704 82.5613 94.1909C83.7945 95.9226 85.0247 97.6514 86.2221 99.407C87.0323 100.594 86.7315 102.115 85.5906 102.912C84.4438 103.713 82.9426 103.466 82.0877 102.266C78.1975 96.8242 74.3132 91.3819 70.4647 85.9099C69.9553 85.1839 69.7141 85.2226 69.2464 85.8921C65.5409 91.1647 61.8175 96.4195 58.097 101.683C57.3881 102.683 56.6047 103.54 55.1958 103.323C53.2834 103.025 52.3868 100.96 53.5217 99.3177C55.306 96.7439 57.1379 94.2028 58.9519 91.6497C61.3766 88.2368 63.7894 84.8238 66.2319 81.4287C66.6221 80.8872 66.6221 80.4736 66.22 79.938C65.3592 78.7954 64.5877 77.5933 63.7268 76.4507C63.3664 75.9746 63.3187 75.5431 63.5004 74.9956C63.9264 73.6923 64.5281 72.4872 65.2549 71.3297C65.666 70.6811 65.9072 70.69 66.3243 71.3059C67.2626 72.6926 68.2604 74.0405 69.2107 75.4181C69.6455 76.049 69.9434 76.2305 70.4677 75.4449C71.5221 73.853 72.6809 72.3236 73.8783 70.6513L73.8753 70.6454Z" fill="#253678"/>
<path d="M45.6072 58.2136C45.5119 56.3895 45.5119 56.3985 47.2306 56.7764C50.9749 57.6006 54.6238 57.425 58.1 55.6516C58.5974 55.3987 59.0055 55.4017 59.4553 55.723C59.911 56.0533 60.3847 56.3568 60.8613 56.6573C62.3238 57.5857 62.3089 57.5649 60.8553 58.5825C58.5527 60.1953 56.2562 61.811 53.9864 63.4743C52.2379 64.7568 51.8625 66.8486 53.0183 68.4881C54.2485 70.2377 56.414 70.6097 58.231 69.3421C60.6796 67.6341 63.1042 65.8905 65.5349 64.1557C66.1247 63.7362 66.3242 63.4089 66.6876 64.5634C66.7293 64.6943 66.7293 64.7419 66.7949 64.971C67.2238 66.5004 67.1017 67.4526 65.9519 68.5922C63.4349 71.0977 62.3655 74.344 62.0051 77.8224C61.9217 78.6228 61.7787 78.8579 60.9536 78.5425C55.5621 76.5131 51.3591 73.0972 48.4936 68.0447C46.757 64.9889 45.8157 61.7098 45.6102 58.2106L45.6072 58.2136Z" fill="#253678"/>
<path d="M40.5315 53.0897C41.5443 54.0775 42.4349 54.8155 43.4715 55.3332C44.0285 55.6099 43.9272 56.0712 43.9183 56.5205C43.8021 61.7574 45.3094 66.4975 48.2702 70.7495C51.4009 75.2515 55.5592 78.3967 60.7481 80.0778C61.4213 80.2951 61.7251 80.5926 61.8204 81.2859C61.9575 82.2708 62.3149 83.2051 62.8511 84.3329C55.714 82.9046 49.9562 79.4917 45.7472 73.7548C41.3119 67.7174 39.3966 60.8886 40.5315 53.0897Z" fill="#253678"/>
<path d="M94.3928 58.2136C94.4881 56.3895 94.4881 56.3985 92.7693 56.7764C89.0251 57.6006 85.3762 57.425 81.9 55.6516C81.4025 55.3987 80.9944 55.4017 80.5447 55.723C80.0889 56.0533 79.6153 56.3568 79.1387 56.6573C77.6762 57.5857 77.6911 57.5649 79.1447 58.5825C81.4472 60.1953 83.7438 61.811 86.0136 63.4743C87.7621 64.7568 88.1374 66.8486 86.9817 68.4881C85.7515 70.2377 83.5859 70.6097 81.7689 69.3421C79.3204 67.6341 76.8957 65.8905 74.4651 64.1557C73.8753 63.7362 73.6757 63.4089 73.3123 64.5634C73.2706 64.6943 73.2706 64.7419 73.2051 64.971C72.7762 66.5004 72.8983 67.4526 74.0481 68.5922C76.5651 71.0977 77.6344 74.344 77.9949 77.8224C78.0783 78.6228 78.2213 78.8579 79.0464 78.5425C84.4379 76.5131 88.6408 73.0972 91.5064 68.0447C93.243 64.9889 94.1842 61.7098 94.3898 58.2106L94.3928 58.2136Z" fill="#253678"/>
<path d="M99.4626 53.0897C98.4349 54.0775 97.5324 54.8155 96.4839 55.3332C95.9209 55.6099 96.0222 56.0712 96.0311 56.5205C96.1473 61.7574 94.6192 66.4975 91.6226 70.7495C88.4502 75.2515 84.2383 78.3967 78.9839 80.0778C78.3017 80.2951 77.9949 80.5926 77.8966 81.2859C77.7566 82.2708 77.3962 83.2051 76.8541 84.3329C84.0834 82.9046 89.9187 79.4917 94.1813 73.7548C98.6762 67.7174 100.615 60.8886 99.4656 53.0897H99.4626Z" fill="#253678"/>
<path d="M84.2979 63.9712C84.2055 64.1289 84.14 64.2539 84.0596 64.367C83.2941 65.4531 82.5196 66.5362 81.757 67.6282C81.483 68.018 81.2387 68.0805 80.8217 67.7591C79.8477 67.0093 78.8468 66.2922 77.8221 65.6078C77.4021 65.3281 77.3277 65.1049 77.6285 64.6943C78.3911 63.6499 79.1209 62.5846 79.8715 61.5343C80.077 61.2456 80.2975 60.9392 80.7234 61.2516C81.8315 62.058 82.9426 62.8584 84.0477 63.6707C84.1549 63.7451 84.2204 63.873 84.2949 63.9683L84.2979 63.9712Z" fill="#253678"/>
<path d="M55.4043 63.9712C55.5026 64.1289 55.5711 64.2539 55.6545 64.367C56.4528 65.4531 57.26 66.5362 58.0554 67.6282C58.3413 68.018 58.5975 68.0805 59.0324 67.7591C60.0481 67.0093 61.0937 66.2922 62.16 65.6078C62.5979 65.3281 62.6754 65.1049 62.3596 64.6943C61.5643 63.6499 60.8017 62.5846 60.0213 61.5343C59.8069 61.2456 59.5775 60.9392 59.1337 61.2516C57.9779 62.058 56.8162 62.8584 55.6634 63.6707C55.5503 63.7451 55.4817 63.873 55.4043 63.9683V63.9712Z" fill="#253678"/>
<path d="M70 32.856C71.811 32.856 73.2766 31.392 73.2766 29.5829C73.2766 27.7737 71.811 26.3098 70 26.3098C68.1889 26.3098 66.7234 27.7767 66.7234 29.5829C66.7234 31.389 68.1889 32.856 70 32.856Z" fill="#253678"/>
<path d="M70 48.9239C71.811 48.9239 73.2766 47.4599 73.2766 45.6508C73.2766 43.8417 71.811 42.3777 70 42.3777C68.1889 42.3777 66.7234 43.8446 66.7234 45.6508C66.7234 47.457 68.1889 48.9239 70 48.9239Z" fill="#253678"/>
<path fill-rule="evenodd" clip-rule="evenodd" d="M79.526 10.3847C79.526 16.1185 74.8732 20.7693 69.1302 20.7693C63.3873 20.7693 58.7345 16.1215 58.7345 10.3847C58.7345 4.6478 63.3873 0 69.1302 0C74.8732 0 79.526 4.6478 79.526 10.3847ZM75.0728 6.86458H76.02C76.2732 6.86458 76.4817 7.06989 76.4817 7.32579V15.2616C76.4817 15.5145 76.2762 15.7228 76.02 15.7228H74.8077C74.5545 15.7228 74.346 15.5175 74.346 15.2616V8.33747L64.689 5.26374C64.5728 5.22506 64.4775 5.14769 64.4209 5.0376C64.3673 4.93048 64.3554 4.8055 64.3911 4.68648L64.6056 4.01401C64.6651 3.8206 64.8409 3.69265 65.0434 3.69265C65.0911 3.69265 65.1388 3.6986 65.1834 3.71348L75.0698 6.8616L75.0728 6.86458ZM65.7434 5.00189L65.8924 4.53473C65.94 4.38893 65.8596 4.23122 65.7136 4.18362C65.5647 4.13601 65.4098 4.21932 65.3622 4.36215L65.2132 4.82931C65.1656 4.97809 65.249 5.13281 65.3919 5.18042C65.4217 5.18935 65.4485 5.19233 65.4783 5.19233C65.5945 5.19233 65.7047 5.12091 65.7434 4.99891V5.00189ZM67.3758 5.52261L67.5247 5.05545C67.5724 4.90965 67.489 4.75194 67.346 4.70434C67.1971 4.65673 67.0422 4.74004 66.9945 4.88287L66.8456 5.35003C66.7979 5.49881 66.8813 5.65353 67.0273 5.70114C67.0541 5.71007 67.0839 5.71305 67.1136 5.71305C67.2298 5.71305 67.34 5.64163 67.3788 5.51963L67.3758 5.52261ZM69.0081 6.04333L69.1571 5.57617C69.2047 5.42739 69.1213 5.27267 68.9754 5.22506C68.8264 5.17745 68.6715 5.26076 68.6239 5.40359L68.4749 5.87075C68.4273 6.01953 68.5107 6.17425 68.6537 6.22186C68.6834 6.23079 68.7102 6.23377 68.74 6.23377C68.8562 6.23377 68.9664 6.16235 69.0051 6.04035L69.0081 6.04333ZM70.6375 6.56108L70.7864 6.09391C70.8341 5.94811 70.7537 5.79041 70.6077 5.7428C70.4588 5.69519 70.3039 5.77851 70.2562 5.92133L70.1073 6.38849C70.0596 6.53727 70.143 6.692 70.286 6.73961C70.3158 6.74854 70.3426 6.75151 70.3724 6.75151C70.4885 6.75151 70.5988 6.6801 70.6375 6.5581V6.56108ZM72.2698 7.0818L72.4188 6.61464C72.4664 6.46883 72.383 6.31113 72.24 6.26352C72.0911 6.21591 71.9362 6.29923 71.8885 6.44205L71.7396 6.90921C71.6919 7.05799 71.7754 7.21272 71.9183 7.26033C71.9481 7.26926 71.9749 7.27223 72.0047 7.27223C72.1209 7.27223 72.2311 7.20082 72.2698 7.07882V7.0818ZM73.9022 7.60252L74.0511 7.13536C74.0958 6.98658 74.0153 6.83185 73.8694 6.78424C73.7205 6.73663 73.5656 6.81995 73.5179 6.96277L73.369 7.42993C73.3213 7.57871 73.4047 7.73344 73.5477 7.78105C73.5775 7.78998 73.6043 7.79295 73.6341 7.79295C73.7502 7.79295 73.8605 7.72154 73.8992 7.59954L73.9022 7.60252ZM72.6868 9.49496C72.7345 9.48306 72.7822 9.47711 72.8298 9.47711C73.083 9.47711 73.2647 9.67052 73.2588 9.93832V10.2537C73.2588 10.5632 73.0056 10.8161 72.6958 10.8161H72.6273L72.7166 11.0333C72.8626 11.3904 72.9817 11.9914 72.9817 12.3783V15.0652C72.9817 15.3746 72.7285 15.6276 72.4188 15.6276H71.683C71.3732 15.6276 71.12 15.3746 71.12 15.0652V14.3927H64.7843V15.0652C64.7843 15.3746 64.5311 15.6276 64.2213 15.6276H63.4856C63.1758 15.6276 62.9226 15.3746 62.9226 15.0652V12.3783C62.9226 11.9944 63.0417 11.3904 63.1877 11.0333L63.2771 10.8161H63.2175C62.9077 10.8161 62.6545 10.5632 62.6545 10.2537V9.93832C62.6545 9.67052 62.8362 9.47711 63.0894 9.47711C63.137 9.47711 63.1847 9.48306 63.2324 9.49496L63.7596 9.64076L64.3166 8.28987C64.4745 7.909 64.9422 7.59656 65.3562 7.59656H70.56C70.9771 7.59656 71.4417 7.909 71.5996 8.28987L72.1566 9.64374L72.6898 9.49496H72.6868ZM65.0047 8.45947L64.1647 10.5066C64.0724 10.7358 64.1975 10.9232 64.4388 10.9232H71.4596C71.7098 10.9232 71.8349 10.7358 71.7396 10.5066L70.8996 8.45947C70.8043 8.23036 70.5273 8.0429 70.2771 8.0429H65.6243C65.3741 8.0429 65.0971 8.23036 65.0017 8.45947H65.0047ZM65.8209 13.3185C65.943 13.3185 66.0443 13.2174 66.0443 13.0954V12.3277C66.0443 12.2057 65.943 12.1045 65.8209 12.1045H64.2213C64.0992 12.1045 63.9979 12.2057 63.9979 12.3277V13.0954C63.9979 13.2174 64.0992 13.3185 64.2213 13.3185H65.8209ZM71.68 13.3185C71.8022 13.3185 71.9034 13.2174 71.9034 13.0954V12.3277C71.9034 12.2057 71.8022 12.1045 71.68 12.1045H70.0805C69.9583 12.1045 69.857 12.2057 69.857 12.3277V13.0954C69.857 13.2174 69.9583 13.3185 70.0805 13.3185H71.68Z" fill="#253678"/>
</svg>
