<svg width="194" height="56" viewBox="0 0 194 56" fill="none" xmlns="http://www.w3.org/2000/svg">
<path d="M74.1378 32.5422H70.2252V23.0828H65.9126V32.5422H62V20H74.1378V32.5422Z" fill="#253678"/>
<path d="M76.5341 35.997V23.4585H79.8322V24.7999C80.2867 24.2364 80.7049 23.8547 81.0867 23.6548C81.5994 23.3858 82.1703 23.2549 82.7921 23.2549C84.0212 23.2549 84.9702 23.7202 85.6393 24.6473C86.3157 25.5779 86.6538 26.7267 86.6538 28.0936C86.6538 29.606 86.2866 30.7584 85.5557 31.5582C84.8212 32.3507 83.8976 32.747 82.7776 32.747C82.2358 32.747 81.7376 32.6561 81.2867 32.4743C80.8431 32.2925 80.4431 32.0199 80.0904 31.6636V36.0007H76.5341V35.997ZM80.0649 28.0246C80.0649 28.7444 80.2177 29.2751 80.5231 29.6241C80.8285 29.9731 81.214 30.144 81.6831 30.144C82.094 30.144 82.4358 29.9804 82.7121 29.6496C82.9885 29.3115 83.1267 28.7444 83.1267 27.9482C83.1267 27.2139 82.9812 26.6722 82.6939 26.3304C82.4067 25.9814 82.054 25.8106 81.6394 25.8106C81.1885 25.8106 80.814 25.9851 80.5122 26.3304C80.2104 26.6794 80.0613 27.2429 80.0613 28.0246H80.0649Z" fill="#253678"/>
<path d="M98.6099 32.5444H95.2755V28.0801L91.8137 32.5444H88.4647V23.4668H91.7992V27.9929L95.2973 23.4668H98.6136V32.5444H98.6099Z" fill="#253678"/>
<path d="M107.795 27.7071C108.493 27.7762 109.046 28.0052 109.457 28.3906C109.871 28.7796 110.079 29.2958 110.079 29.9465C110.079 30.8118 109.791 31.4625 109.213 31.8951C108.635 32.3241 107.599 32.5386 106.104 32.5386H100.857V23.4609H106.526C107.555 23.4609 108.337 23.6536 108.871 24.0426C109.413 24.4316 109.686 24.9733 109.686 25.6676C109.686 26.1584 109.511 26.5874 109.159 26.9509C108.806 27.3109 108.351 27.5508 107.791 27.6708V27.7035L107.795 27.7071ZM104.384 26.9219H105.275C105.864 26.9219 106.159 26.6565 106.159 26.1257C106.159 25.6967 105.846 25.4859 105.224 25.4859H104.384V26.9219ZM104.384 30.4046H105.544C105.832 30.4046 106.068 30.3392 106.246 30.2083C106.424 30.0774 106.515 29.8847 106.515 29.6339C106.515 29.0849 106.191 28.8123 105.544 28.8123H104.384V30.4046Z" fill="#253678"/>
<path d="M111.788 35.997V23.4585H115.086V24.7999C115.54 24.2364 115.959 23.8547 116.34 23.6548C116.853 23.3858 117.424 23.2549 118.046 23.2549C119.275 23.2549 120.224 23.7202 120.893 24.6473C121.569 25.5779 121.907 26.7267 121.907 28.0936C121.907 29.606 121.54 30.7584 120.809 31.5582C120.075 32.3507 119.151 32.747 118.031 32.747C117.489 32.747 116.991 32.6561 116.54 32.4743C116.097 32.2925 115.697 32.0199 115.344 31.6636V36.0007H111.784L111.788 35.997ZM115.319 28.0246C115.319 28.7444 115.471 29.2751 115.777 29.6241C116.082 29.9731 116.468 30.144 116.937 30.144C117.348 30.144 117.689 29.9804 117.966 29.6496C118.242 29.3115 118.38 28.7444 118.38 27.9482C118.38 27.2139 118.235 26.6722 117.948 26.3304C117.66 25.9814 117.308 25.8106 116.893 25.8106C116.442 25.8106 116.068 25.9851 115.766 26.3304C115.468 26.6794 115.315 27.2429 115.315 28.0246H115.319Z" fill="#253678"/>
<path d="M126.809 26.4002L123.442 26.0512C123.569 25.4696 123.751 25.0115 123.987 24.6807C124.231 24.3462 124.576 24.0554 125.027 23.8082C125.351 23.63 125.795 23.4955 126.362 23.3974C126.925 23.2992 127.54 23.252 128.198 23.252C129.253 23.252 130.104 23.3101 130.744 23.4301C131.384 23.5428 131.918 23.7864 132.344 24.1572C132.645 24.4153 132.882 24.7788 133.053 25.2514C133.227 25.7204 133.311 26.1676 133.311 26.5929V30.6064C133.311 31.0354 133.336 31.3699 133.387 31.6171C133.445 31.857 133.565 32.166 133.751 32.5405H130.442C130.311 32.3078 130.224 32.1297 130.184 32.0097C130.144 31.8825 130.104 31.6898 130.064 31.428C129.602 31.8679 129.144 32.1806 128.685 32.3696C128.064 32.6204 127.336 32.7477 126.511 32.7477C125.413 32.7477 124.58 32.4968 124.009 31.9952C123.446 31.4935 123.162 30.8754 123.162 30.1374C123.162 29.4467 123.366 28.8796 123.776 28.4361C124.187 27.9925 124.944 27.6617 126.046 27.4436C127.369 27.1819 128.224 27.0001 128.616 26.8947C129.009 26.7856 129.424 26.6474 129.864 26.4766C129.864 26.0476 129.773 25.7495 129.595 25.5786C129.416 25.4078 129.1 25.3205 128.649 25.3205C128.071 25.3205 127.638 25.4114 127.351 25.5932C127.125 25.7349 126.944 26.004 126.805 26.3966L126.809 26.4002ZM129.864 28.2325C129.38 28.4034 128.875 28.556 128.347 28.6869C127.631 28.876 127.18 29.0614 126.987 29.2431C126.791 29.4322 126.693 29.6467 126.693 29.883C126.693 30.1556 126.787 30.381 126.98 30.5592C127.176 30.73 127.464 30.8173 127.838 30.8173C128.213 30.8173 128.595 30.7228 128.929 30.5337C129.271 30.3447 129.511 30.1156 129.649 29.8503C129.794 29.5776 129.867 29.2213 129.867 28.7887V28.2325H129.864Z" fill="#253678"/>
<path d="M143.169 26.008H140.616V32.5444H137.085V26.008H134.533V23.4668H143.172V26.008H143.169Z" fill="#253678"/>
<path d="M154.812 32.5444H151.281V29.1126H148.078V32.5444H144.547V23.4668H148.078V26.5714H151.281V23.4668H154.812V32.5444Z" fill="#253678"/>
<path d="M167.332 32.5444H163.997V28.0801L160.535 32.5444H157.186V23.4668H160.521V27.9929L164.019 23.4668H167.335V32.5444H167.332Z" fill="#253678"/>
<path d="M179.815 32.5417H175.84L174.491 30.0333C174.277 29.6334 174.066 29.3826 173.859 29.2808C173.659 29.179 173.404 29.1281 173.106 29.1281V32.5417H169.582V23.4641H173.106V26.7396C173.393 26.7105 173.608 26.616 173.746 26.456C173.884 26.2961 174.084 25.9471 174.342 25.4054C174.608 24.8637 174.844 24.4675 175.051 24.2166C175.259 23.9658 175.524 23.7767 175.848 23.6531C176.171 23.5295 176.575 23.4495 177.059 23.4132C177.542 23.3805 178.266 23.3623 179.222 23.3623V25.8344H179.066C178.593 25.8344 178.233 25.8562 177.982 25.8962C177.735 25.9289 177.535 26.0089 177.386 26.1289C177.237 26.2488 177.062 26.4924 176.866 26.8632C176.67 27.234 176.506 27.4921 176.371 27.6412C176.244 27.783 176.055 27.8811 175.8 27.932C176.291 27.9793 176.67 28.0847 176.935 28.2483C177.2 28.4083 177.6 28.9281 178.139 29.8152L179.811 32.5454L179.815 32.5417Z" fill="#253678"/>
<path d="M186.171 25.1354H188.284C192.095 25.1354 194 26.5424 194 29.3598C194 30.2468 193.731 31.0285 193.189 31.7083C192.647 32.3881 191.869 32.788 190.851 32.9152C189.833 33.0352 189.222 33.0934 189.018 33.0934H182.222V22.6561H177.273V20.0059H186.175V25.1391L186.171 25.1354ZM186.171 30.2759H188.197C189.436 30.2759 190.055 29.8179 190.055 28.9017C190.055 28.0401 189.436 27.6075 188.197 27.6075H186.171V30.2759Z" fill="#253678"/>
<path fill-rule="evenodd" clip-rule="evenodd" d="M26 11.0795C15.5835 11.0795 7.1396 19.5347 7.1396 29.9644C7.1396 40.394 15.5835 48.8492 26 48.8492C36.4165 48.8492 44.8604 40.394 44.8604 29.9644C44.8604 19.5347 36.4165 11.0795 26 11.0795ZM6.78262 29.9644C6.78262 19.3367 15.3867 10.7217 26 10.7217C36.6133 10.7217 45.2174 19.3367 45.2174 29.9644C45.2174 40.592 36.6133 49.2071 26 49.2071C15.3867 49.2071 6.78262 40.592 6.78262 29.9644Z" fill="#A8AFC9"/>
<path fill-rule="evenodd" clip-rule="evenodd" d="M26 18.2231C19.4956 18.2231 14.2229 23.4959 14.2229 30C14.2229 36.5041 19.4956 41.7769 26 41.7769C32.5044 41.7769 37.7771 36.5041 37.7771 30C37.7771 23.4959 32.5044 18.2231 26 18.2231ZM14 30C14 23.3725 19.3727 18 26 18C32.6273 18 38 23.3725 38 30C38 36.6275 32.6273 42 26 42C19.3727 42 14 36.6275 14 30Z" fill="#A8AFC9"/>
<path fill-rule="evenodd" clip-rule="evenodd" d="M26 4.28849C11.8376 4.28849 0.356979 15.7844 0.356979 29.9648C0.356979 44.1453 11.8376 55.6412 26 55.6412C40.1624 55.6412 51.643 44.1453 51.643 29.9648C51.643 15.7844 40.1624 4.28849 26 4.28849ZM0 29.9648C0 15.5864 11.6408 3.93066 26 3.93066C40.3592 3.93066 52 15.5864 52 29.9648C52 44.3433 40.3592 55.999 26 55.999C11.6408 55.999 0 44.3433 0 29.9648Z" fill="#A8AFC9"/>
<path d="M27.6076 28.2871C28.0788 28.8578 28.3537 29.4762 28.5667 30.1291C28.6274 30.3138 28.5583 30.4473 28.4536 30.5914C28.1038 31.0788 27.773 31.5804 27.4112 32.0582C27.2792 32.2333 27.2673 32.3596 27.391 32.5324C28.6226 34.2588 29.8506 35.9853 31.0774 37.7153C31.5701 38.4088 32.0615 39.101 32.5398 39.804C32.8635 40.2794 32.7433 40.8883 32.2876 41.2076C31.8295 41.5281 31.2297 41.4292 30.8882 40.949C29.3342 38.7698 27.7825 36.5906 26.2451 34.3994C26.0416 34.1087 25.9453 34.1242 25.7584 34.3923C24.2782 36.5036 22.7907 38.6078 21.3045 40.7155C21.0213 41.1158 20.7084 41.459 20.1455 41.372C19.3816 41.2529 19.0234 40.426 19.4768 39.7683C20.1896 38.7376 20.9214 37.7201 21.646 36.6978C22.6146 35.3312 23.5785 33.9645 24.5542 32.6051C24.7101 32.3882 24.7101 32.2226 24.5495 32.0081C24.2056 31.5506 23.8974 31.0692 23.5535 30.6117C23.4095 30.4211 23.3905 30.2483 23.4631 30.0291C23.6332 29.5072 23.8736 29.0246 24.1639 28.5611C24.3281 28.3014 24.4245 28.305 24.5911 28.5516C24.9659 29.1069 25.3646 29.6466 25.7442 30.1983C25.9179 30.4508 26.0369 30.5235 26.2463 30.209C26.6675 29.5715 27.1304 28.9591 27.6088 28.2895L27.6076 28.2871Z" fill="#253678"/>
<path d="M16.3151 23.3081C16.2771 22.5777 16.2771 22.5813 16.9637 22.7326C18.4594 23.0627 19.9171 22.9924 21.3057 22.2823C21.5044 22.181 21.6674 22.1822 21.8471 22.3109C22.0292 22.4431 22.2184 22.5646 22.4088 22.685C22.993 23.0567 22.9871 23.0484 22.4064 23.4559C21.4866 24.1017 20.5691 24.7486 19.6624 25.4147C18.9639 25.9282 18.814 26.7658 19.2757 27.4223C19.7671 28.1229 20.6322 28.2719 21.3581 27.7643C22.3362 27.0804 23.3048 26.3822 24.2758 25.6875C24.5114 25.5195 24.5911 25.3885 24.7363 25.8508C24.7529 25.9032 24.7529 25.9223 24.7791 26.014C24.9505 26.6264 24.9017 27.0077 24.4424 27.464C23.4369 28.4673 23.0097 29.7672 22.8657 31.16C22.8324 31.4805 22.7753 31.5747 22.4457 31.4484C20.2919 30.6358 18.6129 29.2679 17.4682 27.2448C16.7745 26.0211 16.3984 24.7081 16.3163 23.3069L16.3151 23.3081Z" fill="#253678"/>
<path d="M14.2875 21.2578C14.6921 21.6534 15.0479 21.9489 15.462 22.1562C15.6845 22.267 15.644 22.4517 15.6404 22.6316C15.594 24.7286 16.1961 26.6266 17.3789 28.3293C18.6296 30.132 20.2907 31.3914 22.3636 32.0646C22.6325 32.1516 22.7539 32.2707 22.7919 32.5483C22.8467 32.9427 22.9895 33.3168 23.2037 33.7684C20.3526 33.1965 18.0524 31.8299 16.3711 29.5327C14.5993 27.1152 13.8341 24.3807 14.2875 21.2578Z" fill="#253678"/>
<path d="M35.8038 23.3081C35.8419 22.5777 35.8419 22.5813 35.1553 22.7326C33.6596 23.0627 32.2019 22.9924 30.8133 22.2823C30.6145 22.181 30.4515 22.1822 30.2718 22.3109C30.0898 22.4431 29.9006 22.5646 29.7102 22.685C29.1259 23.0567 29.1319 23.0484 29.7126 23.4559C30.6324 24.1017 31.5498 24.7486 32.4566 25.4147C33.155 25.9282 33.305 26.7658 32.8433 27.4223C32.3518 28.1229 31.4868 28.2719 30.7609 27.7643C29.7828 27.0804 28.8142 26.3822 27.8432 25.6875C27.6076 25.5195 27.5279 25.3885 27.3827 25.8508C27.366 25.9032 27.366 25.9223 27.3399 26.014C27.1685 26.6264 27.2173 27.0077 27.6766 27.464C28.6821 28.4673 29.1093 29.7672 29.2533 31.16C29.2866 31.4805 29.3437 31.5747 29.6733 31.4484C31.8271 30.6358 33.5061 29.2679 34.6508 27.2448C35.3445 26.0211 35.7205 24.7081 35.8026 23.3069L35.8038 23.3081Z" fill="#253678"/>
<path d="M37.8291 21.2578C37.4186 21.6534 37.058 21.9489 36.6392 22.1562C36.4143 22.267 36.4547 22.4517 36.4583 22.6316C36.5047 24.7286 35.8943 26.6266 34.6972 28.3293C33.4299 30.132 31.7474 31.3914 29.6483 32.0646C29.3758 32.1516 29.2533 32.2707 29.214 32.5483C29.1581 32.9427 29.0141 33.3168 28.7975 33.7684C31.6855 33.1965 34.0166 31.8299 35.7194 29.5327C37.515 27.1152 38.2896 24.3807 37.8303 21.2578H37.8291Z" fill="#253678"/>
<path d="M31.7712 25.6142C31.7343 25.6774 31.7081 25.7274 31.676 25.7727C31.3702 26.2076 31.0608 26.6413 30.7562 27.0786C30.6467 27.2347 30.5491 27.2597 30.3825 27.131C29.9934 26.8307 29.5936 26.5436 29.1843 26.2696C29.0165 26.1576 28.9867 26.0682 29.1069 25.9038C29.4115 25.4856 29.7031 25.059 30.0029 24.6384C30.085 24.5228 30.1731 24.4001 30.3432 24.5252C30.7859 24.8481 31.2297 25.1686 31.6712 25.4939C31.714 25.5237 31.7402 25.5749 31.77 25.6131L31.7712 25.6142Z" fill="#253678"/>
<path d="M20.2288 25.6142C20.2681 25.6774 20.2955 25.7274 20.3288 25.7727C20.6477 26.2076 20.9702 26.6413 21.2879 27.0786C21.4021 27.2347 21.5044 27.2597 21.6782 27.131C22.0839 26.8307 22.5016 26.5436 22.9276 26.2696C23.1025 26.1576 23.1334 26.0682 23.0073 25.9038C22.6896 25.4856 22.385 25.059 22.0732 24.6384C21.9875 24.5228 21.8959 24.4001 21.7186 24.5252C21.2569 24.8481 20.7929 25.1686 20.3323 25.4939C20.2871 25.5237 20.2598 25.5749 20.2288 25.6131V25.6142Z" fill="#253678"/>
<path d="M26.0595 15.6213C26.783 15.6213 27.3684 15.0351 27.3684 14.3106C27.3684 13.5862 26.783 13 26.0595 13C25.336 13 24.7506 13.5874 24.7506 14.3106C24.7506 15.0339 25.336 15.6213 26.0595 15.6213Z" fill="#253678"/>
<path d="M26.0595 21.0549C26.783 21.0549 27.3684 20.4687 27.3684 19.7442C27.3684 19.0198 26.783 18.4336 26.0595 18.4336C25.336 18.4336 24.7506 19.021 24.7506 19.7442C24.7506 20.4675 25.336 21.0549 26.0595 21.0549Z" fill="#253678"/>
<path fill-rule="evenodd" clip-rule="evenodd" d="M30.7179 5C30.7179 7.76075 28.4801 10 25.7179 10C22.9557 10 20.7179 7.76218 20.7179 5C20.7179 2.23782 22.9557 0 25.7179 0C28.4801 0 30.7179 2.23782 30.7179 5ZM28.5761 3.30516H29.0317C29.1534 3.30516 29.2537 3.40401 29.2537 3.52722V7.34814C29.2537 7.46991 29.1549 7.5702 29.0317 7.5702H28.4486C28.3268 7.5702 28.2265 7.47135 28.2265 7.34814V4.01433L23.5818 2.53438C23.5259 2.51576 23.4801 2.47851 23.4529 2.4255C23.4271 2.37393 23.4213 2.31375 23.4385 2.25645L23.5417 1.93266C23.5703 1.83954 23.6549 1.77794 23.7523 1.77794C23.7752 1.77794 23.7981 1.7808 23.8196 1.78797L28.5746 3.30372L28.5761 3.30516ZM24.089 2.40831L24.1606 2.18338C24.1835 2.11318 24.1448 2.03725 24.0746 2.01433C24.003 1.9914 23.9285 2.03152 23.9056 2.10029L23.8339 2.32521C23.811 2.39685 23.8511 2.47135 23.9199 2.49427C23.9342 2.49857 23.9471 2.5 23.9615 2.5C24.0173 2.5 24.0703 2.46562 24.089 2.40688V2.40831ZM24.8741 2.65903L24.9457 2.4341C24.9686 2.3639 24.9285 2.28797 24.8597 2.26504C24.7881 2.24212 24.7136 2.28223 24.6907 2.351L24.619 2.57593C24.5961 2.64756 24.6362 2.72206 24.7064 2.74499C24.7193 2.74928 24.7337 2.75072 24.748 2.75072C24.8039 2.75072 24.8569 2.71633 24.8755 2.65759L24.8741 2.65903ZM25.6592 2.90974L25.7308 2.68481C25.7537 2.61318 25.7136 2.53868 25.6434 2.51576C25.5718 2.49284 25.4973 2.53295 25.4744 2.60172L25.4027 2.82665C25.3798 2.89828 25.4199 2.97278 25.4887 2.9957C25.503 3 25.5159 3.00143 25.5302 3.00143C25.5861 3.00143 25.6391 2.96705 25.6577 2.90831L25.6592 2.90974ZM26.4428 3.15903L26.5145 2.9341C26.5374 2.8639 26.4987 2.78797 26.4285 2.76504C26.3569 2.74212 26.2824 2.78224 26.2594 2.851L26.1878 3.07593C26.1649 3.14756 26.205 3.22206 26.2738 3.24499C26.2881 3.24928 26.301 3.25072 26.3153 3.25072C26.3712 3.25072 26.4242 3.21633 26.4428 3.15759V3.15903ZM27.2279 3.40974L27.2996 3.18481C27.3225 3.11461 27.2824 3.03868 27.2136 3.01576C27.142 2.99284 27.0675 3.03295 27.0445 3.10172L26.9729 3.32665C26.95 3.39828 26.9901 3.47278 27.0589 3.4957C27.0732 3.5 27.0861 3.50143 27.1004 3.50143C27.1563 3.50143 27.2093 3.46705 27.2279 3.40831V3.40974ZM28.013 3.66046L28.0847 3.43553C28.1062 3.3639 28.0675 3.2894 27.9973 3.26648C27.9256 3.24355 27.8511 3.28367 27.8282 3.35244L27.7566 3.57736C27.7337 3.649 27.7738 3.7235 27.8425 3.74642C27.8569 3.75072 27.8698 3.75215 27.8841 3.75215C27.94 3.75215 27.993 3.71777 28.0116 3.65903L28.013 3.66046ZM27.4285 4.57163C27.4514 4.5659 27.4743 4.56304 27.4973 4.56304C27.619 4.56304 27.7064 4.65616 27.7036 4.7851V4.93696C27.7036 5.08596 27.5818 5.20774 27.4328 5.20774H27.3999L27.4428 5.31232C27.513 5.48424 27.5703 5.77364 27.5703 5.95989V7.25358C27.5703 7.40258 27.4486 7.52435 27.2996 7.52435H26.9457C26.7967 7.52435 26.6749 7.40258 26.6749 7.25358V6.9298H23.6276V7.25358C23.6276 7.40258 23.5059 7.52435 23.3569 7.52435H23.003C22.854 7.52435 22.7322 7.40258 22.7322 7.25358V5.95989C22.7322 5.77507 22.7895 5.48424 22.8597 5.31232L22.9027 5.20774H22.8741C22.7251 5.20774 22.6033 5.08596 22.6033 4.93696V4.7851C22.6033 4.65616 22.6907 4.56304 22.8125 4.56304C22.8354 4.56304 22.8583 4.5659 22.8812 4.57163L23.1348 4.64183L23.4027 3.9914C23.4787 3.80802 23.7036 3.65759 23.9027 3.65759H26.4056C26.6062 3.65759 26.8296 3.80802 26.9056 3.9914L27.1735 4.64327L27.4299 4.57163H27.4285ZM23.7337 4.07307L23.3297 5.05874C23.2852 5.16905 23.3454 5.25931 23.4615 5.25931H26.8382C26.9586 5.25931 27.0188 5.16905 26.9729 5.05874L26.5689 4.07307C26.5231 3.96275 26.3898 3.87249 26.2695 3.87249H24.0317C23.9113 3.87249 23.7781 3.96275 23.7322 4.07307H23.7337ZM24.1262 6.41261C24.185 6.41261 24.2337 6.3639 24.2337 6.30516V5.93553C24.2337 5.87679 24.185 5.82808 24.1262 5.82808H23.3569C23.2981 5.82808 23.2494 5.87679 23.2494 5.93553V6.30516C23.2494 6.3639 23.2981 6.41261 23.3569 6.41261H24.1262ZM26.9443 6.41261C27.003 6.41261 27.0517 6.3639 27.0517 6.30516V5.93553C27.0517 5.87679 27.003 5.82808 26.9443 5.82808H26.1749C26.1162 5.82808 26.0675 5.87679 26.0675 5.93553V6.30516C26.0675 6.3639 26.1162 6.41261 26.1749 6.41261H26.9443Z" fill="#253678"/>
</svg>
