<svg width="24" height="24" viewBox="0 0 24 24" fill="none" xmlns="http://www.w3.org/2000/svg">
<path d="M21.75 4H2.25C1.00931 4 0 5.12151 0 6.5V16.5C0 17.8785 1.00931 19 2.25 19H21.75C22.9907 19 24 17.8785 24 16.5V6.5C24 5.12151 22.9907 4 21.75 4ZM22.5 16.5C22.5 16.9595 22.1635 17.3333 21.75 17.3333H2.25C1.83647 17.3333 1.5 16.9595 1.5 16.5V6.5C1.5 6.04052 1.83647 5.66667 2.25 5.66667H21.75C22.1635 5.66667 22.5 6.04052 22.5 6.5V16.5Z" fill="#253678"/>
<path d="M5.94806 11.5L7.25808 8.89494C7.41959 8.5738 7.25592 8.19777 6.89255 8.05503C6.52932 7.9123 6.10376 8.05694 5.94221 8.37809L5.16016 9.93319L4.37811 8.37805C4.21661 8.05686 3.79096 7.9123 3.42777 8.05499C3.0644 8.19773 2.90073 8.57376 3.06224 8.8949L4.37226 11.5L3.06224 14.105C2.90073 14.4262 3.0644 14.8022 3.42777 14.9449C3.79235 15.0881 4.21715 14.9419 4.37811 14.6219L5.16016 13.0668L5.94221 14.6219C6.10317 14.942 6.5281 15.0881 6.89255 14.945C7.25592 14.8022 7.41959 14.4262 7.25808 14.1051L5.94806 11.5ZM12.0001 8.00019H10.5601C10.1624 8.00019 9.84011 8.2851 9.84011 8.63652C9.84011 8.98793 10.1624 9.27284 10.5601 9.27284H12.0001C12.1986 9.27284 12.3601 9.41558 12.3601 9.591V10.5455C12.3601 10.7209 12.1986 10.8637 12.0001 10.8637H11.6401C11.2424 10.8637 10.9201 11.1486 10.9201 11.5C10.9201 11.8514 11.2424 12.1363 11.6401 12.1363H12.0001C12.1986 12.1363 12.3601 12.279 12.3601 12.4545V13.409C12.3601 13.5844 12.1986 13.7271 12.0001 13.7271H10.5601C10.1624 13.7271 9.84011 14.012 9.84011 14.3634C9.84011 14.7149 10.1624 14.9998 10.5601 14.9998H12.0001C12.9926 14.9998 13.8001 14.2861 13.8001 13.409C13.8001 12.4829 13.8866 12.0256 13.4391 11.5C13.6737 11.225 13.8005 10.8899 13.8001 10.5455V9.591C13.8001 8.71383 12.9926 8.00019 12.0001 8.00019ZM18.84 9.591C18.84 8.71383 18.0325 8.00019 17.04 8.00019H16.32C15.3275 8.00019 14.5201 8.71383 14.5201 9.591C14.5201 9.94241 14.8424 10.2273 15.2401 10.2273C15.6377 10.2273 15.9601 9.94241 15.9601 9.591C15.9601 9.41558 16.1216 9.27284 16.32 9.27284H17.04C17.2385 9.27284 17.4 9.41558 17.4 9.591C17.4006 10.0878 17.2342 10.5736 16.9219 10.9867L14.641 14.0105C14.3227 14.4323 14.6653 14.9998 15.2401 14.9998H18.12C18.5177 14.9998 18.84 14.7149 18.84 14.3634C18.84 14.012 18.5177 13.7271 18.12 13.7271H16.5854L18.12 11.6926C18.5911 11.0682 18.84 10.3415 18.84 9.591ZM20.28 8.00019C19.8823 8.00019 19.56 8.2851 19.56 8.63652V14.3634C19.56 14.7149 19.8823 14.9998 20.28 14.9998C20.6777 14.9998 21 14.7149 21 14.3634V8.63652C21 8.2851 20.6777 8.00019 20.28 8.00019Z" fill="#253678"/>
<path d="M9.12012 10.8637H8.04013C7.64247 10.8637 7.32014 11.1486 7.32014 11.5C7.32014 11.8514 7.64247 12.1363 8.04013 12.1363H9.12012C9.51778 12.1363 9.84011 11.8514 9.84011 11.5C9.84011 11.1486 9.51778 10.8637 9.12012 10.8637Z" fill="#253678"/>
</svg>
