<svg width="24" height="24" viewBox="0 0 24 24" fill="none" xmlns="http://www.w3.org/2000/svg">
<path fill-rule="evenodd" clip-rule="evenodd" d="M16.4145 0.994819C16.4145 0.445395 16.8599 0 17.4093 0C21.0445 0 24 2.95551 24 6.59067C24 7.1401 23.5546 7.58549 23.0052 7.58549C22.4558 7.58549 22.0104 7.1401 22.0104 6.59067C22.0104 4.05436 19.9456 1.98964 17.4093 1.98964C16.8599 1.98964 16.4145 1.54424 16.4145 0.994819ZM16.4145 4.72539C16.4145 4.17597 16.8599 3.73057 17.4093 3.73057C18.9889 3.73057 20.2694 5.0111 20.2694 6.59067C20.2694 7.1401 19.824 7.58549 19.2746 7.58549C18.7252 7.58549 18.2798 7.1401 18.2798 6.59067C18.2798 6.10995 17.89 5.72021 17.4093 5.72021C16.8599 5.72021 16.4145 5.27481 16.4145 4.72539ZM12.8684 7.17483C12.5284 6.83489 11.9773 6.83489 11.6373 7.17483L3.06409 15.7481L3.06408 15.7481C1.63148 17.1806 1.6315 19.5033 3.06409 20.9359C4.49667 22.3685 6.81939 22.3685 8.25197 20.9359L14.1873 15.0006C14.5758 14.6121 15.2057 14.6121 15.5942 15.0006C15.9827 15.3891 15.9827 16.019 15.5942 16.4075L9.65886 22.3428L8.95542 21.6394L9.65886 22.3428C7.44928 24.5524 3.86678 24.5524 1.6572 22.3428C-0.552366 20.1332 -0.552439 16.5508 1.65721 14.3412L10.2304 5.76795C11.3474 4.651 13.1583 4.651 14.2753 5.76795L18.2321 9.72482C19.3491 10.8418 19.3491 12.6527 18.2321 13.7696C17.8436 14.1581 17.2138 14.1581 16.8253 13.7696C16.4367 13.3811 16.4367 12.7513 16.8253 12.3628C17.1652 12.0228 17.1652 11.4716 16.8253 11.1317L12.8684 7.17483ZM11.5493 9.72477C11.9378 9.33627 12.5677 9.33627 12.9562 9.72477L14.2752 11.0438C14.6637 11.4323 14.6637 12.0621 14.2752 12.4506C13.8867 12.8392 13.2568 12.8392 12.8683 12.4506L11.5493 11.1317C11.1608 10.7432 11.1608 10.1133 11.5493 9.72477ZM8.91145 12.3627C9.29995 11.9742 9.92983 11.9742 10.3183 12.3627L11.6373 13.6816C12.0258 14.0702 12.0258 14.7 11.6373 15.0885C11.2488 15.477 10.6189 15.477 10.2304 15.0885L8.91144 13.7696C8.52294 13.3811 8.52294 12.7512 8.91145 12.3627ZM6.31748 16.812C5.83673 16.812 5.44701 17.2017 5.44701 17.6825C5.44701 18.1632 5.83673 18.553 6.31748 18.553C6.79823 18.553 7.18795 18.1632 7.18795 17.6825C7.18795 17.2017 6.79823 16.812 6.31748 16.812ZM3.45737 17.6825C3.45737 16.1029 4.73789 14.8224 6.31748 14.8224C7.89707 14.8224 9.17759 16.1029 9.17759 17.6825C9.17759 19.2621 7.89707 20.5426 6.31748 20.5426C4.73789 20.5426 3.45737 19.2621 3.45737 17.6825Z" fill="#253678"/>
</svg>
