<svg width="24" height="24" viewBox="0 0 24 24" fill="none" xmlns="http://www.w3.org/2000/svg">
<path d="M17.4545 2H6.54545C4.03909 2 2 4.03908 2 6.54542V13.8181C2.0017 14.8654 2.36425 15.88 3.0266 16.6912C3.68894 17.5024 4.61061 18.0606 5.63636 18.2717V21.0908C5.63634 21.2554 5.681 21.4169 5.76557 21.5581C5.85014 21.6992 5.97146 21.8148 6.11658 21.8925C6.2617 21.9701 6.42517 22.0069 6.58956 21.9989C6.75395 21.9909 6.91309 21.9385 7.05 21.8471L12.2755 18.3635H17.4545C19.9609 18.3635 22 16.3244 22 13.8181V6.54542C22 4.03908 19.9609 2 17.4545 2ZM11.4955 16.6981L7.45455 19.3917V17.4544C7.45455 17.2133 7.35877 16.9821 7.18828 16.8116C7.01779 16.6411 6.78656 16.5454 6.54545 16.5454C5.04182 16.5454 3.81818 15.3217 3.81818 13.8181V6.54542C3.81818 5.0418 5.04182 3.81817 6.54545 3.81817H17.4545C18.9582 3.81817 20.1818 5.0418 20.1818 6.54542V13.8181C20.1818 15.3217 18.9582 16.5454 17.4545 16.5454H12C11.82 16.5425 11.6436 16.5959 11.4955 16.6981Z" fill="#253678"/>
<path d="M17.4545 7.45451H6.54545C6.30435 7.45451 6.07312 7.55029 5.90263 7.72077C5.73214 7.89126 5.63636 8.12249 5.63636 8.36359C5.63636 8.6047 5.73214 8.83593 5.90263 9.00641C6.07312 9.1769 6.30435 9.27268 6.54545 9.27268H17.4545C17.6957 9.27268 17.9269 9.1769 18.0974 9.00641C18.2679 8.83593 18.3636 8.6047 18.3636 8.36359C18.3636 8.12249 18.2679 7.89126 18.0974 7.72077C17.9269 7.55029 17.6957 7.45451 17.4545 7.45451ZM15.6364 11.0908H8.36364C8.12253 11.0908 7.8913 11.1866 7.72081 11.3571C7.55032 11.5276 7.45455 11.7588 7.45455 11.9999C7.45455 12.241 7.55032 12.4723 7.72081 12.6428C7.8913 12.8132 8.12253 12.909 8.36364 12.909H15.6364C15.8775 12.909 16.1087 12.8132 16.2792 12.6428C16.4497 12.4723 16.5455 12.241 16.5455 11.9999C16.5455 11.7588 16.4497 11.5276 16.2792 11.3571C16.1087 11.1866 15.8775 11.0908 15.6364 11.0908Z" fill="#253678"/>
</svg>
