<svg width="24" height="24" viewBox="0 0 24 24" fill="none" xmlns="http://www.w3.org/2000/svg">
<path d="M4.69383 13.4756C3.20848 13.4756 2 14.6841 2 16.1695V19.3061C2 20.7915 3.20848 22 4.69387 22C6.17926 22 7.3877 20.7915 7.3877 19.3061V16.1695C7.3877 14.6841 6.17922 13.4756 4.69383 13.4756ZM5.82516 19.3061C5.82516 19.93 5.31766 20.4375 4.69383 20.4375C4.07004 20.4375 3.5625 19.93 3.5625 19.3061V16.1695C3.5625 15.5456 4.07004 15.0381 4.69387 15.0381C5.3177 15.0381 5.8252 15.5457 5.82516 16.1695V19.3061ZM12 2C10.5146 2 9.30613 3.20848 9.30613 4.69387V19.3061C9.30613 20.7915 10.5146 22 12 22C13.4854 22 14.6939 20.7915 14.6939 19.3061V4.69387C14.6939 3.20848 13.4854 2 12 2ZM13.1314 19.3061C13.1314 19.93 12.6238 20.4375 12 20.4375C11.3762 20.4375 10.8686 19.93 10.8686 19.3061V4.69387C10.8686 4.07 11.3762 3.5625 12 3.5625C12.6238 3.5625 13.1314 4.07 13.1314 4.69387V19.3061ZM19.3061 7.73781C17.8208 7.73781 16.6123 8.94629 16.6123 10.4317V19.3061C16.6123 20.7915 17.8208 22 19.3062 22C20.7915 22 22 20.7915 22 19.3062V10.4317C22 8.94629 20.7915 7.73781 19.3061 7.73781ZM20.4375 19.3062C20.4375 19.93 19.93 20.4375 19.3061 20.4375C18.6823 20.4375 18.1748 19.93 18.1748 19.3062V10.4317C18.1748 9.80781 18.6823 9.30031 19.3062 9.30031C19.93 9.30031 20.4375 9.80781 20.4375 10.4317V19.3062Z" fill="#253678"/>
</svg>
