<svg width="24" height="24" viewBox="0 0 24 24" fill="none" xmlns="http://www.w3.org/2000/svg">
<path d="M11.9871 1C7.90414 1 4.58179 4.45243 4.58179 8.69529V14.7217C4.12613 14.8588 3.72559 15.1459 3.44036 15.5397C3.15513 15.9336 3.0006 16.4131 3 16.906C3.0006 17.5085 3.23115 18.0862 3.64108 18.5123C4.05101 18.9385 4.60685 19.1782 5.18668 19.1791H7.62287C7.98353 21.3453 9.79971 23 11.9864 23C14.1731 23 15.99 21.3453 16.3507 19.1791H18.8133C19.3932 19.1782 19.949 18.9385 20.3589 18.5123C20.7689 18.0862 20.9994 17.5085 21 16.906C20.9994 16.4131 20.8449 15.9336 20.5596 15.5397C20.2744 15.1459 19.8739 14.8588 19.4182 14.7217V8.69529C19.4182 4.45243 16.0959 1 11.9871 1ZM18.8133 17.6076H5.18668C5.01446 17.5973 4.85259 17.5189 4.73419 17.3885C4.6158 17.2581 4.54985 17.0856 4.54985 16.9064C4.54985 16.7271 4.6158 16.5547 4.73419 16.4243C4.85259 16.2939 5.01446 16.2155 5.18668 16.2051H5.3379C5.53843 16.2051 5.73075 16.1224 5.87255 15.975C6.01435 15.8277 6.09401 15.6278 6.09401 15.4194V8.69529C6.09477 5.31829 8.73813 2.57143 12.0129 2.57143C15.2619 2.57143 17.906 5.31829 17.906 8.69529V15.4194C17.906 15.6278 17.9857 15.8277 18.1275 15.975C18.2692 16.1224 18.4616 16.2051 18.6621 16.2051H18.8133C18.9855 16.2155 19.1474 16.2939 19.2658 16.4243C19.3842 16.5547 19.4501 16.7271 19.4501 16.9064C19.4501 17.0856 19.3842 17.2581 19.2658 17.3885C19.1474 17.5189 18.9855 17.5973 18.8133 17.6076ZM9.17743 19.1791H14.7953C14.4611 20.47 13.3345 21.4286 11.9871 21.4286C10.6398 21.4286 9.51315 20.47 9.17743 19.1791Z" fill="#253678"/>
<path d="M12.4466 4.06766C12.6471 4.06766 12.8395 4.15044 12.9813 4.29779C13.1231 4.44514 13.2027 4.64499 13.2027 4.85338C13.2027 5.06176 13.1231 5.26161 12.9813 5.40896C12.8395 5.55631 12.6471 5.63909 12.4466 5.63909C10.8104 5.63909 9.47962 7.01016 9.47962 8.69552C9.47962 8.9039 9.39996 9.10375 9.25816 9.2511C9.11636 9.39845 8.92404 9.48123 8.7235 9.48123C8.52297 9.48123 8.33065 9.39845 8.18885 9.2511C8.04705 9.10375 7.96739 8.9039 7.96739 8.69552C7.96739 6.14352 9.97638 4.06766 12.4466 4.06766Z" fill="#253678"/>
</svg>
