<svg width="24" height="24" viewBox="0 0 24 24" fill="none" xmlns="http://www.w3.org/2000/svg">
<path fill-rule="evenodd" clip-rule="evenodd" d="M3 4C3 3.44772 3.44772 3 4 3H10.2222C10.7745 3 11.2222 3.44772 11.2222 4V10.2222C11.2222 10.7745 10.7745 11.2222 10.2222 11.2222H4C3.44772 11.2222 3 10.7745 3 10.2222V4ZM5 5V9.22222H9.22222V5H5ZM12.7778 4C12.7778 3.44772 13.2255 3 13.7778 3H20C20.5523 3 21 3.44772 21 4V10.2222C21 10.7745 20.5523 11.2222 20 11.2222H13.7778C13.2255 11.2222 12.7778 10.7745 12.7778 10.2222V4ZM14.7778 5V9.22222H19V5H14.7778ZM3 13.7778C3 13.2255 3.44772 12.7778 4 12.7778H10.2222C10.7745 12.7778 11.2222 13.2255 11.2222 13.7778V20C11.2222 20.5523 10.7745 21 10.2222 21H4C3.44772 21 3 20.5523 3 20V13.7778ZM5 14.7778V19H9.22222V14.7778H5ZM12.7778 13.7778C12.7778 13.2255 13.2255 12.7778 13.7778 12.7778H20C20.5523 12.7778 21 13.2255 21 13.7778V20C21 20.5523 20.5523 21 20 21H13.7778C13.2255 21 12.7778 20.5523 12.7778 20V13.7778ZM14.7778 14.7778V19H19V14.7778H14.7778Z" fill="#253678"/>
</svg>
