<svg width="24" height="24" viewBox="0 0 24 24" fill="none" xmlns="http://www.w3.org/2000/svg">
<path fill-rule="evenodd" clip-rule="evenodd" d="M12 3C8.65588 3 6 5.61753 6 8.77966C6 10.245 6.56513 11.5851 7.5055 12.6084L12 17.1833L16.4945 12.6084C17.4348 11.5851 18 10.245 18 8.77966C18 5.61753 15.3441 3 12 3ZM4 8.77966C4 4.45315 7.61209 1 12 1C16.3879 1 20 4.45315 20 8.77966C20 10.7803 19.2224 12.6025 17.9537 13.9763C17.9467 13.9838 17.9396 13.9913 17.9324 13.9986L12.7133 19.311C12.5253 19.5024 12.2683 19.6102 12 19.6102C11.7317 19.6102 11.4747 19.5024 11.2867 19.311L6.06759 13.9986C6.06038 13.9913 6.05328 13.9838 6.04631 13.9763C4.77755 12.6025 4 10.7803 4 8.77966ZM9.6875 5.81356C9.6875 5.26127 10.1352 4.81356 10.6875 4.81356H12.4375C13.9259 4.81356 15.1875 5.99022 15.1875 7.50847C15.1875 9.02673 13.9259 10.2034 12.4375 10.2034H11.6875V12.5932C11.6875 13.1455 11.2398 13.5932 10.6875 13.5932C10.1352 13.5932 9.6875 13.1455 9.6875 12.5932V5.81356ZM11.6875 8.20339H12.4375C12.8821 8.20339 13.1875 7.86234 13.1875 7.50847C13.1875 7.15461 12.8821 6.81356 12.4375 6.81356H11.6875V8.20339ZM7.88806 17.8042C8.34299 18.1174 8.45793 18.74 8.14479 19.195L6.90233 21H17.0977L15.8556 19.1956C15.5425 18.7407 15.6574 18.118 16.1124 17.8049C16.5673 17.4917 17.1899 17.6067 17.5031 18.0616L19.8237 21.433C20.0343 21.739 20.058 22.1365 19.8852 22.4653C19.7123 22.7941 19.3715 23 19 23H5C4.62854 23 4.28769 22.7941 4.11485 22.4653C3.942 22.1365 3.96566 21.739 4.17628 21.433L6.49734 18.061C6.81049 17.606 7.43313 17.4911 7.88806 17.8042Z" fill="#253678"/>
</svg>
