<svg width="36" height="36" viewBox="0 0 36 36" fill="none" xmlns="http://www.w3.org/2000/svg">
<g clip-path="url(#clip0_1305_3617)">
<path fill-rule="evenodd" clip-rule="evenodd" d="M8.7907 4C6.90334 4 5.09329 4.75985 3.75873 6.11238C2.42417 7.46492 1.67442 9.29935 1.67442 11.2121V30.7273C1.67442 31.4298 2.23702 32 2.93023 32H14.6512C14.9842 32 15.3036 31.8659 15.5392 31.6272C15.7747 31.3885 15.907 31.0648 15.907 30.7273V11.2121C15.907 9.29935 15.1572 7.46492 13.8227 6.11238C12.4881 4.75985 10.6781 4 8.7907 4ZM8.7907 6.54545C10.0119 6.54545 11.1831 7.03712 12.0467 7.91229C12.9102 8.78746 13.3954 9.97444 13.3954 11.2121V29.4545H4.18605V11.2121C4.18605 9.97444 4.67118 8.78746 5.53472 7.91229C6.39826 7.03712 7.56947 6.54545 8.7907 6.54545Z" fill="#253678"/>
<path fill-rule="evenodd" clip-rule="evenodd" d="M36 13.7576C36 12.5199 35.5149 11.3329 34.6513 10.4577C33.7878 9.58257 32.6166 9.09091 31.3953 9.09091H14.6512C14.3181 9.09091 13.9987 9.225 13.7632 9.46368C13.5277 9.70237 13.3953 10.0261 13.3953 10.3636V17.1515C13.3953 17.8541 13.958 18.4242 14.6512 18.4242H31.3953C32 18.4242 32.5988 18.3035 33.1575 18.069C33.7161 17.8345 34.2238 17.4907 34.6513 17.0574C35.0789 16.6241 35.4181 16.1096 35.6495 15.5434C35.8809 14.9772 36 14.3704 36 13.7576ZM33.4884 13.7576C33.4884 14.9285 32.5507 15.8788 31.3953 15.8788H15.907V11.6364H31.3953C32.5507 11.6364 33.4884 12.5867 33.4884 13.7576ZM16.3256 29.4545H1.25581C0.922751 29.4545 0.60333 29.5886 0.367819 29.8273C0.132309 30.066 0 30.3897 0 30.7273C0 31.0648 0.132309 31.3885 0.367819 31.6272C0.60333 31.8659 0.922751 32 1.25581 32H16.3256C16.6586 32 16.9781 31.8659 17.2136 31.6272C17.4491 31.3885 17.5814 31.0648 17.5814 30.7273C17.5814 30.3897 17.4491 30.066 17.2136 29.8273C16.9781 29.5886 16.6586 29.4545 16.3256 29.4545Z" fill="#253678"/>
<path d="M8.7907 12.9091C9.48427 12.9091 10.0465 12.3393 10.0465 11.6364C10.0465 10.9335 9.48427 10.3636 8.7907 10.3636C8.09713 10.3636 7.53488 10.9335 7.53488 11.6364C7.53488 12.3393 8.09713 12.9091 8.7907 12.9091Z" fill="#253678"/>
<path fill-rule="evenodd" clip-rule="evenodd" d="M7.53488 16.303V21.3939C7.53488 21.7315 7.66719 22.0552 7.9027 22.2939C8.13821 22.5326 8.45764 22.6667 8.7907 22.6667C9.12376 22.6667 9.44318 22.5326 9.67869 22.2939C9.9142 22.0552 10.0465 21.7315 10.0465 21.3939V16.303C10.0465 15.9655 9.9142 15.6418 9.67869 15.4031C9.44318 15.1644 9.12376 15.0303 8.7907 15.0303C8.45764 15.0303 8.13821 15.1644 7.9027 15.4031C7.66719 15.6418 7.53488 15.9655 7.53488 16.303ZM28.5974 9.79515L25.2486 16.583C25.1734 16.7327 25.1282 16.896 25.1156 17.0635C25.1029 17.231 25.1232 17.3993 25.1751 17.5589C25.227 17.7184 25.3095 17.8659 25.4179 17.993C25.5263 18.12 25.6585 18.224 25.8068 18.2991C25.9551 18.3741 26.1165 18.4186 26.2819 18.4301C26.4472 18.4416 26.6132 18.4198 26.7702 18.366C26.9272 18.3121 27.0721 18.2273 27.1966 18.1165C27.3211 18.0056 27.4228 17.8709 27.4956 17.72L30.8445 10.9321C30.9196 10.7824 30.9648 10.6191 30.9775 10.4517C30.9901 10.2842 30.9699 10.1158 30.918 9.95629C30.8661 9.79676 30.7835 9.64923 30.6751 9.52219C30.5667 9.39515 30.4345 9.29111 30.2862 9.21608C30.138 9.14105 29.9765 9.09651 29.8111 9.08503C29.6458 9.07355 29.4798 9.09536 29.3228 9.14919C29.1658 9.20302 29.0209 9.28781 28.8964 9.39868C28.7719 9.50954 28.6703 9.64429 28.5974 9.79515ZM21.8997 9.79515L18.5509 16.583C18.4757 16.7327 18.4305 16.896 18.4179 17.0635C18.4053 17.231 18.4255 17.3993 18.4774 17.5589C18.5293 17.7184 18.6118 17.8659 18.7202 17.993C18.8287 18.12 18.9608 18.224 19.1091 18.2991C19.2574 18.3741 19.4189 18.4186 19.5842 18.4301C19.7496 18.4416 19.9155 18.4198 20.0725 18.366C20.2295 18.3121 20.3744 18.2273 20.4989 18.1165C20.6235 18.0056 20.7251 17.8709 20.798 17.72L24.1468 10.9321C24.222 10.7824 24.2672 10.6191 24.2798 10.4517C24.2924 10.2842 24.2722 10.1158 24.2203 9.95629C24.1684 9.79676 24.0859 9.64923 23.9774 9.52219C23.869 9.39515 23.7368 9.29111 23.5886 9.21608C23.4403 9.14105 23.2788 9.09651 23.1135 9.08503C22.9481 9.07355 22.7822 9.09536 22.6252 9.14919C22.4682 9.20302 22.3232 9.28781 22.1987 9.39868C22.0742 9.50954 21.9726 9.64429 21.8997 9.79515Z" fill="#253678"/>
</g>
<defs>
<clipPath id="clip0_1305_3617">
<rect width="36" height="36" fill="white"/>
</clipPath>
</defs>
</svg>
