<svg width="24" height="24" xmlns="http://www.w3.org/2000/svg"><path d="M23.633 2.58c-.293-.36-.733-.558-1.238-.558-.273 0-.562.058-.86.17L1.218 9.891C.137 10.3-.01 10.916 0 11.247c.01.33.188.932 1.276 1.28l4.31 1.58 2.27 5.198c.228.718.705 1.223 1.314 1.387.14.037.284.056.428.056.495 0 1.001-.218 1.438-.629l1.882-1.767 4.59 3.16c.414.305.864.466 1.303.466.89 0 1.6-.651 1.809-1.66l3.323-16.072c.136-.66.026-1.252-.31-1.666zM7.013 13.862l5.864-3.145-4.087 3.75a.704.704 0 00-.226.517l-.002.021-.014 2.37-1.535-3.513zm3.06 5.232a1.34 1.34 0 01-.13.108l.018-2.886 1.771 1.22-1.659 1.558zM22.566 3.962l-3.323 16.072c-.034.162-.143.54-.432.54-.136 0-.303-.07-.473-.197a.588.588 0 00-.022-.016l-5.06-3.483-.003-.002-2.861-1.97 7.559-6.933a.704.704 0 00-.808-1.138L6.055 12.78l-4.31-1.579-.01-.003 20.299-7.69c.171-.066.29-.08.36-.08.035 0 .12.005.148.04.037.046.084.201.024.493z"/></svg>