<svg width="24" height="24" xmlns="http://www.w3.org/2000/svg"><path d="M23.155 13.893c.716-6.027-.344-9.832-2.256-11.553l.001-.001C17.814-.601 7.392-1.035 3.7 2.47 2.042 4.186 1.458 6.703 1.394 9.819c-.064 3.116-.14 8.955 5.301 10.54H6.7l-.005 2.418s-.037.98.59 1.177c.715.232 1.04-.223 3.266-2.883 3.724.323 6.584-.417 6.91-.524.751-.253 5.006-.816 5.694-6.655zm-12.237 5.476s-2.357 2.94-3.09 3.703c-.24.248-.503.225-.499-.267 0-.323.018-4.017.018-4.017-4.613-1.322-4.34-6.293-4.29-8.894.05-2.602.525-4.733 1.93-6.168C8.224.689 17.361 1.368 19.69 3.556c2.846 2.523 1.833 9.65 1.84 9.893-.586 4.874-4.034 5.184-4.668 5.394-.27.09-2.786.738-5.944.526z"/><path d="M12.222 4.297c-.385 0-.385.6 0 .605 2.987.023 5.447 2.105 5.474 5.924 0 .403.59.398.585-.005-.032-4.115-2.72-6.501-6.06-6.524z"/><path d="M16.151 10.192c-.009.398.58.417.585.014.05-2.269-1.35-4.138-3.979-4.335-.385-.028-.425.577-.04.605 2.28.173 3.48 1.73 3.434 3.716zm-.63 2.581c-.494-.286-.997-.108-1.205.173l-.435.563c-.22.286-.634.248-.634.248-3.014-.797-3.82-3.95-3.82-3.95s-.037-.428.24-.657l.543-.45c.272-.216.444-.736.167-1.247-.74-1.337-1.237-1.798-1.49-2.152-.266-.333-.666-.408-1.082-.183h-.009c-.865.506-1.812 1.453-1.509 2.428.517 1.028 1.467 4.305 4.495 6.781 1.423 1.171 3.675 2.371 4.631 2.648l.01.014c.941.314 1.857-.67 2.346-1.56v-.008c.217-.43.145-.839-.172-1.106-.562-.548-1.41-1.153-2.076-1.542z"/><path d="M13.169 8.104c.96.056 1.427.558 1.477 1.589.018.403.603.375.585-.028-.064-1.346-.766-2.096-2.03-2.166-.385-.023-.421.582-.032.605z"/></svg>