<svg width="64" height="64" viewBox="0 0 64 64" fill="none" xmlns="http://www.w3.org/2000/svg">
<path fill-rule="evenodd" clip-rule="evenodd" d="M3.89161 21.9582C3.89161 23.0628 4.78704 23.9582 5.89161 23.9582H7.89998C9.00455 23.9582 9.89998 23.0628 9.89998 21.9582C9.89998 20.8536 9.00455 19.9582 7.89998 19.9582H5.89161C4.78704 19.9582 3.89161 20.8536 3.89161 21.9582Z" fill="#253678"/>
<path fill-rule="evenodd" clip-rule="evenodd" d="M54.0998 42.0415C54.0998 43.1461 54.9953 44.0415 56.0998 44.0415H58.1082C59.2128 44.0415 60.1082 43.1461 60.1082 42.0415C60.1082 40.9369 59.2128 40.0415 58.1082 40.0415H56.0998C54.9953 40.0415 54.0998 40.9369 54.0998 42.0415Z" fill="#253678"/>
<path fill-rule="evenodd" clip-rule="evenodd" d="M21.9583 9.89998C23.0629 9.89998 23.9583 9.00455 23.9583 7.89998V5.89161C23.9583 4.78704 23.0629 3.89161 21.9583 3.89161C20.8537 3.89161 19.9583 4.78704 19.9583 5.89161V7.89998C19.9583 9.00455 20.8537 9.89998 21.9583 9.89998Z" fill="#253678"/>
<path fill-rule="evenodd" clip-rule="evenodd" d="M42.0416 60.1082C43.1462 60.1082 44.0416 59.2128 44.0416 58.1082V56.0998C44.0416 54.9953 43.1462 54.0998 42.0416 54.0998C40.9371 54.0998 40.0416 54.9953 40.0416 56.0998V58.1082C40.0416 59.2128 40.9371 60.1082 42.0416 60.1082Z" fill="#253678"/>
<path fill-rule="evenodd" clip-rule="evenodd" d="M13.4292 13.4337C14.2114 12.6538 14.2133 11.3875 13.4334 10.6052L12.0175 9.18512C11.2376 8.4029 9.97132 8.40101 9.1891 9.18088C8.40688 9.96076 8.40498 11.2271 9.18486 12.0093L10.6007 13.4294C11.3806 14.2116 12.6469 14.2135 13.4292 13.4337Z" fill="#253678"/>
<path fill-rule="evenodd" clip-rule="evenodd" d="M54.8109 54.8187C55.5931 54.0389 55.595 52.7725 54.8151 51.9903L53.3993 50.5702C52.6194 49.788 51.3531 49.7861 50.5709 50.566C49.7886 51.3458 49.7867 52.6122 50.5666 53.3944L51.9825 54.8145C52.7624 55.5967 54.0287 55.5986 54.8109 54.8187Z" fill="#253678"/>
<path fill-rule="evenodd" clip-rule="evenodd" d="M23.4726 37.6748L25.3843 35.764C26.4951 34.6537 27.9159 33.2337 29.1559 31.9947L29.1572 31.9935C29.7155 31.4346 30.1584 30.7712 30.4603 30.0411C30.7622 29.3114 30.9174 28.5294 30.9172 27.7396C30.9177 26.1445 30.2846 24.6144 29.1572 23.4859L29.1557 23.4844C28.0268 22.3568 26.4965 21.7233 24.9009 21.7231C23.3052 21.7233 21.7743 22.3567 20.6453 23.4844C18.7506 25.3778 16.8556 27.2717 14.9612 29.1654C14.5859 29.5405 14.3751 30.0494 14.3751 30.58C14.3751 31.1106 14.586 31.6194 14.9613 31.9945L20.6449 37.6749C21.4259 38.4554 22.6917 38.4554 23.4726 37.6748ZM22.0586 33.4326L19.2042 30.5798C20.6268 29.158 22.0494 27.7362 23.4721 26.3145C23.851 25.936 24.3647 25.7233 24.9002 25.7231M22.0586 33.4326L22.5565 32.9349C23.6672 31.8248 25.0878 30.4049 26.3279 29.1659C26.5148 28.9787 26.663 28.7566 26.7641 28.5122C26.8653 28.2675 26.9173 28.0054 26.9172 27.7406V27.7388C26.9174 27.2045 26.7056 26.6919 26.3282 26.3137C25.9493 25.9357 25.4355 25.7233 24.9002 25.7231" fill="#253678"/>
<path fill-rule="evenodd" clip-rule="evenodd" d="M34.8297 49.0354L36.7413 47.1247C37.8521 46.0144 39.2729 44.5944 40.5129 43.3554L40.5141 43.3542C41.0725 42.7953 41.5153 42.1319 41.8173 41.4018C42.1192 40.6721 42.2744 39.8901 42.2741 39.1004C42.2746 37.5052 41.6416 35.9752 40.5142 34.8466L40.5127 34.8451C39.3838 33.7175 37.8534 33.084 36.2578 33.0838C34.6622 33.084 33.1313 33.7175 32.0024 34.8451L31.9993 34.8482C30.765 36.0865 29.3473 37.5059 28.238 38.616C27.6833 39.171 27.2059 39.6486 26.8671 39.9874L26.3289 40.5256C25.548 41.3063 25.5469 42.5727 26.3272 43.354L32.0007 49.0343C32.3757 49.4097 32.8844 49.6208 33.415 49.621C33.9456 49.6212 34.4545 49.4106 34.8297 49.0354ZM30.5698 41.9414C30.7268 41.7843 30.8932 41.6177 31.0673 41.4435C32.1766 40.3335 33.5948 38.9135 34.8305 37.6738C35.2093 37.2962 35.7223 37.084 36.2573 37.0838M30.5698 41.9414L33.4169 44.792L33.9136 44.2956C35.0243 43.1854 36.4451 41.7654 37.6852 40.5262C37.8719 40.3391 38.02 40.1171 38.1211 39.8729C38.2222 39.6282 38.2743 39.3661 38.2741 39.1014V39.0995C38.2744 38.5651 38.0624 38.0524 37.6849 37.6742C37.3061 37.2963 36.7923 37.084 36.2573 37.0838" fill="#253678"/>
<path fill-rule="evenodd" clip-rule="evenodd" d="M29.1696 51.8875C26.0247 55.0274 20.9354 55.0276 17.7901 51.888C15.9008 49.9914 14.0091 48.0973 12.1148 46.2058C8.97093 43.0656 8.97094 37.9753 12.115 34.8351L12.1176 34.8324C13.1924 33.7549 14.1964 32.7502 14.9589 31.9876L32.0128 49.0407C31.2498 49.8037 30.2452 50.809 29.1696 51.8875ZM36.2547 50.4565C36.6303 50.0815 36.8414 49.5726 36.8417 49.0419C36.8419 48.5112 36.6311 48.0021 36.2558 47.6269L16.3735 27.7454C15.5929 26.9649 14.3275 26.9643 13.5463 27.7443L13.2025 28.0877C12.982 28.3079 12.6642 28.6255 12.2749 29.0148C11.4965 29.7932 10.4318 30.8585 9.28663 32.0066C4.57983 36.7094 4.58033 44.334 9.28826 49.0361C11.1807 50.9258 13.0707 52.8182 14.9581 54.7129L14.9617 54.7166C19.6689 59.4179 27.2903 59.4179 31.9974 54.7165L32.0001 54.7138C33.144 53.5669 34.2078 52.5025 34.9856 51.7248C35.3744 51.3359 35.6918 51.0188 35.9119 50.7989L36.2547 50.4565Z" fill="#253678"/>
<path fill-rule="evenodd" clip-rule="evenodd" d="M50.4535 36.2556L50.7973 35.9122C51.0178 35.6919 51.3356 35.3744 51.7249 34.9851C52.5033 34.2068 53.5677 33.1417 54.7127 31.9937C59.42 27.2909 59.4196 19.6661 54.7116 14.9638C52.8192 13.0741 50.9291 11.1817 49.0417 9.28699L49.0381 9.28341C44.3309 4.5819 36.7095 4.58186 32.0024 9.28343L31.9998 9.28607C30.8558 10.433 29.7921 11.4974 29.0143 12.2751C28.6254 12.6639 28.308 12.981 28.0879 13.2009L27.7455 13.543C27.3699 13.918 27.1584 14.4272 27.1582 14.9579C27.158 15.4886 27.3687 15.9977 27.744 16.373L47.6263 36.2544C48.4069 37.0349 49.6722 37.0355 50.4535 36.2556ZM31.9871 14.9591C32.7501 14.1961 33.7546 13.1909 34.8302 12.1125C37.975 8.97248 43.0642 8.97216 46.2095 12.1117C48.0989 14.0083 49.9907 15.9024 51.885 17.7941C55.0289 20.9343 55.0289 26.0245 51.8849 29.1647L51.8822 29.1674C50.8074 30.245 49.8035 31.2497 49.0409 32.0122L31.9871 14.9591Z" fill="#253678"/>
<path fill-rule="evenodd" clip-rule="evenodd" d="M7.55928 64.1248C8.08975 64.1246 8.59842 63.9137 8.97337 63.5385L17.7898 54.7151C18.57 53.9343 18.5701 52.669 17.7901 51.888L12.1167 46.2076C11.7417 45.8322 11.233 45.6212 10.7024 45.621C10.1718 45.6208 9.66288 45.8314 9.28764 46.2065L0.461037 55.03C0.0857842 55.4051 -0.125029 55.914 -0.125 56.4446C-0.124971 56.9752 0.0858974 57.484 0.461191 57.8591L6.1448 63.5394C6.52 63.9144 7.02882 64.125 7.55928 64.1248ZM4.70408 56.4443L10.7005 50.45L13.5481 53.3012L7.55765 59.2962L4.70408 56.4443Z" fill="#253678"/>
<path fill-rule="evenodd" clip-rule="evenodd" d="M53.2974 18.3787C53.828 18.3789 54.3369 18.1683 54.7122 17.7932L63.5388 8.96983C63.914 8.59471 64.1248 8.08585 64.1248 7.55526C64.1248 7.02466 63.9139 6.51582 63.5386 6.14074L57.855 0.460381C57.4798 0.0853873 56.971 -0.125181 56.4405 -0.125C55.9101 -0.124819 55.4014 0.0860978 55.0264 0.461348L46.21 9.28482C45.4298 10.0656 45.4295 11.3307 46.2095 12.1117L51.8832 17.7921C52.2581 18.1675 52.7669 18.3785 53.2974 18.3787ZM53.2993 13.5497L50.4518 10.6988L56.4422 4.70358L59.2957 7.5555L53.2993 13.5497Z" fill="#253678"/>
</svg>
