<svg width="64" height="64" viewBox="0 0 64 64" fill="none" xmlns="http://www.w3.org/2000/svg">
<path d="M54 38H34V32C34 31.4696 33.7893 30.9609 33.4142 30.5858C33.0391 30.2107 32.5304 30 32 30C31.4696 30 30.9609 30.2107 30.5858 30.5858C30.2107 30.9609 30 31.4696 30 32V38H10C6.692 38 4 40.692 4 44V52C4 55.308 6.692 58 10 58H54C57.308 58 60 55.308 60 52V44C60 40.692 57.308 38 54 38ZM56 52C56 53.104 55.102 54 54 54H10C8.898 54 8 53.104 8 52V44C8 42.896 8.898 42 10 42H54C55.102 42 56 42.896 56 44V52Z" fill="#253678"/>
<path d="M22 48C22 48.5304 21.7893 49.0391 21.4142 49.4142C21.0391 49.7893 20.5304 50 20 50H14C13.4696 50 12.9609 49.7893 12.5858 49.4142C12.2107 49.0391 12 48.5304 12 48C12 47.4696 12.2107 46.9609 12.5858 46.5858C12.9609 46.2107 13.4696 46 14 46H20C20.5304 46 21.0391 46.2107 21.4142 46.5858C21.7893 46.9609 22 47.4696 22 48ZM40 46V50C40 50.5304 39.7893 51.0391 39.4142 51.4142C39.0391 51.7893 38.5304 52 38 52C37.4696 52 36.9609 51.7893 36.5858 51.4142C36.2107 51.0391 36 50.5304 36 50V46C36 45.4696 36.2107 44.9609 36.5858 44.5858C36.9609 44.2107 37.4696 44 38 44C38.5304 44 39.0391 44.2107 39.4142 44.5858C39.7893 44.9609 40 45.4696 40 46ZM48 46V50C48 50.5304 47.7893 51.0391 47.4142 51.4142C47.0391 51.7893 46.5304 52 46 52C45.4696 52 44.9609 51.7893 44.5858 51.4142C44.2107 51.0391 44 50.5304 44 50V46C44 45.4696 44.2107 44.9609 44.5858 44.5858C44.9609 44.2107 45.4696 44 46 44C46.5304 44 47.0391 44.2107 47.4142 44.5858C47.7893 44.9609 48 45.4696 48 46ZM40.662 13.486C35.604 8.926 28.398 8.926 23.34 13.486C22.9442 13.8278 22.4302 14.0009 21.9082 13.9683C21.3863 13.9356 20.8978 13.6999 20.5476 13.3115C20.1974 12.9231 20.0133 12.413 20.0346 11.8904C20.056 11.3679 20.2812 10.8745 20.662 10.516C23.936 7.562 27.858 6 32 6C36.142 6 40.064 7.562 43.338 10.514C43.7201 10.872 43.9466 11.3655 43.9688 11.8886C43.9911 12.4117 43.8073 12.9227 43.4569 13.3118C43.1066 13.7009 42.6176 13.9371 42.095 13.9697C41.5725 14.0023 41.0579 13.8286 40.662 13.486Z" fill="#253678"/>
<path d="M35.67 19.4964C34.904 18.8124 33.644 18.0004 32 18.0004C30.356 18.0004 29.096 18.8124 28.33 19.4964C27.93 19.8236 27.419 19.9834 26.9039 19.9425C26.3888 19.9016 25.9094 19.6631 25.5661 19.2769C25.2228 18.8907 25.0421 18.3867 25.0618 17.8703C25.0815 17.354 25.3002 16.8652 25.672 16.5064C29.36 13.2284 34.642 13.2284 38.33 16.5064C38.5263 16.681 38.6863 16.8926 38.8009 17.1291C38.9154 17.3656 38.9822 17.6224 38.9976 17.8847C39.0129 18.147 38.9764 18.4098 38.8902 18.658C38.8039 18.9062 38.6696 19.135 38.495 19.3314C38.3203 19.5277 38.1087 19.6877 37.8722 19.8022C37.6357 19.9168 37.379 19.9836 37.1167 19.9989C36.8543 20.0142 36.5916 19.9778 36.3433 19.8915C36.0951 19.8053 35.8663 19.671 35.67 19.4964ZM32 22.0004C32.5304 22.0004 33.0391 22.2111 33.4142 22.5861C33.7893 22.9612 34 23.4699 34 24.0004C34 24.5308 33.7893 25.0395 33.4142 25.4146C33.0391 25.7896 32.5304 26.0004 32 26.0004C31.4696 26.0004 30.9608 25.7896 30.5858 25.4146C30.2107 25.0395 30 24.5308 30 24.0004C30 23.4699 30.2107 22.9612 30.5858 22.5861C30.9608 22.2111 31.4696 22.0004 32 22.0004Z" fill="#253678"/>
</svg>
