<svg width="64" height="64" viewBox="0 0 64 64" fill="none" xmlns="http://www.w3.org/2000/svg">
<path fill-rule="evenodd" clip-rule="evenodd" d="M8.93066 56.0136C11.5569 58.6382 15.1178 60.1124 18.8307 60.1124C22.5435 60.1124 26.1044 58.6382 28.7307 56.0136L45.7013 39.043C46.1347 38.6096 46.4785 38.0952 46.7131 37.5289C46.9476 36.9627 47.0683 36.3559 47.0683 35.743C47.0683 35.1301 46.9476 34.5232 46.7131 33.957C46.4785 33.3908 46.1347 32.8763 45.7013 32.443L32.5013 19.243C32.068 18.8096 31.5535 18.4658 30.9873 18.2313C30.4211 17.9967 29.8142 17.876 29.2013 17.876C28.5885 17.876 27.9816 17.9967 27.4154 18.2313C26.8491 18.4658 26.3347 18.8096 25.9013 19.243L8.93066 36.2136C7.63049 37.5137 6.59913 39.0571 5.89547 40.7557C5.19182 42.4544 4.82965 44.275 4.82965 46.1136C4.82965 47.9523 5.19182 49.7729 5.89547 51.4715C6.59913 53.1702 7.63049 54.7136 8.93066 56.0136ZM11.76 53.1843C10.8306 52.2563 10.0932 51.1541 9.59017 49.9409C9.08709 48.7276 8.82815 47.4271 8.82815 46.1136C8.82815 44.8002 9.08709 43.4997 9.59017 42.2864C10.0932 41.0732 10.8306 39.971 11.76 39.043L28.7307 22.0723C28.7924 22.0103 28.8657 21.9611 28.9465 21.9275C29.0272 21.894 29.1139 21.8767 29.2013 21.8767C29.2888 21.8767 29.3754 21.894 29.4562 21.9275C29.537 21.9611 29.6103 22.0103 29.672 22.0723L42.872 35.2696C42.9341 35.3316 42.9833 35.4051 43.0169 35.4861C43.0506 35.5671 43.0679 35.654 43.0679 35.7416C43.0679 35.8293 43.0506 35.9162 43.0169 35.9972C42.9833 36.0782 42.9341 36.1517 42.872 36.2136L25.9013 53.1843C24.026 55.0594 21.4826 56.1128 18.8307 56.1128C16.1787 56.1128 13.6353 55.0594 11.76 53.1843Z" fill="#253678"/>
<path fill-rule="evenodd" clip-rule="evenodd" d="M24.016 40.928C21.1547 38.0667 16.5067 38.0667 13.6453 40.928C10.784 43.7893 10.784 48.4373 13.6453 51.2987C16.5067 54.16 21.1547 54.16 24.016 51.2987C26.8773 48.4373 26.8773 43.7893 24.016 40.928ZM21.1867 43.7547C21.4962 44.0646 21.7417 44.4324 21.9091 44.8372C22.0765 45.242 22.1626 45.6758 22.1623 46.1139C22.1621 46.5519 22.0755 46.9856 21.9077 47.3902C21.7398 47.7948 21.4939 48.1624 21.184 48.472C20.8741 48.7816 20.5062 49.0271 20.1014 49.1945C19.6966 49.3619 19.2628 49.4479 18.8248 49.4477C18.3867 49.4474 17.953 49.3609 17.5484 49.193C17.1438 49.0252 16.7762 48.7793 16.4667 48.4693C15.8415 47.8434 15.4905 46.9948 15.491 46.1101C15.4915 45.2254 15.8434 44.3772 16.4693 43.752C17.0952 43.1268 17.9439 42.7758 18.8285 42.7763C19.7132 42.7768 20.5615 43.1288 21.1867 43.7547ZM36.776 16.6667C39.1227 17 41.384 18.0693 43.1867 19.872C44.9893 21.6747 46.056 23.936 46.3893 26.2827C46.4653 26.8072 46.7458 27.2802 47.1695 27.5985C47.5933 27.9168 48.1258 28.0545 48.6507 27.9813C49.1756 27.906 49.6494 27.6258 49.9682 27.202C50.2871 26.7782 50.4251 26.2453 50.352 25.72C49.8987 22.544 48.4533 19.4827 46.0133 17.0427C43.5733 14.6027 40.5147 13.1573 37.3387 12.7067C36.8164 12.6381 36.2882 12.7784 35.8687 13.097C35.4492 13.4156 35.1724 13.8868 35.0983 14.4083C35.0242 14.9298 35.1588 15.4595 35.4729 15.8824C35.787 16.3052 36.2553 16.587 36.776 16.6667ZM38.032 7.86667C42.3657 8.47918 46.3818 10.4872 49.472 13.5867C52.5703 16.6763 54.5774 20.6915 55.1893 25.024C55.2237 25.2862 55.3098 25.5389 55.4425 25.7676C55.5753 25.9963 55.7521 26.1965 55.9626 26.3564C56.1732 26.5163 56.4134 26.6329 56.6694 26.6994C56.9253 26.7659 57.1919 26.781 57.4537 26.7438C57.7155 26.7066 57.9673 26.6179 58.1946 26.4827C58.4219 26.3476 58.6201 26.1687 58.7778 25.9564C58.9355 25.7441 59.0495 25.5027 59.1133 25.2461C59.1771 24.9895 59.1893 24.7227 59.1493 24.4613C58.4173 19.2697 56.0122 14.4585 52.2987 10.7573C48.5967 7.04496 43.7859 4.64 38.5947 3.90667C38.0724 3.83811 37.5442 3.97836 37.1247 4.29697C36.7052 4.61557 36.4284 5.08679 36.3543 5.60831C36.2802 6.12982 36.4148 6.65951 36.7289 7.08235C37.043 7.50519 37.5113 7.78703 38.032 7.86667ZM26.8427 28.672L28.7307 30.5573C29.108 30.9215 29.6133 31.1228 30.1377 31.118C30.6621 31.1132 31.1637 30.9027 31.5343 30.5317C31.9049 30.1607 32.115 29.6589 32.1194 29.1345C32.1237 28.6101 31.9218 28.105 31.5573 27.728L29.672 25.8427C29.2968 25.4675 28.7879 25.2567 28.2573 25.2567C27.7267 25.2567 27.2179 25.4675 26.8427 25.8427C26.4675 26.2179 26.2567 26.7267 26.2567 27.2573C26.2567 27.7879 26.4675 28.2968 26.8427 28.672ZM22.1307 33.384L24.016 35.2693C24.2016 35.4549 24.4219 35.6022 24.6644 35.7026C24.9069 35.8031 25.1668 35.8548 25.4293 35.8548C25.6918 35.8548 25.9517 35.8031 26.1942 35.7026C26.4367 35.6022 26.6571 35.4549 26.8427 35.2693C27.0283 35.0837 27.1755 34.8634 27.2759 34.6209C27.3764 34.3784 27.4281 34.1185 27.4281 33.856C27.4281 33.5935 27.3764 33.3336 27.2759 33.0911C27.1755 32.8486 27.0283 32.6283 26.8427 32.4427L24.9573 30.5573C24.7717 30.3717 24.5514 30.2245 24.3089 30.1241C24.0664 30.0236 23.8065 29.9719 23.544 29.9719C23.2815 29.9719 23.0216 30.0236 22.7791 30.1241C22.5366 30.2245 22.3163 30.3717 22.1307 30.5573C21.9451 30.7429 21.7978 30.9633 21.6974 31.2058C21.5969 31.4483 21.5452 31.7082 21.5452 31.9707C21.5452 32.2331 21.5969 32.4931 21.6974 32.7356C21.7978 32.9781 21.9451 33.1984 22.1307 33.384ZM34.3867 36.2133L36.272 38.0987C36.6472 38.4739 37.1561 38.6846 37.6867 38.6846C38.2173 38.6846 38.7261 38.4739 39.1013 38.0987C39.4765 37.7235 39.6873 37.2146 39.6873 36.684C39.6873 36.1534 39.4765 35.6445 39.1013 35.2693L37.216 33.384C37.0302 33.1982 36.8097 33.0509 36.5669 32.9503C36.3242 32.8498 36.0641 32.798 35.8013 32.798C35.5386 32.798 35.2784 32.8498 35.0357 32.9503C34.793 33.0509 34.5724 33.1982 34.3867 33.384C34.2009 33.5698 34.0535 33.7903 33.953 34.0331C33.8524 34.2758 33.8007 34.5359 33.8007 34.7987C33.8007 35.0614 33.8524 35.3216 33.953 35.5643C34.0535 35.807 34.2009 36.0276 34.3867 36.2133ZM29.672 40.928L31.5573 42.8133C31.7431 42.9991 31.9637 43.1465 32.2064 43.247C32.4491 43.3476 32.7093 43.3993 32.972 43.3993C33.2347 43.3993 33.4949 43.3476 33.7376 43.247C33.9803 43.1465 34.2009 42.9991 34.3867 42.8133C34.5724 42.6276 34.7198 42.407 34.8203 42.1643C34.9209 41.9216 34.9726 41.6614 34.9726 41.3987C34.9726 41.1359 34.9209 40.8758 34.8203 40.6331C34.7198 40.3903 34.5724 40.1698 34.3867 39.984L32.5013 38.0987C32.3156 37.9129 32.095 37.7655 31.8523 37.665C31.6095 37.5644 31.3494 37.5127 31.0867 37.5127C30.8239 37.5127 30.5638 37.5644 30.3211 37.665C30.0783 37.7655 29.8578 37.9129 29.672 38.0987C29.4862 38.2844 29.3389 38.505 29.2383 38.7477C29.1378 38.9905 29.086 39.2506 29.086 39.5133C29.086 39.7761 29.1378 40.0362 29.2383 40.2789C29.3389 40.5217 29.4862 40.7422 29.672 40.928Z" fill="#253678"/>
</svg>
