<svg width="1880" height="192" viewBox="0 0 1880 192" fill="none" xmlns="http://www.w3.org/2000/svg">
<g opacity="0.04">
<path d="M1038.02 188.448C1037.74 189.611 1037.59 190.802 1037.57 192H874.756L937.586 3.58279C937.89 2.41382 938.05 1.21008 938.062 0H1100.91L1038.02 188.448Z" fill="#253678"/>
<path d="M843.563 188.448C843.283 189.611 843.133 190.802 843.117 192H680.301L743.131 3.58279C743.435 2.41382 743.595 1.21008 743.607 0H906.452L843.563 188.448Z" fill="#253678"/>
<path d="M647.904 188.448C647.625 189.611 647.475 190.802 647.458 192H484.643L547.472 3.58279C547.777 2.41382 547.936 1.21008 547.948 0H710.794L647.904 188.448Z" fill="#253678"/>
<path d="M454.453 188.448C454.173 189.611 454.024 190.802 454.007 192H291.191L354.021 3.58279C354.325 2.41382 354.485 1.21008 354.497 0H517.342L454.453 188.448Z" fill="#253678"/>
<path d="M252.211 188.448C251.931 189.611 251.782 190.802 251.765 192H88.9496L151.779 3.58279C152.083 2.41382 152.243 1.21008 152.255 0H315.1L252.211 188.448Z" fill="#253678"/>
<path d="M1232.52 192C1232.54 190.802 1232.69 189.611 1232.97 188.448L1295.86 0H1133.01C1133 1.21008 1132.84 2.41382 1132.54 3.58279L1069.71 192H1232.52Z" fill="#253678"/>
<path d="M1426.07 192C1426.09 190.802 1426.23 189.611 1426.51 188.448L1489.37 0H1326.71C1326.7 1.22016 1326.54 2.434 1326.23 3.6134L1263.25 192H1426.07Z" fill="#253678"/>
<path d="M1619.61 192C1619.63 190.8 1619.79 189.606 1620.09 188.448L1682.95 0H1520.07C1520.06 1.2078 1519.91 2.40977 1519.63 3.58279L1456.8 192H1619.61Z" fill="#253678"/>
<path d="M1794.95 192C1797.04 191.976 1799.1 191.5 1801 190.603C1802.89 189.706 1804.58 188.408 1805.96 186.794L1876.17 106.258C1878.63 103.445 1880 99.7898 1880 96C1880 92.2102 1878.63 88.555 1876.17 85.7416L1805.96 5.20574C1804.58 3.59175 1802.89 2.29414 1801 1.39727C1799.1 0.500392 1797.04 0.0243218 1794.95 0H1713.65C1713.65 1.21891 1713.5 2.43282 1713.2 3.6134L1650.34 192H1794.95Z" fill="#253678"/>
<path d="M51.2615 188.448C50.9817 189.611 50.832 190.802 50.8153 192H-112L-49.1705 3.58279C-48.8664 2.41382 -48.7065 1.21008 -48.6945 0H114.151L51.2615 188.448Z" fill="#253678"/>
</g>
</svg>
