<svg width="24" height="24" viewBox="0 0 24 24" fill="none" xmlns="http://www.w3.org/2000/svg">
<path d="M12.5155 3.62502L12.5585 3.62494C14.6528 3.62494 16.6153 4.43464 18.088 5.90736C19.5729 7.39224 20.3851 9.37143 20.375 11.4803C20.3728 11.9549 20.7557 12.3415 21.2303 12.3438H21.2345C21.7071 12.3438 22.0915 11.9617 22.0937 11.4885C22.106 8.91733 21.115 6.50368 19.3033 4.69198C17.5058 2.89438 15.1122 1.90618 12.5588 1.90618L12.5116 1.90627C12.0369 1.90855 11.654 2.29514 11.6563 2.76973C11.6585 3.24294 12.0428 3.62502 12.5155 3.62502ZM22.9978 18.7269C22.9672 17.8759 22.6127 17.0818 21.9997 16.4907C20.7996 15.3334 19.794 14.6654 18.8352 14.3883C17.5139 14.0064 16.2904 14.3537 15.1983 15.4202L15.1934 15.4251L14.0304 16.5795C13.308 16.1737 11.9038 15.2806 10.368 13.7448L10.2549 13.6318C8.72914 12.1061 7.83044 10.6938 7.42155 9.96852L8.57479 8.8066L8.57965 8.80166C9.64618 7.70965 9.99341 6.48598 9.61159 5.16477C9.33452 4.20601 8.66649 3.20045 7.50917 2.00028C6.91813 1.38733 6.12398 1.03284 5.27307 1.00216C4.42233 0.971522 3.6045 1.26775 2.97076 1.83666L2.94609 1.85883C2.93462 1.8691 2.92345 1.87971 2.91258 1.89058C1.65101 3.15207 0.989722 4.91817 1.00012 6.99791C1.01774 10.5308 2.95946 14.5711 6.19415 17.8058L6.20223 17.8138C6.81032 18.421 7.50074 19.0219 8.2545 19.5999C8.63113 19.8887 9.17056 19.8174 9.45939 19.4408C9.74819 19.0641 9.67699 18.5247 9.30032 18.2359C8.60268 17.701 7.96653 17.1474 7.40952 16.5904C7.40687 16.5877 7.40419 16.5851 7.40149 16.5824C4.48455 13.6622 2.73426 10.0767 2.71883 6.98927C2.71084 5.38756 3.19265 4.05067 4.11235 3.12147L4.11893 3.11554C4.41738 2.84581 4.80921 2.70304 5.21123 2.71755C5.61324 2.73205 5.99377 2.90269 6.27201 3.19323C8.49698 5.50057 8.33584 6.58988 7.35272 7.59801L5.75969 9.20303C5.63763 9.32601 5.55559 9.48302 5.52434 9.65345C5.4931 9.82388 5.5141 9.99977 5.58459 10.1581C5.62503 10.2489 6.60334 12.4108 9.03989 14.8473L9.15298 14.9603C11.5892 17.3966 13.7511 18.3749 13.842 18.4153C14.0002 18.4858 14.1761 18.5069 14.3466 18.4756C14.517 18.4444 14.674 18.3623 14.797 18.2403L16.4017 16.6475C17.41 15.6642 18.4993 15.5029 20.8068 17.7279C21.0973 18.0061 21.2679 18.3866 21.2825 18.7886C21.297 19.1906 21.1542 19.5824 20.8845 19.8809L20.8785 19.8876C19.9568 20.7998 18.6342 21.2812 17.0499 21.2812C17.0369 21.2812 17.0238 21.2812 17.0107 21.2812C15.7444 21.2748 14.278 20.9277 12.7701 20.2773C12.3344 20.0893 11.8287 20.2902 11.6407 20.726C11.4527 21.1618 11.6536 21.6675 12.0894 21.8555C13.8323 22.6073 15.4852 22.9923 17.0021 22.9999L17.0503 23C19.1091 23 20.8577 22.3392 22.1094 21.0875C22.1203 21.0765 22.1309 21.0654 22.1411 21.0539L22.1634 21.0291C22.7322 20.3955 23.0285 19.5779 22.9978 18.7269Z" fill="#253678"/>
<path d="M16.8751 7.12515C15.9533 6.2033 15.0686 5.95867 14.6434 5.84107C14.1858 5.71452 13.7126 5.98282 13.5861 6.44031C13.4596 6.89776 13.7278 7.37115 14.1853 7.49765C14.533 7.59381 15.0584 7.73913 15.6598 8.34048C16.2387 8.9194 16.3925 9.44203 16.4943 9.78789L16.5067 9.82996C16.6173 10.2037 16.9595 10.4457 17.3304 10.4457C17.4112 10.4457 17.4933 10.4342 17.5747 10.4101C18.0298 10.2754 18.2896 9.79721 18.1548 9.34213L18.1432 9.30269C18.0106 8.85229 17.7639 8.01388 16.8751 7.12515Z" fill="#253678"/>
</svg>
