<svg width="24" height="24" viewBox="0 0 24 24" fill="none" xmlns="http://www.w3.org/2000/svg">
<path d="M19.6006 21H3.60059C1.95059 21 0.600586 19.65 0.600586 18V6C0.600586 4.35 1.95059 3 3.60059 3H19.6006C21.2506 3 22.6006 4.35 22.6006 6V18C22.6006 19.65 21.2506 21 19.6006 21ZM3.60059 5C3.05059 5 2.60059 5.45 2.60059 6V18C2.60059 18.55 3.05059 19 3.60059 19H19.6006C20.1506 19 20.6006 18.55 20.6006 18V6C20.6006 5.45 20.1506 5 19.6006 5H3.60059Z" fill="#253678"/>
<path fill-rule="evenodd" clip-rule="evenodd" d="M4.60059 11C4.60059 10.45 5.05059 10 5.60059 10H12.934C13.0399 9.71421 13.1909 9.44427 13.3828 9.2C13.4715 9.08708 13.569 8.97965 13.6748 8.87868C14.2642 8.31607 15.0636 8 15.8971 8C16.7306 8 17.53 8.31607 18.1194 8.87868C18.7088 9.44129 19.04 10.2044 19.04 11C19.04 11.7956 18.7088 12.5587 18.1194 13.1213C17.53 13.6839 16.7306 14 15.8971 14C15.0636 14 14.2642 13.6839 13.6748 13.1213C13.3402 12.8019 13.0888 12.4179 12.934 12H9.60059V14C9.60059 14.55 9.15059 15 8.60059 15C8.05059 15 7.60059 14.55 7.60059 14V12H6.60059V15C6.60059 15.55 6.15059 16 5.60059 16C5.05059 16 4.60059 15.55 4.60059 15V11ZM15.1563 11.7071C15.3528 11.8946 15.6193 12 15.8971 12C16.175 12 16.4414 11.8946 16.6379 11.7071C16.8344 11.5196 16.9447 11.2652 16.9447 11C16.9447 10.7348 16.8344 10.4804 16.6379 10.2929C16.4414 10.1054 16.175 10 15.8971 10C15.6193 10 15.3528 10.1054 15.1563 10.2929C15.1211 10.3266 15.0886 10.3624 15.059 10.4C14.9238 10.5721 14.8495 10.7824 14.8495 11C14.8495 11.0677 14.8567 11.1347 14.8707 11.2C14.9114 11.3907 15.01 11.5674 15.1563 11.7071Z" fill="#253678"/>
</svg>
