<svg width="24" height="24" viewBox="0 0 24 24" fill="none" xmlns="http://www.w3.org/2000/svg">
<path fill-rule="evenodd" clip-rule="evenodd" d="M6.13073 17.8688C9.21412 20.9522 14.2133 20.9522 17.2967 17.8688C17.7167 17.4488 18.1475 16.7348 18.5409 15.6968C18.9267 14.6785 19.2337 13.4637 19.4724 12.1543C19.9499 9.53494 20.1237 7.71172 20.1814 5.68961C20.1958 5.18604 18.8135 3.80372 18.3099 3.81809C16.2878 3.87577 14.4646 4.0496 11.8452 4.52711C10.5358 4.76582 9.32095 5.07279 8.30265 5.45864C7.26465 5.85197 6.55071 6.28284 6.13073 6.70282C3.04733 9.78621 3.04733 14.7854 6.13073 17.8688ZM4.84508 19.1544C8.63852 22.9479 14.7889 22.9479 18.5823 19.1544C21.288 16.4487 21.8812 9.86704 21.9989 5.74145C22.043 4.19342 19.8061 1.95648 18.258 2.00064C14.1325 2.11834 7.55076 2.71149 4.84508 5.41717C1.05164 9.21061 1.05164 15.361 4.84508 19.1544Z" fill="#253678"/>
<path fill-rule="evenodd" clip-rule="evenodd" d="M8.36364 8.27222C8.36364 7.82036 8.72995 7.45404 9.18182 7.45404C10.1488 7.45404 11.1064 7.64451 11.9998 8.01457C12.8932 8.38462 13.7049 8.92702 14.3887 9.6108C15.0725 10.2946 15.6149 11.1063 15.9849 11.9997C16.355 12.8931 16.5455 13.8507 16.5455 14.8177C16.5455 15.2696 16.1791 15.6359 15.7273 15.6359C15.2754 15.6359 14.9091 15.2696 14.9091 14.8177C14.9091 14.0656 14.761 13.3208 14.4731 12.6259C14.1853 11.9311 13.7634 11.2997 13.2316 10.7679C12.6998 10.2361 12.0684 9.81419 11.3736 9.52637C10.6787 9.23855 9.93393 9.09041 9.18182 9.09041C8.72995 9.09041 8.36364 8.72409 8.36364 8.27222Z" fill="#253678"/>
<path fill-rule="evenodd" clip-rule="evenodd" d="M8.36364 11.545C8.36364 11.0931 8.72995 10.7268 9.18182 10.7268C9.71904 10.7268 10.251 10.8326 10.7473 11.0382C11.2437 11.2438 11.6947 11.5451 12.0745 11.925C12.4544 12.3048 12.7557 12.7558 12.9613 13.2522C13.1669 13.7485 13.2727 14.2805 13.2727 14.8177C13.2727 15.2695 12.9064 15.6359 12.4545 15.6359C12.0027 15.6359 11.6364 15.2695 11.6364 14.8177C11.6364 14.4953 11.5729 14.1762 11.4495 13.8784C11.3262 13.5806 11.1454 13.31 10.9174 13.0821C10.6895 12.8541 10.4189 12.6733 10.1211 12.55C9.82333 12.4266 9.50415 12.3631 9.18182 12.3631C8.72995 12.3631 8.36364 11.9968 8.36364 11.545Z" fill="#253678"/>
<path d="M10 14.8177C10 15.2695 9.63369 15.6359 9.18182 15.6359C8.72995 15.6359 8.36364 15.2695 8.36364 14.8177C8.36364 14.3658 8.72995 13.9995 9.18182 13.9995C9.63369 13.9995 10 14.3658 10 14.8177Z" fill="#253678"/>
</svg>
