<svg width="24" height="24" xmlns="http://www.w3.org/2000/svg"><path d="M9.821 18.216c-.554 0-1.023-.189-1.406-.567a1.873 1.873 0 01-.576-1.387V3.954c0-.546.192-1.008.576-1.386A1.928 1.928 0 019.82 2h9.196c.554 0 1.023.19 1.407.568.384.378.576.84.576 1.386v12.308c0 .546-.192 1.008-.576 1.387a1.928 1.928 0 01-1.407.567H9.821zm0-1.621h9.196a.325.325 0 00.232-.104.316.316 0 00.106-.229V3.954a.316.316 0 00-.106-.228.325.325 0 00-.232-.104H9.821a.325.325 0 00-.232.104.316.316 0 00-.105.228v12.308c0 .083.035.16.105.229.07.069.148.104.232.104zM5.983 22c-.554 0-1.023-.19-1.407-.568A1.873 1.873 0 014 20.046V6.116h1.645v13.93c0 .083.035.16.106.228.07.07.147.104.232.104h10.84V22H5.984z"/></svg>