<svg width="24" height="24" viewBox="0 0 24 24" fill="none" xmlns="http://www.w3.org/2000/svg">
<path fill-rule="evenodd" clip-rule="evenodd" d="M8.19649 4.63264C8.19649 4.28675 8.26438 3.94426 8.3963 3.62473C8.52821 3.3052 8.72155 3.01489 8.96528 2.77041C9.209 2.52592 9.49833 2.33204 9.81673 2.19985C10.1351 2.06766 10.4764 1.99975 10.8209 2H13.1819C13.8773 2.00025 14.5441 2.27773 15.0357 2.77142C15.5273 3.26511 15.8035 3.93458 15.8035 4.63264C15.8035 5.19009 16.4045 5.5385 16.8856 5.25977C17.1839 5.08686 17.5132 4.97463 17.8547 4.9295C18.1963 4.88437 18.5433 4.90722 18.876 4.99675C19.2087 5.08627 19.5206 5.24072 19.7939 5.45128C20.0671 5.66183 20.2964 5.92436 20.4685 6.22386L21.6486 8.27614C21.8208 8.57559 21.9326 8.90618 21.9776 9.24901C22.0225 9.59185 21.9998 9.94021 21.9106 10.2742C21.8214 10.6082 21.6675 10.9213 21.4578 11.1956C21.248 11.4699 20.9865 11.7 20.6882 11.8729C20.5784 11.9363 20.4871 12.0277 20.4237 12.1378C20.3603 12.2479 20.3269 12.3728 20.3269 12.5C20.3269 12.6272 20.3603 12.7521 20.4237 12.8622C20.4871 12.9723 20.5784 13.0637 20.6882 13.1271C20.9865 13.3 21.248 13.5301 21.4578 13.8044C21.6675 14.0787 21.8214 14.3918 21.9106 14.7258C21.9998 15.0598 22.0225 15.4082 21.9776 15.751C21.9326 16.0938 21.8208 16.4244 21.6486 16.7239L20.4685 18.7761C20.2964 19.0756 20.0671 19.3382 19.7939 19.5487C19.5206 19.7593 19.2087 19.9137 18.876 20.0033C18.5433 20.0928 18.1963 20.1156 17.8547 20.0705C17.5132 20.0254 17.1839 19.9131 16.8856 19.7402C16.776 19.6765 16.6515 19.6428 16.5248 19.6427C16.3981 19.6426 16.2736 19.6761 16.1639 19.7397C16.0542 19.8033 15.9631 19.8948 15.8998 20.005C15.8365 20.1152 15.8033 20.2402 15.8035 20.3674C15.8035 21.0656 15.5272 21.7352 15.0354 22.2289C14.5436 22.7226 13.8765 23 13.181 23H10.82C10.4755 23.0001 10.1344 22.9321 9.81607 22.7999C9.49778 22.6676 9.20857 22.4737 8.96494 22.2293C8.72132 21.9848 8.52806 21.6945 8.39621 21.3751C8.26435 21.0556 8.19649 20.7132 8.19649 20.3674C8.19658 20.2403 8.16334 20.1155 8.10012 20.0054C8.0369 19.8953 7.94592 19.8039 7.83633 19.7404C7.72675 19.6768 7.60242 19.6433 7.47585 19.6433C7.34929 19.6433 7.22495 19.6767 7.11534 19.7402C6.81704 19.9131 6.48772 20.0254 6.1462 20.0705C5.80468 20.1156 5.45766 20.0928 5.12494 20.0033C4.79222 19.9137 4.48033 19.7593 4.20708 19.5487C3.93384 19.3382 3.70459 19.0756 3.53243 18.7761L2.35144 16.7239C2.17919 16.4244 2.06739 16.0938 2.02243 15.751C1.97747 15.4082 2.00024 15.0598 2.08942 14.7258C2.17861 14.3918 2.33246 14.0787 2.54221 13.8044C2.75195 13.5301 3.01347 13.3 3.31183 13.1271C3.42164 13.0637 3.51286 12.9723 3.57629 12.8622C3.63972 12.7521 3.67312 12.6272 3.67312 12.5C3.67312 12.3728 3.63972 12.2479 3.57629 12.1378C3.51286 12.0277 3.42164 11.9363 3.31183 11.8729C3.01347 11.7 2.75195 11.4699 2.54221 11.1956C2.33246 10.9213 2.17861 10.6082 2.08942 10.2742C2.00024 9.94021 1.97747 9.59185 2.02243 9.24901C2.06739 8.90618 2.17919 8.57559 2.35144 8.27614L3.53243 6.22386C3.70459 5.92436 3.93384 5.66183 4.20708 5.45128C4.48033 5.24072 4.79222 5.08627 5.12494 4.99675C5.45766 4.90722 5.80468 4.88437 6.1462 4.9295C6.48772 4.97463 6.81704 5.08686 7.11534 5.25977C7.22495 5.3233 7.34929 5.35673 7.47585 5.35671C7.60242 5.35669 7.72675 5.32321 7.83633 5.25964C7.94592 5.19607 8.0369 5.10466 8.10012 4.99459C8.16334 4.88453 8.19658 4.75969 8.19649 4.63264ZM10.8209 3.90909C10.7262 3.90897 10.6324 3.92759 10.5448 3.96389C10.4572 4.0002 10.3777 4.05348 10.3106 4.12068C10.2436 4.18788 10.1904 4.26768 10.1542 4.35553C10.1179 4.44337 10.0992 4.53754 10.0992 4.63264C10.0992 6.66009 7.91408 7.92582 6.16541 6.91305C6.08339 6.86548 5.99282 6.83461 5.89891 6.8222C5.80499 6.80979 5.70955 6.81609 5.61806 6.84074C5.52657 6.86538 5.44081 6.90789 5.3657 6.96583C5.29058 7.02377 5.22758 7.09601 5.1803 7.17841L3.99931 9.23068C3.95192 9.31302 3.92117 9.40393 3.90881 9.49822C3.89645 9.5925 3.90273 9.6883 3.92728 9.78014C3.95183 9.87199 3.99417 9.95808 4.05189 10.0335C4.10961 10.1089 4.18157 10.1721 4.26365 10.2196C6.01232 11.2333 6.01232 13.7667 4.26365 14.7804C4.18157 14.8279 4.10961 14.8911 4.05189 14.9665C3.99417 15.0419 3.95183 15.128 3.92728 15.2199C3.90273 15.3117 3.89645 15.4075 3.90881 15.5018C3.92117 15.5961 3.95192 15.687 3.99931 15.7693L5.1803 17.8216C5.22758 17.904 5.29058 17.9762 5.3657 18.0342C5.44081 18.0921 5.52657 18.1346 5.61806 18.1593C5.70955 18.1839 5.80499 18.1902 5.89891 18.1778C5.99282 18.1654 6.08339 18.1345 6.16541 18.087C7.91313 17.0723 10.0982 18.3399 10.0982 20.3674C10.0982 20.7664 10.4215 21.0909 10.82 21.0909H13.181C13.5794 21.0909 13.9018 20.7664 13.9018 20.3674C13.9018 18.3399 16.0878 17.0742 17.8365 18.086C17.9185 18.1336 18.009 18.1645 18.1028 18.177C18.1967 18.1895 18.2921 18.1833 18.3836 18.1587C18.4751 18.1342 18.5609 18.0918 18.636 18.0339C18.7112 17.9761 18.7742 17.9039 18.8216 17.8216L20.0016 15.7693C20.0491 15.687 20.0799 15.5962 20.0923 15.5019C20.1047 15.4077 20.0985 15.3119 20.0741 15.2201C20.0496 15.1282 20.0074 15.0421 19.9497 14.9667C19.8921 14.8913 19.8203 14.828 19.7382 14.7804C17.9886 13.7667 17.9886 11.2333 19.7382 10.2196C19.8203 10.172 19.8921 10.1087 19.9497 10.0333C20.0074 9.95787 20.0496 9.87177 20.0741 9.77993C20.0985 9.68809 20.1047 9.59231 20.0923 9.49807C20.0799 9.40383 20.0491 9.31297 20.0016 9.23068L18.8216 7.17841C18.7743 7.09601 18.7113 7.02377 18.6362 6.96583C18.5611 6.90789 18.4753 6.86538 18.3838 6.84074C18.2923 6.81609 18.1969 6.80979 18.103 6.8222C18.0091 6.83461 17.9185 6.86548 17.8365 6.91305C16.0869 7.92773 13.9018 6.66009 13.9018 4.63264C13.9018 4.44074 13.8258 4.2567 13.6906 4.12101C13.5555 3.98532 13.3721 3.90909 13.181 3.90909H10.8209ZM12 9.63636C11.2434 9.63636 10.5179 9.93807 9.98288 10.4751C9.44791 11.0121 9.14737 11.7405 9.14737 12.5C9.14737 13.2595 9.44791 13.9879 9.98288 14.5249C10.5179 15.0619 11.2434 15.3636 12 15.3636C12.7566 15.3636 13.4821 15.0619 14.0171 14.5249C14.5521 13.9879 14.8526 13.2595 14.8526 12.5C14.8526 11.7405 14.5521 11.0121 14.0171 10.4751C13.4821 9.93807 12.7566 9.63636 12 9.63636ZM7.24561 12.5C7.24561 11.2342 7.74652 10.0202 8.63814 9.12517C9.52976 8.23011 10.7391 7.72727 12 7.72727C13.2609 7.72727 14.4702 8.23011 15.3619 9.12517C16.2535 10.0202 16.7544 11.2342 16.7544 12.5C16.7544 13.7658 16.2535 14.9798 15.3619 15.8748C14.4702 16.7699 13.2609 17.2727 12 17.2727C10.7391 17.2727 9.52976 16.7699 8.63814 15.8748C7.74652 14.9798 7.24561 13.7658 7.24561 12.5Z" fill="#253678"/>
</svg>
