<svg width="36" height="36" viewBox="0 0 36 36" fill="none" xmlns="http://www.w3.org/2000/svg">
<path d="M30.5 6.125H29.8832C30.0652 5.42062 29.9345 4.66688 29.5124 4.06508C29.2817 3.73637 28.9753 3.46801 28.6191 3.28263C28.2628 3.09726 27.8672 3.00032 27.4656 3H5.5C4.12125 3 3 4.12125 3 5.5V16.75C3 18.1287 4.12125 19.25 5.5 19.25H15.5V26.125H10.5V25.5C10.5 23.4318 8.8182 21.75 6.75 21.75H4.25C3.56 21.75 3 22.31 3 23V31.75C3 32.44 3.56 33 4.25 33H6.75C8.8182 33 10.5 31.3182 10.5 29.25V28.625H16.75C17.44 28.625 18 28.065 18 27.375V19.25H22.4989C24.07 19.25 25.4863 18.2582 26.0231 16.7817L26.262 16.125H30.5C31.8787 16.125 33 15.0037 33 13.625V8.625C33 7.24625 31.8787 6.125 30.5 6.125ZM8 29.25C8 29.9394 7.43937 30.5 6.75 30.5H5.5V24.25H6.75C7.43937 24.25 8 24.8106 8 25.5V29.25ZM22.4989 16.75H5.5L5.49875 5.5H27.4656L23.6738 15.9276C23.4944 16.4195 23.0227 16.75 22.4989 16.75ZM30.5 13.625H27.1711L28.9894 8.625H30.5V13.625Z" fill="#253678"/>
<path fill-rule="evenodd" clip-rule="evenodd" d="M28 23C28.6904 23 29.25 23.5596 29.25 24.25V26.75H31.75C32.4404 26.75 33 27.3096 33 28C33 28.6904 32.4404 29.25 31.75 29.25H29.25V31.75C29.25 32.4404 28.6904 33 28 33C27.3096 33 26.75 32.4404 26.75 31.75V29.25H24.25C23.5596 29.25 23 28.6904 23 28C23 27.3096 23.5596 26.75 24.25 26.75H26.75V24.25C26.75 23.5596 27.3096 23 28 23Z" fill="#253678"/>
</svg>
