<svg width="24" height="24" viewBox="0 0 24 24" fill="none" xmlns="http://www.w3.org/2000/svg">
<path d="M17.8203 12.0391C16.528 12.0391 15.4766 13.0905 15.4766 14.3828C15.4766 15.6752 16.528 16.7266 17.8203 16.7266H21.1406C21.1539 16.7266 21.1668 16.7253 21.1799 16.7246C21.1929 16.7252 21.2056 16.7266 21.2188 16.7266C21.6502 16.7266 22 16.3768 22 15.9453V9.81249C22 8.77242 21.4888 7.84995 20.7049 7.28163L18.0471 2.92147C17.9934 2.83343 17.9229 2.75689 17.8395 2.69625C17.7561 2.63562 17.6615 2.5921 17.5613 2.56819C17.461 2.54425 17.3569 2.54041 17.2551 2.55688C17.1534 2.57336 17.0559 2.60982 16.9682 2.66417L15.0082 3.87964L14.1243 2.38378C14.0717 2.29476 14.0019 2.21707 13.919 2.15521C13.8362 2.09336 13.7419 2.04856 13.6416 2.02343C13.5412 1.9983 13.437 1.99332 13.3347 2.0088C13.2325 2.02428 13.1343 2.05989 13.0459 2.11358L5.51988 6.68749H4.34375C3.91949 6.68749 3.57313 6.34757 3.56273 5.92577C3.57313 5.50398 3.91949 5.16405 4.34375 5.16405H5.78906C6.22055 5.16405 6.57031 4.81429 6.57031 4.3828C6.57031 3.95132 6.22055 3.60155 5.78906 3.60155H4.34375C3.23836 3.60155 2.30934 4.37085 2.06367 5.40214C2.02159 5.49964 1.99992 5.60473 2 5.71093V18.875C2 20.5981 3.40188 22 5.125 22H18.875C20.2223 22 21.4138 21.1418 21.8399 19.8644C21.9764 19.4551 21.7553 19.0126 21.346 18.8761C20.9368 18.7396 20.4942 18.9607 20.3577 19.37C20.2541 19.6811 20.0551 19.9517 19.7889 20.1434C19.5227 20.335 19.203 20.4379 18.875 20.4375H5.125C4.26344 20.4375 3.5625 19.7366 3.5625 18.875V8.11597C3.81336 8.20489 4.07759 8.25022 4.34375 8.24999H18.875C19.7366 8.24999 20.4375 8.95093 20.4375 9.81249V12.0391H17.8203ZM20.4375 15.1641H17.8203C17.3895 15.1641 17.0391 14.8136 17.0391 14.3828C17.0391 13.952 17.3895 13.6016 17.8203 13.6016H20.4375V15.1641ZM8.52844 6.68753L13.1815 3.85968L14.0134 5.26753C14.0294 5.30601 14.0478 5.34394 14.0704 5.3805C14.0873 5.4074 14.1059 5.43325 14.1259 5.45792L14.8525 6.68753H8.52844ZM16.6674 6.68749L15.8033 5.22515L17.1227 4.40698L18.5128 6.68749H16.6674Z" fill="#253678"/>
</svg>
