<svg width="24" height="24" viewBox="0 0 24 24" fill="none" xmlns="http://www.w3.org/2000/svg">
<path d="M20.3333 4.08333H19.9221C20.0434 3.61375 19.9564 3.11125 19.6749 2.71005C19.5211 2.49092 19.3169 2.312 19.0794 2.18842C18.8419 2.06484 18.5781 2.00021 18.3104 2H3.66667C2.7475 2 2 2.7475 2 3.66667V11.1667C2 12.0858 2.7475 12.8333 3.66667 12.8333H10.3333V17.4167H7V17C7 15.6212 5.8788 14.5 4.5 14.5H2.83333C2.37333 14.5 2 14.8733 2 15.3333V21.1667C2 21.6267 2.37333 22 2.83333 22H4.5C5.8788 22 7 20.8788 7 19.5V19.0833H11.1667C11.6267 19.0833 12 18.71 12 18.25V12.8333H14.9993C16.0467 12.8333 16.9908 12.1721 17.3488 11.1878L17.508 10.75H20.3333C21.2525 10.75 22 10.0025 22 9.08333V5.75C22 4.83083 21.2525 4.08333 20.3333 4.08333ZM5.33333 19.5C5.33333 19.9596 4.95958 20.3333 4.5 20.3333H3.66667V16.1667H4.5C4.95958 16.1667 5.33333 16.5404 5.33333 17V19.5ZM14.9993 11.1667H3.66667L3.66583 3.66667H18.3104L15.7826 10.6184C15.6629 10.9464 15.3484 11.1667 14.9993 11.1667ZM20.3333 9.08333H18.1141L19.3262 5.75H20.3333V9.08333Z" fill="#253678"/>
</svg>
