<svg width="24" height="24" viewBox="0 0 24 24" fill="none" xmlns="http://www.w3.org/2000/svg">
<g clip-path="url(#clip0_454_8)">
<path fill-rule="evenodd" clip-rule="evenodd" d="M16.4146 0.994819C16.4146 0.445395 16.86 0 17.4094 0C21.0445 0 24.0001 2.95551 24.0001 6.59067C24.0001 7.1401 23.5547 7.58549 23.0052 7.58549C22.4558 7.58549 22.0104 7.1401 22.0104 6.59067C22.0104 4.05436 19.9457 1.98964 17.4094 1.98964C16.86 1.98964 16.4146 1.54424 16.4146 0.994819ZM16.4146 4.72539C16.4146 4.17597 16.86 3.73057 17.4094 3.73057C18.989 3.73057 20.2695 5.0111 20.2695 6.59067C20.2695 7.1401 19.8241 7.58549 19.2747 7.58549C18.7252 7.58549 18.2798 7.1401 18.2798 6.59067C18.2798 6.10995 17.8901 5.72021 17.4094 5.72021C16.86 5.72021 16.4146 5.27481 16.4146 4.72539ZM12.8684 7.17483C12.5285 6.83489 11.9773 6.83489 11.6374 7.17483L3.06415 15.7481L3.06414 15.7481C1.63154 17.1806 1.63156 19.5033 3.06415 20.9359C4.49673 22.3685 6.81945 22.3685 8.25203 20.9359L14.1873 15.0006C14.5758 14.6121 15.2057 14.6121 15.5942 15.0006C15.9827 15.3891 15.9827 16.019 15.5942 16.4075L9.65892 22.3428L8.95547 21.6394L9.65892 22.3428C7.44934 24.5524 3.86684 24.5524 1.65726 22.3428C-0.552309 20.1332 -0.552382 16.5508 1.65727 14.3412L10.2305 5.76795C11.3474 4.651 13.1584 4.651 14.2753 5.76795L18.2322 9.72482C19.3491 10.8418 19.3491 12.6527 18.2322 13.7696C17.8437 14.1581 17.2138 14.1581 16.8253 13.7696C16.4368 13.3811 16.4368 12.7513 16.8253 12.3628C17.1652 12.0228 17.1652 11.4716 16.8253 11.1317L12.8684 7.17483ZM11.5494 9.72477C11.9379 9.33627 12.5678 9.33627 12.9563 9.72477L14.2753 11.0438C14.6638 11.4323 14.6638 12.0621 14.2753 12.4506C13.8868 12.8392 13.2569 12.8392 12.8684 12.4506L11.5494 11.1317C11.1609 10.7432 11.1609 10.1133 11.5494 9.72477ZM8.9115 12.3627C9.3 11.9742 9.92989 11.9742 10.3184 12.3627L11.6373 13.6816C12.0258 14.0702 12.0258 14.7 11.6373 15.0885C11.2488 15.477 10.6189 15.477 10.2304 15.0885L8.9115 13.7696C8.523 13.3811 8.523 12.7512 8.9115 12.3627ZM6.31754 16.812C5.83679 16.812 5.44707 17.2017 5.44707 17.6825C5.44707 18.1632 5.83679 18.553 6.31754 18.553C6.79828 18.553 7.18801 18.1632 7.18801 17.6825C7.18801 17.2017 6.79828 16.812 6.31754 16.812ZM3.45743 17.6825C3.45743 16.1029 4.73794 14.8224 6.31754 14.8224C7.89713 14.8224 9.17764 16.1029 9.17764 17.6825C9.17764 19.2621 7.89713 20.5426 6.31754 20.5426C4.73794 20.5426 3.45743 19.2621 3.45743 17.6825Z" fill="#253678"/>
</g>
<defs>
<clipPath id="clip0_454_8">
<rect width="24" height="24" fill="white"/>
</clipPath>
</defs>
</svg>
