<svg width="24" height="24" xmlns="http://www.w3.org/2000/svg"><path d="M1.09 8.727C.437 8.727 0 8.291 0 7.637V3.272C0 1.418 1.418 0 3.273 0h4.363c.655 0 1.091.436 1.091 1.09 0 .655-.436 1.092-1.09 1.092H3.272c-.655 0-1.091.436-1.091 1.09v4.364c0 .655-.437 1.091-1.091 1.091zm21.82 0c-.655 0-1.092-.436-1.092-1.09V3.272c0-.655-.436-1.091-1.09-1.091h-4.364c-.655 0-1.091-.437-1.091-1.091 0-.655.436-1.091 1.09-1.091h4.364C22.582 0 24 1.418 24 3.273v4.363c0 .655-.436 1.091-1.09 1.091zM7.635 24H3.273C1.418 24 0 22.582 0 20.727v-4.363c0-.655.436-1.091 1.09-1.091.655 0 1.092.436 1.092 1.09v4.364c0 .655.436 1.091 1.09 1.091h4.364c.655 0 1.091.437 1.091 1.091 0 .655-.436 1.091-1.09 1.091zm13.091 0h-4.363c-.655 0-1.091-.436-1.091-1.09 0-.655.436-1.092 1.09-1.092h4.364c.655 0 1.091-.436 1.091-1.09v-4.364c0-.655.437-1.091 1.091-1.091.655 0 1.091.436 1.091 1.09v4.364C24 22.582 22.582 24 20.727 24z"/><path d="M9.818 10.909H5.455c-.655 0-1.091-.437-1.091-1.091V5.454c0-.654.436-1.09 1.09-1.09h4.364c.655 0 1.091.436 1.091 1.09v4.364c0 .654-.436 1.09-1.09 1.09zM6.546 8.727h2.181V6.545H6.546v2.182zm3.272 10.909H5.455c-.655 0-1.091-.436-1.091-1.09v-4.364c0-.655.436-1.091 1.09-1.091h4.364c.655 0 1.091.436 1.091 1.09v4.364c0 .655-.436 1.091-1.09 1.091zm-3.272-2.182h2.181v-2.182H6.546v2.182zm12-6.545h-4.364c-.655 0-1.091-.437-1.091-1.091V5.454c0-.654.436-1.09 1.091-1.09h4.364c.654 0 1.09.436 1.09 1.09v4.364c0 .654-.436 1.09-1.09 1.09zm-3.273-2.182h2.182V6.545h-2.182v2.182zm-1.091 7.636c-.655 0-1.091-.436-1.091-1.09V14.18c0-.654.436-1.09 1.091-1.09.654 0 1.09.436 1.09 1.09v1.091c0 .655-.436 1.091-1.09 1.091zm4.364-1.09h-1.091c-.655 0-1.091-.437-1.091-1.091 0-.655.436-1.091 1.09-1.091h1.092c.654 0 1.09.436 1.09 1.09 0 .655-.436 1.091-1.09 1.091zm0 4.363h-3.273c-.655 0-1.091-.436-1.091-1.09 0-.655.436-1.092 1.09-1.092h3.274c.654 0 1.09.437 1.09 1.091 0 .655-.436 1.091-1.09 1.091z"/></svg>