<?xml version="1.0" encoding="utf-8"?><svg width="24" height="24" fill="none" xmlns="http://www.w3.org/2000/svg" viewBox="0 0 24 24"><path fill-rule="evenodd" clip-rule="evenodd" d="M8.727 4.426A1 1 0 019.545 4h4.91a1 1 0 01.818.426l1.338 1.907h2.753a2.68 2.68 0 011.846.731c.5.475.79 1.13.79 1.825v8.555c0 .695-.29 1.35-.79 1.825a2.68 2.68 0 01-1.846.731H4.636a2.68 2.68 0 01-1.846-.73c-.5-.476-.79-1.131-.79-1.826V8.89c0-.695.29-1.35.79-1.825a2.68 2.68 0 011.846-.73H7.39l1.338-1.908zM10.066 6L8.728 7.908a1 1 0 01-.819.425H4.636a.68.68 0 00-.468.18A.518.518 0 004 8.89v8.555c0 .131.054.267.168.376a.68.68 0 00.468.18h14.728a.68.68 0 00.468-.18.518.518 0 00.168-.376V8.89a.518.518 0 00-.168-.375.68.68 0 00-.468-.18H16.09a1 1 0 01-.819-.426L13.934 6h-3.868zM12 10.667c-1.303 0-2.273.992-2.273 2.11 0 1.12.97 2.112 2.273 2.112 1.303 0 2.273-.992 2.273-2.111 0-1.119-.97-2.111-2.273-2.111zm-4.273 2.11c0-2.317 1.962-4.11 4.273-4.11s4.273 1.793 4.273 4.11c0 2.318-1.962 4.112-4.273 4.112s-4.273-1.794-4.273-4.111z" fill="#253678"/></svg>