<?xml version="1.0" encoding="utf-8"?><svg width="24" height="24" xmlns="http://www.w3.org/2000/svg" viewBox="0 0 24 24"><path fill-rule="evenodd" clip-rule="evenodd" d="M5.79 5a.795.795 0 00-.561.23.772.772 0 00-.229.548v12.444c0 .204.082.401.229.548.147.146.349.23.56.23h12.527a.796.796 0 00.56-.23.772.772 0 00.23-.548V12a1 1 0 112 0v6.222c0 .74-.296 1.446-.82 1.967a2.795 2.795 0 01-1.97.811H5.789a2.795 2.795 0 01-1.97-.811A2.772 2.772 0 013 18.222V5.778c0-.74.295-1.446.82-1.967A2.795 2.795 0 015.79 3h9.842a1 1 0 110 2H5.789zm15.92-.816a1 1 0 01-.005 1.414l-8.948 8.89a1 1 0 01-1.41 0L8.665 11.82a1 1 0 111.41-1.418l1.979 1.966 8.242-8.189a1 1 0 011.414.005z"/></svg>