<?xml version="1.0" encoding="utf-8"?><svg width="24" height="24" fill="none" xmlns="http://www.w3.org/2000/svg" viewBox="0 0 24 24"><path d="M17.454 2H6.545A4.55 4.55 0 002 6.545v7.273a4.554 4.554 0 003.636 4.454v2.819a.91.91 0 001.414.756l5.225-3.484h5.18A4.55 4.55 0 0022 13.818V6.545A4.55 4.55 0 0017.454 2zm-5.959 14.698l-4.04 2.694v-1.938a.91.91 0 00-.91-.909 2.73 2.73 0 01-2.727-2.727V6.545a2.73 2.73 0 012.727-2.727h10.91a2.73 2.73 0 012.727 2.727v7.273a2.73 2.73 0 01-2.727 2.727H12a.864.864 0 00-.505.153z" fill="#253678"/><path d="M17.454 7.455H6.545a.91.91 0 000 1.818h10.91a.91.91 0 100-1.818zm-1.818 3.636H8.364a.91.91 0 000 1.818h7.272a.91.91 0 000-1.818z" fill="#253678"/></svg>