<?xml version="1.0" encoding="utf-8"?><svg width="24" height="24" fill="none" xmlns="http://www.w3.org/2000/svg" viewBox="0 0 24 24"><path d="M20.333 4.083h-.41A1.665 1.665 0 0018.31 2H3.667C2.747 2 2 2.748 2 3.667v7.5c0 .919.748 1.666 1.667 1.666h6.666v4.584H7V17c0-1.379-1.121-2.5-2.5-2.5H2.833a.834.834 0 00-.833.833v5.834c0 .46.373.833.833.833H4.5C5.879 22 7 20.879 7 19.5v-.417h4.167c.46 0 .833-.373.833-.833v-5.417h3a2.508 2.508 0 002.349-1.645l.159-.438h2.825c.92 0 1.667-.748 1.667-1.667V5.75c0-.92-.747-1.667-1.667-1.667zm-15 15.417c0 .46-.373.833-.833.833h-.833v-4.166H4.5c.46 0 .833.373.833.833v2.5zM15 11.167H3.667l-.001-7.5H18.31l-2.527 6.951a.836.836 0 01-.784.549zm5.334-2.084h-2.219l1.212-3.333h1.007v3.333z" fill="#253678"/></svg>