<?xml version="1.0" encoding="utf-8"?><svg width="24" height="24" fill="none" xmlns="http://www.w3.org/2000/svg" viewBox="0 0 24 24"><path d="M11.987 1C7.904 1 4.582 4.452 4.582 8.695v6.027a2.192 2.192 0 00-1.142.818 2.336 2.336 0 00.201 2.972c.41.427.966.666 1.546.667h2.436C7.983 21.345 9.8 23 11.986 23c2.187 0 4.004-1.655 4.365-3.82h2.462c.58-.002 1.136-.241 1.546-.668a2.336 2.336 0 00.2-2.973 2.192 2.192 0 00-1.14-.817V8.695C19.418 4.452 16.095 1 11.986 1zm6.826 16.608H5.187a.665.665 0 01-.453-.22.718.718 0 01-.184-.482c0-.179.066-.351.184-.482a.666.666 0 01.453-.219h.15c.201 0 .394-.083.536-.23a.802.802 0 00.221-.556V8.695c0-3.377 2.644-6.124 5.919-6.124 3.249 0 5.893 2.747 5.893 6.124v6.724c0 .209.08.409.222.556.141.147.334.23.534.23h.151c.172.01.334.089.453.22a.718.718 0 010 .964.665.665 0 01-.453.219zm-9.636 1.571h5.618c-.334 1.291-1.46 2.25-2.808 2.25-1.347 0-2.474-.959-2.81-2.25z" fill="#253678"/><path d="M12.447 4.068c.2 0 .393.082.534.23a.802.802 0 01.222.555c0 .209-.08.409-.222.556a.742.742 0 01-.534.23C10.81 5.64 9.48 7.01 9.48 8.696c0 .208-.08.408-.222.555a.742.742 0 01-.534.23.742.742 0 01-.535-.23.802.802 0 01-.222-.555c0-2.552 2.01-4.628 4.48-4.628z" fill="#253678"/></svg>