<?xml version="1.0" encoding="utf-8"?><svg width="24" height="24" fill="none" xmlns="http://www.w3.org/2000/svg" viewBox="0 0 24 24"><path fill-rule="evenodd" clip-rule="evenodd" d="M8.196 4.633a2.641 2.641 0 01.77-1.863A2.622 2.622 0 0110.82 2h2.36c.696 0 1.363.278 1.855.771.491.494.768 1.164.768 1.862 0 .557.6.905 1.082.627a2.616 2.616 0 013.582.964l1.18 2.052a2.641 2.641 0 01-.96 3.597.722.722 0 00-.264.99c.063.11.154.2.264.264a2.628 2.628 0 011.223 1.599 2.643 2.643 0 01-.262 1.998l-1.18 2.052a2.629 2.629 0 01-1.593 1.227 2.614 2.614 0 01-1.99-.263.72.72 0 00-1.082.627c0 .699-.277 1.368-.769 1.862a2.618 2.618 0 01-1.854.771H10.82a2.615 2.615 0 01-2.424-1.625c-.132-.32-.2-.662-.2-1.008a.726.726 0 00-.72-.724.72.72 0 00-.36.097 2.615 2.615 0 01-3.584-.964l-1.18-2.052a2.64 2.64 0 01.96-3.597.722.722 0 00.264-.99.722.722 0 00-.264-.264 2.627 2.627 0 01-1.223-1.599 2.642 2.642 0 01.262-1.998l1.181-2.052a2.63 2.63 0 011.593-1.227 2.613 2.613 0 011.99.263.719.719 0 001.081-.627zm2.625-.724a.719.719 0 00-.722.724c0 2.027-2.185 3.293-3.934 2.28a.719.719 0 00-.985.265L4 9.231a.725.725 0 00.264.989c1.748 1.013 1.748 3.547 0 4.56a.722.722 0 00-.265.99l1.181 2.052a.723.723 0 00.719.356.72.72 0 00.266-.091c1.748-1.015 3.933.253 3.933 2.28 0 .4.323.724.722.724h2.361c.398 0 .72-.325.72-.724 0-2.027 2.187-3.293 3.936-2.281a.72.72 0 00.985-.264l1.18-2.053a.723.723 0 00-.264-.989c-1.75-1.013-1.75-3.547 0-4.56a.722.722 0 00.264-.99l-1.18-2.052a.723.723 0 00-.719-.356.719.719 0 00-.267.091c-1.75 1.015-3.934-.253-3.934-2.28a.725.725 0 00-.721-.724h-2.36zM12 9.636c-.757 0-1.482.302-2.017.84a2.87 2.87 0 000 4.049 2.847 2.847 0 004.034 0 2.869 2.869 0 000-4.05A2.847 2.847 0 0012 9.636zM7.246 12.5c0-1.266.5-2.48 1.392-3.375a4.745 4.745 0 016.724 0 4.782 4.782 0 010 6.75 4.745 4.745 0 01-6.724 0A4.782 4.782 0 017.246 12.5z" fill="#253678"/></svg>