<?xml version="1.0" encoding="utf-8"?><svg width="24" height="24" fill="none" xmlns="http://www.w3.org/2000/svg" viewBox="0 0 24 24"><path d="M4.694 13.476A2.697 2.697 0 002 16.169v3.137A2.697 2.697 0 004.694 22a2.697 2.697 0 002.694-2.694V16.17a2.697 2.697 0 00-2.694-2.693zm1.131 5.83c0 .624-.507 1.131-1.131 1.131a1.133 1.133 0 01-1.131-1.13V16.17c0-.624.507-1.132 1.13-1.132.625 0 1.132.508 1.132 1.131v3.137zM12 2a2.697 2.697 0 00-2.694 2.694v14.612A2.697 2.697 0 0012 22a2.697 2.697 0 002.694-2.694V4.694A2.697 2.697 0 0012 2zm1.131 17.306c0 .624-.507 1.131-1.131 1.131a1.133 1.133 0 01-1.131-1.13V4.693c0-.624.507-1.131 1.131-1.131s1.131.507 1.131 1.13v14.613zm6.175-11.568a2.697 2.697 0 00-2.694 2.694v8.874A2.697 2.697 0 0019.306 22 2.697 2.697 0 0022 19.306v-8.874a2.697 2.697 0 00-2.694-2.694zm1.131 11.568c0 .624-.507 1.131-1.13 1.131a1.133 1.133 0 01-1.132-1.13v-8.875c0-.624.507-1.132 1.131-1.132s1.131.508 1.131 1.132v8.874z" fill="#253678"/></svg>