<?xml version="1.0" encoding="utf-8"?><svg width="24" height="24" fill="none" xmlns="http://www.w3.org/2000/svg" viewBox="0 0 24 24"><path fill-rule="evenodd" clip-rule="evenodd" d="M12 3.818a8.182 8.182 0 100 16.364 8.182 8.182 0 000-16.364zM2 12C2 6.477 6.477 2 12 2s10 4.477 10 10-4.477 10-10 10S2 17.523 2 12z" fill="#253678"/><path fill-rule="evenodd" clip-rule="evenodd" d="M12.235 8.386a1.818 1.818 0 00-2.023 1.188.91.91 0 01-1.715-.603 3.636 3.636 0 017.067 1.212c0 1.39-1.032 2.31-1.769 2.8a7.319 7.319 0 01-1.533.772l-.031.011-.01.004h-.004l-.001.001-.289-.862.288.862a.91.91 0 01-.576-1.724h-.001l.015-.005a5.24 5.24 0 00.33-.134c.226-.1.518-.247.804-.437.627-.418.958-.863.958-1.29a1.818 1.818 0 00-1.51-1.795zM11.09 16.546a.91.91 0 01.91-.91h.01a.91.91 0 110 1.819H12a.91.91 0 01-.91-.91z" fill="#253678"/></svg>