<?xml version="1.0" encoding="utf-8"?><svg width="24" height="24" fill="none" xmlns="http://www.w3.org/2000/svg" viewBox="0 0 24 24"><g clip-path="url(#aqclip0_454_8)"><path fill-rule="evenodd" clip-rule="evenodd" d="M16.415.995c0-.55.445-.995.994-.995A6.597 6.597 0 0124 6.59a.995.995 0 01-1.99 0 4.607 4.607 0 00-4.6-4.6.995.995 0 01-.995-.995zm0 3.73c0-.549.445-.994.994-.994a2.86 2.86 0 012.86 2.86.995.995 0 11-1.99 0 .87.87 0 00-.87-.87.995.995 0 01-.994-.996zm-3.547 2.45a.87.87 0 00-1.23 0l-8.574 8.573a3.668 3.668 0 105.188 5.188L14.187 15a.995.995 0 011.407 1.406L9.66 22.343l-.704-.704.704.704a5.658 5.658 0 01-8.002-8.002l8.573-8.573a2.86 2.86 0 014.045 0l3.957 3.957a2.86 2.86 0 010 4.045.995.995 0 01-1.407-1.407.87.87 0 000-1.231l-3.957-3.957zm-1.319 2.55a.995.995 0 011.407 0l1.32 1.319a.995.995 0 11-1.408 1.407l-1.319-1.32a.995.995 0 010-1.406zm-2.637 2.638a.995.995 0 011.406 0l1.32 1.319a.995.995 0 01-1.408 1.406L8.911 13.77a.995.995 0 010-1.407zm-2.594 4.449a.87.87 0 100 1.74.87.87 0 000-1.74zm-2.86.87a2.86 2.86 0 115.72 0 2.86 2.86 0 01-5.72 0z" fill="#253678"/></g><defs><clipPath id="aqclip0_454_8"><path fill="#fff" d="M0 0h24v24H0z"/></clipPath></defs></svg>