<?xml version="1.0" encoding="utf-8"?><svg width="36" height="36" fill="none" xmlns="http://www.w3.org/2000/svg" viewBox="0 0 36 36"><path d="M30.5 6.125h-.617A2.498 2.498 0 0027.466 3H5.5A2.503 2.503 0 003 5.5v11.25c0 1.379 1.121 2.5 2.5 2.5h10v6.875h-5V25.5a3.754 3.754 0 00-3.75-3.75h-2.5C3.56 21.75 3 22.31 3 23v8.75c0 .69.56 1.25 1.25 1.25h2.5a3.754 3.754 0 003.75-3.75v-.625h6.25c.69 0 1.25-.56 1.25-1.25V19.25h4.499a3.761 3.761 0 003.524-2.468l.239-.657H30.5c1.379 0 2.5-1.121 2.5-2.5v-5c0-1.379-1.121-2.5-2.5-2.5zM8 29.25c0 .69-.56 1.25-1.25 1.25H5.5v-6.25h1.25c.69 0 1.25.56 1.25 1.25v3.75zm14.499-12.5H5.5L5.499 5.5h21.967l-3.792 10.428c-.18.491-.651.822-1.175.822zm8.001-3.125h-3.329l1.818-5H30.5v5z" fill="#253678"/><path fill-rule="evenodd" clip-rule="evenodd" d="M28 23c.69 0 1.25.56 1.25 1.25v2.5h2.5a1.25 1.25 0 110 2.5h-2.5v2.5a1.25 1.25 0 11-2.5 0v-2.5h-2.5a1.25 1.25 0 110-2.5h2.5v-2.5c0-.69.56-1.25 1.25-1.25z" fill="#253678"/></svg>