<?xml version="1.0" encoding="utf-8"?><svg width="24" height="24" fill="none" xmlns="http://www.w3.org/2000/svg" viewBox="0 0 24 24"><path fill-rule="evenodd" clip-rule="evenodd" d="M12 3C8.656 3 6 5.618 6 8.78c0 1.465.565 2.805 1.505 3.828L12 17.183l4.494-4.575A5.635 5.635 0 0018 8.78C18 5.618 15.344 3 12 3zM4 8.78C4 4.453 7.612 1 12 1s8 3.453 8 7.78a7.636 7.636 0 01-2.068 5.219l-5.219 5.312a1 1 0 01-1.426 0l-5.22-5.312A7.636 7.636 0 014 8.78zm5.688-2.966a1 1 0 011-1h1.75c1.488 0 2.75 1.176 2.75 2.694 0 1.519-1.262 2.695-2.75 2.695h-.75v2.39a1 1 0 11-2 0v-6.78zm2 2.39h.75c.444 0 .75-.342.75-.696 0-.353-.306-.694-.75-.694h-.75v1.39zm-3.8 9.6a1 1 0 01.257 1.391L6.902 21h10.196l-1.242-1.804a1 1 0 011.647-1.134l2.32 3.371A1 1 0 0119 23H5a1 1 0 01-.824-1.567l2.321-3.372a1 1 0 011.391-.257z" fill="#253678"/></svg>