<?xml version="1.0" encoding="utf-8"?><svg width="24" height="24" fill="none" xmlns="http://www.w3.org/2000/svg" viewBox="0 0 24 24"><path fill-rule="evenodd" clip-rule="evenodd" d="M3 4a1 1 0 011-1h6.222a1 1 0 011 1v6.222a1 1 0 01-1 1H4a1 1 0 01-1-1V4zm2 1v4.222h4.222V5H5zm7.778-1a1 1 0 011-1H20a1 1 0 011 1v6.222a1 1 0 01-1 1h-6.222a1 1 0 01-1-1V4zm2 1v4.222H19V5h-4.222zM3 13.778a1 1 0 011-1h6.222a1 1 0 011 1V20a1 1 0 01-1 1H4a1 1 0 01-1-1v-6.222zm2 1V19h4.222v-4.222H5zm7.778-1a1 1 0 011-1H20a1 1 0 011 1V20a1 1 0 01-1 1h-6.222a1 1 0 01-1-1v-6.222zm2 1V19H19v-4.222h-4.222z" fill="#253678"/></svg>