<?xml version="1.0" encoding="utf-8"?><svg width="24" height="24" xmlns="http://www.w3.org/2000/svg" viewBox="0 0 24 24"><path d="M17 3.667A3.337 3.337 0 0120.333 7v10A3.337 3.337 0 0117 20.333H7A3.337 3.337 0 013.667 17V7A3.337 3.337 0 017 3.667h10zM17 2H7a5 5 0 00-5 5v10a5 5 0 005 5h10a5 5 0 005-5V7a5 5 0 00-5-5z"/><path d="M12 17a.833.833 0 01-.833-.833v-3.334H7.833a.834.834 0 010-1.666h3.334V7.833a.834.834 0 011.666 0v3.334h3.334a.834.834 0 010 1.666h-3.334v3.334A.834.834 0 0112 17z"/></svg>