<?xml version="1.0" encoding="utf-8"?><svg width="36" height="36" fill="none" xmlns="http://www.w3.org/2000/svg" viewBox="0 0 36 36"><g clip-path="url(#bkclip0_1305_3617)" fill="#253678"><path fill-rule="evenodd" clip-rule="evenodd" d="M8.79 4c-1.887 0-3.697.76-5.031 2.112a7.262 7.262 0 00-2.085 5.1v19.515c0 .703.563 1.273 1.256 1.273h11.721c.333 0 .653-.134.888-.373.236-.238.368-.562.368-.9V11.212c0-1.913-.75-3.747-2.084-5.1A7.069 7.069 0 008.79 4zm0 2.545c1.222 0 2.393.492 3.257 1.367a4.699 4.699 0 011.348 3.3v18.242H4.186V11.212c0-1.238.485-2.425 1.349-3.3A4.574 4.574 0 018.79 6.545z"/><path fill-rule="evenodd" clip-rule="evenodd" d="M36 13.758a4.699 4.699 0 00-1.349-3.3 4.574 4.574 0 00-3.256-1.367H14.651c-.333 0-.652.134-.888.373a1.282 1.282 0 00-.368.9v6.787c0 .703.563 1.273 1.256 1.273h16.744c.605 0 1.204-.12 1.762-.355a4.6 4.6 0 001.494-1.012 4.67 4.67 0 00.998-1.514c.232-.566.351-1.173.351-1.785zm-2.512 0c0 1.17-.937 2.12-2.093 2.12H15.907v-4.242h15.488c1.156 0 2.093.95 2.093 2.122zM16.326 29.455H1.256c-.333 0-.653.134-.888.372a1.282 1.282 0 000 1.8c.235.239.555.373.888.373h15.07c.333 0 .652-.134.888-.373a1.281 1.281 0 000-1.8 1.247 1.247 0 00-.888-.373z"/><path d="M8.79 12.91c.694 0 1.257-.57 1.257-1.274 0-.702-.563-1.272-1.256-1.272-.694 0-1.256.57-1.256 1.272 0 .703.562 1.273 1.256 1.273z"/><path fill-rule="evenodd" clip-rule="evenodd" d="M7.535 16.303v5.09c0 .338.132.662.368.9a1.247 1.247 0 001.776 0c.235-.238.367-.561.367-.9v-5.09c0-.338-.132-.661-.367-.9a1.247 1.247 0 00-1.776 0 1.281 1.281 0 00-.368.9zm21.062-6.508l-3.348 6.788a1.285 1.285 0 00.558 1.716 1.243 1.243 0 001.689-.579l3.349-6.788a1.29 1.29 0 00-.17-1.41 1.258 1.258 0 00-.864-.437 1.24 1.24 0 00-.915.314c-.124.11-.226.245-.299.396zm-6.697 0l-3.35 6.788a1.285 1.285 0 00.56 1.716 1.244 1.244 0 001.688-.579l3.349-6.788a1.285 1.285 0 00-.558-1.716 1.243 1.243 0 00-1.39.183c-.125.11-.226.245-.3.396z"/></g><defs><clipPath id="bkclip0_1305_3617"><path fill="#fff" d="M0 0h36v36H0z"/></clipPath></defs></svg>