<?xml version="1.0" encoding="utf-8"?><svg width="24" height="24" fill="none" xmlns="http://www.w3.org/2000/svg" viewBox="0 0 24 24"><path d="M3 6h18" stroke="#A8AFC9" stroke-width="2" stroke-linecap="round" stroke-linejoin="round"/><path fill-rule="evenodd" clip-rule="evenodd" d="M10 3a1 1 0 00-1 1v2a1 1 0 01-2 0V4a3 3 0 013-3h4a3 3 0 013 3v2a1 1 0 11-2 0V4a1 1 0 00-1-1h-4zM5 5a1 1 0 011 1v14a1 1 0 001 1h10a1 1 0 001-1V6a1 1 0 112 0v14a3 3 0 01-3 3H7a3 3 0 01-3-3V6a1 1 0 011-1z" fill="#A8AFC9"/><path fill-rule="evenodd" clip-rule="evenodd" d="M10 10a1 1 0 011 1v6a1 1 0 11-2 0v-6a1 1 0 011-1zM14 10a1 1 0 011 1v6a1 1 0 11-2 0v-6a1 1 0 011-1z" fill="#A8AFC9"/></svg>