<?xml version="1.0" encoding="utf-8"?><svg viewBox="0 0 60 68" xmlns="http://www.w3.org/2000/svg" xmlns:xlink="http://www.w3.org/1999/xlink"><style>:root>svg{display:none}:root>svg:target{display:block}</style><svg fill="none" viewBox="0 0 24 24" id="ic_arr-back" xmlns="http://www.w3.org/2000/svg"><path d="M12 22c5.523 0 10-4.477 10-10S17.523 2 12 2 2 6.477 2 12s4.477 10 10 10z" stroke="#253678" stroke-width="2" stroke-linecap="round" stroke-linejoin="round"/><path d="M12 8l-4 4 4 4M16 12H8" stroke="#253678" stroke-width="2" stroke-linecap="round" stroke-linejoin="round"/></svg><svg viewBox="0 0 24 24" id="ic_arr-down" xmlns="http://www.w3.org/2000/svg"><path fill-rule="evenodd" clip-rule="evenodd" d="M5.293 8.293a1 1 0 011.414 0L12 13.586l5.293-5.293a1 1 0 111.414 1.414l-6 6a1 1 0 01-1.414 0l-6-6a1 1 0 010-1.414z"/></svg><svg fill="none" viewBox="0 0 24 24" id="ic_arr-up" xmlns="http://www.w3.org/2000/svg"><path d="M17 11l-5-5-5 5m10 7l-5-5-5 5" stroke="#fff" stroke-width="2" stroke-linecap="round" stroke-linejoin="round"/></svg><svg fill="none" viewBox="0 0 24 24" id="ic_arrow-back" xmlns="http://www.w3.org/2000/svg"><path d="M14 17l-4-4 4-4" stroke="#253678" stroke-width="2" stroke-linecap="round" stroke-linejoin="round"/></svg><svg fill="none" viewBox="0 0 24 24" id="ic_camera" xmlns="http://www.w3.org/2000/svg"><path fill-rule="evenodd" clip-rule="evenodd" d="M8.727 4.426A1 1 0 019.545 4h4.91a1 1 0 01.818.426l1.338 1.907h2.753a2.68 2.68 0 011.846.731c.5.475.79 1.13.79 1.825v8.555c0 .695-.29 1.35-.79 1.825a2.68 2.68 0 01-1.846.731H4.636a2.68 2.68 0 01-1.846-.73c-.5-.476-.79-1.131-.79-1.826V8.89c0-.695.29-1.35.79-1.825a2.68 2.68 0 011.846-.73H7.39l1.338-1.908zM10.066 6L8.728 7.908a1 1 0 01-.819.425H4.636a.68.68 0 00-.468.18A.518.518 0 004 8.89v8.555c0 .131.054.267.168.376a.68.68 0 00.468.18h14.728a.68.68 0 00.468-.18.518.518 0 00.168-.376V8.89a.518.518 0 00-.168-.375.68.68 0 00-.468-.18H16.09a1 1 0 01-.819-.426L13.934 6h-3.868zM12 10.667c-1.303 0-2.273.992-2.273 2.11 0 1.12.97 2.112 2.273 2.112 1.303 0 2.273-.992 2.273-2.111 0-1.119-.97-2.111-2.273-2.111zm-4.273 2.11c0-2.317 1.962-4.11 4.273-4.11s4.273 1.793 4.273 4.11c0 2.318-1.962 4.112-4.273 4.112s-4.273-1.794-4.273-4.111z" fill="#253678"/></svg><svg fill="none" viewBox="0 0 24 24" id="ic_chat" xmlns="http://www.w3.org/2000/svg"><path d="M17.454 2H6.545A4.55 4.55 0 002 6.545v7.273a4.554 4.554 0 003.636 4.454v2.819a.91.91 0 001.414.756l5.225-3.484h5.18A4.55 4.55 0 0022 13.818V6.545A4.55 4.55 0 0017.454 2zm-5.959 14.698l-4.04 2.694v-1.938a.91.91 0 00-.91-.909 2.73 2.73 0 01-2.727-2.727V6.545a2.73 2.73 0 012.727-2.727h10.91a2.73 2.73 0 012.727 2.727v7.273a2.73 2.73 0 01-2.727 2.727H12a.864.864 0 00-.505.153z" fill="#253678"/><path d="M17.454 7.455H6.545a.91.91 0 000 1.818h10.91a.91.91 0 100-1.818zm-1.818 3.636H8.364a.91.91 0 000 1.818h7.272a.91.91 0 000-1.818z" fill="#253678"/></svg><svg viewBox="0 0 24 24" id="ic_check" xmlns="http://www.w3.org/2000/svg"><path fill-rule="evenodd" clip-rule="evenodd" d="M20.707 5.293a1 1 0 010 1.414l-11 11a1 1 0 01-1.414 0l-5-5a1 1 0 111.414-1.414L9 15.586 19.293 5.293a1 1 0 011.414 0z"/></svg><svg viewBox="0 0 24 24" id="ic_check-read" xmlns="http://www.w3.org/2000/svg"><path fill-rule="evenodd" clip-rule="evenodd" d="M5.79 5a.795.795 0 00-.561.23.772.772 0 00-.229.548v12.444c0 .204.082.401.229.548.147.146.349.23.56.23h12.527a.796.796 0 00.56-.23.772.772 0 00.23-.548V12a1 1 0 112 0v6.222c0 .74-.296 1.446-.82 1.967a2.795 2.795 0 01-1.97.811H5.789a2.795 2.795 0 01-1.97-.811A2.772 2.772 0 013 18.222V5.778c0-.74.295-1.446.82-1.967A2.795 2.795 0 015.79 3h9.842a1 1 0 110 2H5.789zm15.92-.816a1 1 0 01-.005 1.414l-8.948 8.89a1 1 0 01-1.41 0L8.665 11.82a1 1 0 111.41-1.418l1.979 1.966 8.242-8.189a1 1 0 011.414.005z"/></svg><svg viewBox="0 0 20 20" id="ic_check-small" xmlns="http://www.w3.org/2000/svg"><path fill-rule="evenodd" clip-rule="evenodd" d="M15.7 6.287a1 1 0 01.013 1.414l-6.875 7a1 1 0 01-1.426 0l-3.125-3.182a1 1 0 011.426-1.402l2.412 2.456 6.162-6.274a1 1 0 011.414-.012z"/></svg><svg viewBox="0 0 24 24" id="ic_copy" xmlns="http://www.w3.org/2000/svg"><path d="M9.821 18.216a1.926 1.926 0 01-1.406-.567 1.873 1.873 0 01-.576-1.387V3.954c0-.546.192-1.008.576-1.386A1.928 1.928 0 019.82 2h9.196c.554 0 1.023.19 1.407.568.384.378.576.84.576 1.386v12.308c0 .546-.192 1.008-.576 1.387a1.928 1.928 0 01-1.407.567H9.821zm0-1.621h9.196a.325.325 0 00.232-.104.316.316 0 00.106-.229V3.954a.316.316 0 00-.106-.228.325.325 0 00-.232-.104H9.821a.325.325 0 00-.232.104.316.316 0 00-.105.228v12.308c0 .083.035.16.105.229.07.069.148.104.232.104zM5.983 22a1.93 1.93 0 01-1.407-.568A1.873 1.873 0 014 20.046V6.116h1.645v13.93c0 .083.035.16.106.228a.32.32 0 00.232.104h10.84V22H5.984z"/></svg><svg viewBox="0 0 24 24" id="ic_edit" xmlns="http://www.w3.org/2000/svg"><path fill-rule="evenodd" clip-rule="evenodd" d="M1.879 3.879A3 3 0 014 3h7a1 1 0 110 2H4a1 1 0 00-1 1v14a1 1 0 001 1h14a1 1 0 001-1v-7a1 1 0 112 0v7a3 3 0 01-3 3H4a3 3 0 01-3-3V6a3 3 0 01.879-2.121z"/><path fill-rule="evenodd" clip-rule="evenodd" d="M20 2.879c-.297 0-.583.118-.793.328l-9.304 9.304-.529 2.115 2.115-.529 9.304-9.304A1.121 1.121 0 0020 2.88zm-2.207-1.086a3.121 3.121 0 014.414 4.414l-9.5 9.5a1 1 0 01-.464.263l-4 1a1 1 0 01-1.213-1.212l1-4a1 1 0 01.263-.465l9.5-9.5z"/></svg><svg fill="none" viewBox="0 0 24 24" id="ic_eye" xmlns="http://www.w3.org/2000/svg"><path fill-rule="evenodd" clip-rule="evenodd" d="M11.998 5a8.12 8.12 0 00-1.87.214 1 1 0 11-.456-1.948A10.12 10.12 0 0112.002 3L12 4V3h.001c3.9 0 6.895 2.227 8.854 4.316a20.675 20.675 0 012.831 3.85 11.81 11.81 0 01.192.354l.011.022.003.007.002.002s0 .002-.894.449l-.901.434c-.099-.185-.087-.163-.241-.436a18.681 18.681 0 00-2.463-3.314C17.605 6.774 15.101 5 12 5h-.002zm9.86 6.998c-.517.9-1.114 1.753-1.783 2.548a1 1 0 001.53 1.288 19.5 19.5 0 002.277-3.363 1 1 0 00.012-.918L23 12l-.894.448v-.002l-.007-.012a6.407 6.407 0 00-.156-.287 13.486 13.486 0 00-.085-.15zM6.855 5.453a1 1 0 01-.188 1.402 17.45 17.45 0 00-4.524 5.148 18.68 18.68 0 002.462 3.313c1.789 1.909 4.29 3.68 7.387 3.684a9.07 9.07 0 005.342-1.855 1 1 0 111.212 1.59A11.07 11.07 0 0112.016 21H12c-3.9 0-6.896-2.226-8.855-4.316a20.67 20.67 0 01-2.831-3.85 12.374 12.374 0 01-.192-.354l-.011-.022-.003-.007-.002-.002s0-.002.894-.449l-.894.447a1 1 0 01.013-.92 19.45 19.45 0 015.334-6.262 1 1 0 011.402.188zm3.757 3.745a1 1 0 01-.05 1.414 2 2 0 102.826 2.826 1 1 0 111.464 1.364 4 4 0 11-5.654-5.654 1 1 0 011.414.05z" fill="#253678"/><path fill-rule="evenodd" clip-rule="evenodd" d="M.293.293a1 1 0 011.414 0l22 22a1 1 0 01-1.414 1.414l-22-22a1 1 0 010-1.414z" fill="#253678"/></svg><svg fill="none" viewBox="0 0 24 24" id="ic_eye2" xmlns="http://www.w3.org/2000/svg"><path fill-rule="evenodd" clip-rule="evenodd" d="M2.14 12a18.68 18.68 0 002.464 3.316C6.397 17.226 8.9 19 12 19c3.1 0 5.605-1.774 7.395-3.684A18.684 18.684 0 0021.86 12a18.681 18.681 0 00-2.464-3.316C17.605 6.774 15.101 5 12 5 8.9 5 6.396 6.774 4.605 8.684A18.678 18.678 0 002.14 12zM23 12l.894-.448-.002-.003-.003-.007-.011-.022a10.615 10.615 0 00-.192-.354 20.675 20.675 0 00-2.831-3.85C18.895 5.226 15.899 3 12 3 8.1 3 5.104 5.226 3.145 7.316a20.674 20.674 0 00-2.831 3.85 12.375 12.375 0 00-.192.354l-.011.022-.003.007-.002.002s0 .002.894.449l-.894-.447a1 1 0 000 .894L1 12l-.894.447.002.004.003.007.011.022a8.267 8.267 0 00.192.354 20.67 20.67 0 002.831 3.85C5.105 18.774 8.1 21 12 21c3.9 0 6.895-2.226 8.855-4.316a20.672 20.672 0 002.831-3.85 11.81 11.81 0 00.192-.354l.011-.022.003-.007.002-.002s0-.002-.894-.449zm0 0l.894.447c.141-.281.14-.613 0-.895L23 12z" fill="#253678"/><path fill-rule="evenodd" clip-rule="evenodd" d="M12 10a2 2 0 100 4 2 2 0 000-4zm-4 2a4 4 0 118 0 4 4 0 01-8 0z" fill="#253678"/></svg><svg viewBox="0 0 9 16" id="ic_fb" xmlns="http://www.w3.org/2000/svg"><path d="M7.332 2.657h1.552V.113A21.278 21.278 0 006.623 0c-2.238 0-3.77 1.325-3.77 3.76V6H.382v2.844h2.47V16h3.026V8.845h2.37L8.625 6H5.879V4.04c0-.822.236-1.384 1.453-1.384z"/></svg><svg fill="none" viewBox="0 0 37 36" id="ic_fullscreen" xmlns="http://www.w3.org/2000/svg"><path d="M24.667 4h8m0 0v8m0-8l-8 8m-12 20h-8m0 0v-8m0 8l8-8m20 0v8m0 0h-7.778m7.778 0l-8-8m-20-12V4m0 0h8m-8 0l8 8" stroke="#fff" stroke-width="2" stroke-linecap="round" stroke-linejoin="round"/></svg><svg viewBox="0 0 24 24" id="ic_gear" xmlns="http://www.w3.org/2000/svg"><path fill-rule="evenodd" clip-rule="evenodd" d="M8.196 4.633a2.641 2.641 0 01.77-1.863A2.622 2.622 0 0110.82 2h2.36c.696 0 1.363.278 1.855.771.491.494.768 1.164.768 1.862 0 .557.6.905 1.082.627a2.616 2.616 0 013.582.964l1.18 2.052a2.641 2.641 0 01-.96 3.597.722.722 0 00-.264.99c.063.11.154.2.264.264a2.627 2.627 0 011.223 1.599 2.643 2.643 0 01-.262 1.998l-1.18 2.052a2.629 2.629 0 01-1.593 1.227 2.614 2.614 0 01-1.99-.263.72.72 0 00-1.082.627c0 .699-.277 1.368-.769 1.862A2.618 2.618 0 0113.18 23h-2.36a2.615 2.615 0 01-2.424-1.625 2.64 2.64 0 01-.2-1.008.726.726 0 00-.72-.724.72.72 0 00-.36.097 2.615 2.615 0 01-3.584-.964l-1.18-2.052a2.64 2.64 0 01.96-3.597.722.722 0 00.264-.99.722.722 0 00-.264-.264 2.627 2.627 0 01-1.223-1.599 2.642 2.642 0 01.262-1.998l1.181-2.052a2.63 2.63 0 011.593-1.227 2.613 2.613 0 011.99.263.719.719 0 001.081-.627zm2.625-.724a.719.719 0 00-.722.724c0 2.027-2.185 3.293-3.934 2.28a.719.719 0 00-.985.265L4 9.231a.725.725 0 00.264.989c1.748 1.013 1.748 3.547 0 4.56a.722.722 0 00-.265.99l1.181 2.052a.723.723 0 00.719.356.72.72 0 00.266-.091c1.748-1.015 3.933.253 3.933 2.28 0 .4.323.724.722.724h2.361c.398 0 .72-.325.72-.724 0-2.027 2.187-3.293 3.936-2.281a.72.72 0 00.985-.264l1.18-2.053a.723.723 0 00-.264-.989c-1.75-1.013-1.75-3.547 0-4.56a.722.722 0 00.264-.99l-1.18-2.052a.723.723 0 00-.719-.356.719.719 0 00-.267.091c-1.75 1.015-3.934-.253-3.934-2.28a.725.725 0 00-.721-.724h-2.36zM12 9.636c-.757 0-1.482.302-2.017.84a2.87 2.87 0 000 4.049 2.847 2.847 0 004.034 0 2.869 2.869 0 000-4.05A2.847 2.847 0 0012 9.636zM7.246 12.5c0-1.266.5-2.48 1.392-3.375a4.745 4.745 0 016.724 0 4.782 4.782 0 010 6.75 4.745 4.745 0 01-6.724 0A4.782 4.782 0 017.246 12.5z"/></svg><svg fill="none" viewBox="0 0 24 24" id="ic_logout" xmlns="http://www.w3.org/2000/svg"><path fill-rule="evenodd" clip-rule="evenodd" d="M5 4a1 1 0 00-1 1v14a1 1 0 001 1h4a1 1 0 110 2H5a3 3 0 01-3-3V5a3 3 0 013-3h4a1 1 0 010 2H5zM15.293 6.293a1 1 0 011.414 0l5 5a1 1 0 010 1.414l-5 5a1 1 0 01-1.414-1.414L19.586 12l-4.293-4.293a1 1 0 010-1.414z" fill="#1A1B1F"/><path fill-rule="evenodd" clip-rule="evenodd" d="M8 12a1 1 0 011-1h12a1 1 0 110 2H9a1 1 0 01-1-1z" fill="#1A1B1F"/></svg><svg fill="none" viewBox="0 0 24 24" id="ic_msg" xmlns="http://www.w3.org/2000/svg"><path d="M17.454 2H6.545A4.55 4.55 0 002 6.545v7.273a4.554 4.554 0 003.636 4.454v2.819a.91.91 0 001.414.756l5.225-3.484h5.18A4.55 4.55 0 0022 13.818V6.545A4.55 4.55 0 0017.454 2zm-5.959 14.698l-4.04 2.694v-1.938a.91.91 0 00-.91-.909 2.73 2.73 0 01-2.727-2.727V6.545a2.73 2.73 0 012.727-2.727h10.91a2.73 2.73 0 012.727 2.727v7.273a2.73 2.73 0 01-2.727 2.727H12a.864.864 0 00-.505.153z" fill="#253678"/><path d="M17.454 7.455H6.545a.91.91 0 000 1.818h10.91a.91.91 0 100-1.818zm-1.818 3.636H8.364a.91.91 0 000 1.818h7.272a.91.91 0 000-1.818z" fill="#253678"/></svg><svg fill="none" viewBox="0 0 24 24" id="ic_nav-access" xmlns="http://www.w3.org/2000/svg"><path d="M4.694 13.476A2.697 2.697 0 002 16.169v3.137A2.697 2.697 0 004.694 22a2.697 2.697 0 002.694-2.694V16.17a2.697 2.697 0 00-2.694-2.693zm1.131 5.83c0 .624-.507 1.131-1.131 1.131a1.133 1.133 0 01-1.131-1.13V16.17c0-.624.507-1.132 1.13-1.132.625 0 1.132.508 1.132 1.131v3.137zM12 2a2.697 2.697 0 00-2.694 2.694v14.612A2.697 2.697 0 0012 22a2.697 2.697 0 002.694-2.694V4.694A2.697 2.697 0 0012 2zm1.131 17.306c0 .624-.507 1.131-1.131 1.131a1.133 1.133 0 01-1.131-1.13V4.693c0-.624.507-1.131 1.131-1.131s1.131.507 1.131 1.13v14.613zm6.175-11.568a2.697 2.697 0 00-2.694 2.694v8.874A2.697 2.697 0 0019.306 22 2.697 2.697 0 0022 19.306v-8.874a2.697 2.697 0 00-2.694-2.694zm1.131 11.568c0 .624-.507 1.131-1.13 1.131a1.133 1.133 0 01-1.132-1.13v-8.875c0-.624.507-1.132 1.131-1.132s1.131.508 1.131 1.132v8.874z" fill="#253678"/></svg><svg fill="none" viewBox="0 0 24 24" id="ic_nav-device" xmlns="http://www.w3.org/2000/svg"><g clip-path="url(#atclip0_454_8)"><path fill-rule="evenodd" clip-rule="evenodd" d="M16.415.995c0-.55.445-.995.994-.995A6.597 6.597 0 0124 6.59a.995.995 0 01-1.99 0 4.607 4.607 0 00-4.6-4.6.995.995 0 01-.995-.995zm0 3.73c0-.549.445-.994.994-.994a2.86 2.86 0 012.86 2.86.995.995 0 11-1.99 0 .87.87 0 00-.87-.87.995.995 0 01-.994-.996zm-3.547 2.45a.87.87 0 00-1.23 0l-8.574 8.573a3.668 3.668 0 105.188 5.188L14.187 15a.995.995 0 011.407 1.406L9.66 22.343l-.704-.704.704.704a5.658 5.658 0 01-8.002-8.002l8.573-8.573a2.86 2.86 0 014.045 0l3.957 3.957a2.86 2.86 0 010 4.045.995.995 0 01-1.407-1.407.87.87 0 000-1.231l-3.957-3.957zm-1.319 2.55a.995.995 0 011.407 0l1.32 1.319a.995.995 0 11-1.408 1.407l-1.319-1.32a.995.995 0 010-1.406zm-2.637 2.638a.995.995 0 011.406 0l1.32 1.319a.995.995 0 01-1.408 1.406L8.911 13.77a.995.995 0 010-1.407zm-2.594 4.449a.87.87 0 100 1.74.87.87 0 000-1.74zm-2.86.87a2.86 2.86 0 115.72 0 2.86 2.86 0 01-5.72 0z" fill="#253678"/></g><defs><clipPath id="atclip0_454_8"><path fill="#fff" d="M0 0h24v24H0z"/></clipPath></defs></svg><svg fill="none" viewBox="0 0 24 24" id="ic_nav-faq" xmlns="http://www.w3.org/2000/svg"><path fill-rule="evenodd" clip-rule="evenodd" d="M12 3.818a8.182 8.182 0 100 16.364 8.182 8.182 0 000-16.364zM2 12C2 6.477 6.477 2 12 2s10 4.477 10 10-4.477 10-10 10S2 17.523 2 12z" fill="#253678"/><path fill-rule="evenodd" clip-rule="evenodd" d="M12.235 8.386a1.818 1.818 0 00-2.023 1.188.91.91 0 01-1.715-.603 3.636 3.636 0 017.067 1.212c0 1.39-1.032 2.31-1.769 2.8a7.319 7.319 0 01-1.533.772l-.031.011-.01.004h-.004l-.001.001-.289-.862.288.862a.91.91 0 01-.576-1.724h-.001l.015-.005a5.24 5.24 0 00.33-.134c.226-.1.518-.247.804-.437.627-.418.958-.863.958-1.29a1.818 1.818 0 00-1.51-1.795zM11.09 16.546a.91.91 0 01.91-.91h.01a.91.91 0 110 1.819H12a.91.91 0 01-.91-.91z" fill="#253678"/></svg><svg fill="none" viewBox="0 0 24 24" id="ic_nav-finance" xmlns="http://www.w3.org/2000/svg"><path d="M17.82 12.04a2.346 2.346 0 00-2.343 2.343 2.346 2.346 0 002.343 2.344h3.32l.04-.002.039.002c.431 0 .781-.35.781-.782V9.812c0-1.04-.511-1.962-1.295-2.53l-2.658-4.36a.782.782 0 00-1.079-.258l-1.96 1.216-.884-1.496a.78.78 0 00-1.078-.27L5.52 6.687H4.344a.782.782 0 01-.781-.761.782.782 0 01.78-.762H5.79a.781.781 0 100-1.562H4.344c-1.106 0-2.035.769-2.28 1.8A.778.778 0 002 5.711v13.164A3.129 3.129 0 005.125 22h13.75a3.121 3.121 0 002.965-2.136.781.781 0 00-1.482-.494 1.56 1.56 0 01-1.483 1.067H5.125c-.862 0-1.563-.7-1.563-1.562V8.116c.251.089.516.134.782.134h14.531c.862 0 1.563.7 1.563 1.562v2.227H17.82zm2.617 3.124H17.82a.782.782 0 010-1.562h2.617v1.562zM8.528 6.688l4.653-2.828.832 1.408a.791.791 0 00.113.19l.726 1.23H8.528zm8.14 0l-.865-1.463 1.32-.818 1.39 2.28h-1.846z" fill="#253678"/></svg><svg fill="none" viewBox="0 0 24 24" id="ic_nav-info" xmlns="http://www.w3.org/2000/svg"><path fill-rule="evenodd" clip-rule="evenodd" d="M3 4a1 1 0 011-1h6.222a1 1 0 011 1v6.222a1 1 0 01-1 1H4a1 1 0 01-1-1V4zm2 1v4.222h4.222V5H5zm7.778-1a1 1 0 011-1H20a1 1 0 011 1v6.222a1 1 0 01-1 1h-6.222a1 1 0 01-1-1V4zm2 1v4.222H19V5h-4.222zM3 13.778a1 1 0 011-1h6.222a1 1 0 011 1V20a1 1 0 01-1 1H4a1 1 0 01-1-1v-6.222zm2 1V19h4.222v-4.222H5zm7.778-1a1 1 0 011-1H20a1 1 0 011 1V20a1 1 0 01-1 1h-6.222a1 1 0 01-1-1v-6.222zm2 1V19H19v-4.222h-4.222z" fill="#253678"/></svg><svg fill="none" viewBox="0 0 24 24" id="ic_nav-parking" xmlns="http://www.w3.org/2000/svg"><path fill-rule="evenodd" clip-rule="evenodd" d="M12 3C8.656 3 6 5.618 6 8.78c0 1.465.565 2.805 1.505 3.828L12 17.183l4.494-4.575A5.635 5.635 0 0018 8.78C18 5.618 15.344 3 12 3zM4 8.78C4 4.453 7.612 1 12 1s8 3.453 8 7.78a7.636 7.636 0 01-2.068 5.219l-5.219 5.312a1 1 0 01-1.426 0l-5.22-5.312A7.636 7.636 0 014 8.78zm5.688-2.966a1 1 0 011-1h1.75c1.488 0 2.75 1.176 2.75 2.694 0 1.519-1.262 2.695-2.75 2.695h-.75v2.39a1 1 0 11-2 0v-6.78zm2 2.39h.75c.444 0 .75-.342.75-.696 0-.353-.306-.694-.75-.694h-.75v1.39zm-3.8 9.6a1 1 0 01.257 1.391L6.902 21h10.196l-1.242-1.804a1 1 0 011.647-1.134l2.32 3.371A1 1 0 0119 23H5a1 1 0 01-.824-1.567l2.321-3.372a1 1 0 011.391-.257z" fill="#253678"/></svg><svg fill="none" viewBox="0 0 24 24" id="ic_nav-settings" xmlns="http://www.w3.org/2000/svg"><path fill-rule="evenodd" clip-rule="evenodd" d="M8.196 4.633a2.641 2.641 0 01.77-1.863A2.622 2.622 0 0110.82 2h2.36c.696 0 1.363.278 1.855.771.491.494.768 1.164.768 1.862 0 .557.6.905 1.082.627a2.616 2.616 0 013.582.964l1.18 2.052a2.641 2.641 0 01-.96 3.597.722.722 0 00-.264.99c.063.11.154.2.264.264a2.628 2.628 0 011.223 1.599 2.643 2.643 0 01-.262 1.998l-1.18 2.052a2.629 2.629 0 01-1.593 1.227 2.614 2.614 0 01-1.99-.263.72.72 0 00-1.082.627c0 .699-.277 1.368-.769 1.862a2.618 2.618 0 01-1.854.771H10.82a2.615 2.615 0 01-2.424-1.625c-.132-.32-.2-.662-.2-1.008a.726.726 0 00-.72-.724.72.72 0 00-.36.097 2.615 2.615 0 01-3.584-.964l-1.18-2.052a2.64 2.64 0 01.96-3.597.722.722 0 00.264-.99.722.722 0 00-.264-.264 2.627 2.627 0 01-1.223-1.599 2.642 2.642 0 01.262-1.998l1.181-2.052a2.63 2.63 0 011.593-1.227 2.613 2.613 0 011.99.263.719.719 0 001.081-.627zm2.625-.724a.719.719 0 00-.722.724c0 2.027-2.185 3.293-3.934 2.28a.719.719 0 00-.985.265L4 9.231a.725.725 0 00.264.989c1.748 1.013 1.748 3.547 0 4.56a.722.722 0 00-.265.99l1.181 2.052a.723.723 0 00.719.356.72.72 0 00.266-.091c1.748-1.015 3.933.253 3.933 2.28 0 .4.323.724.722.724h2.361c.398 0 .72-.325.72-.724 0-2.027 2.187-3.293 3.936-2.281a.72.72 0 00.985-.264l1.18-2.053a.723.723 0 00-.264-.989c-1.75-1.013-1.75-3.547 0-4.56a.722.722 0 00.264-.99l-1.18-2.052a.723.723 0 00-.719-.356.719.719 0 00-.267.091c-1.75 1.015-3.934-.253-3.934-2.28a.725.725 0 00-.721-.724h-2.36zM12 9.636c-.757 0-1.482.302-2.017.84a2.87 2.87 0 000 4.049 2.847 2.847 0 004.034 0 2.869 2.869 0 000-4.05A2.847 2.847 0 0012 9.636zM7.246 12.5c0-1.266.5-2.48 1.392-3.375a4.745 4.745 0 016.724 0 4.782 4.782 0 010 6.75 4.745 4.745 0 01-6.724 0A4.782 4.782 0 017.246 12.5z" fill="#253678"/></svg><svg fill="none" viewBox="0 0 24 24" id="ic_nav-video" xmlns="http://www.w3.org/2000/svg"><path d="M20.333 4.083h-.41A1.665 1.665 0 0018.31 2H3.667C2.747 2 2 2.748 2 3.667v7.5c0 .919.748 1.666 1.667 1.666h6.666v4.584H7V17c0-1.379-1.121-2.5-2.5-2.5H2.833a.834.834 0 00-.833.833v5.834c0 .46.373.833.833.833H4.5C5.879 22 7 20.879 7 19.5v-.417h4.167c.46 0 .833-.373.833-.833v-5.417h3a2.508 2.508 0 002.349-1.645l.159-.438h2.825c.92 0 1.667-.748 1.667-1.667V5.75c0-.92-.747-1.667-1.667-1.667zm-15 15.417c0 .46-.373.833-.833.833h-.833v-4.166H4.5c.46 0 .833.373.833.833v2.5zM15 11.167H3.667l-.001-7.5H18.31l-2.527 6.951a.836.836 0 01-.784.549zm5.334-2.084h-2.219l1.212-3.333h1.007v3.333z" fill="#253678"/></svg><svg fill="none" viewBox="0 0 36 36" id="ic_nav-video-plus" xmlns="http://www.w3.org/2000/svg"><path d="M30.5 6.125h-.617A2.498 2.498 0 0027.466 3H5.5A2.503 2.503 0 003 5.5v11.25c0 1.379 1.121 2.5 2.5 2.5h10v6.875h-5V25.5a3.754 3.754 0 00-3.75-3.75h-2.5C3.56 21.75 3 22.31 3 23v8.75c0 .69.56 1.25 1.25 1.25h2.5a3.754 3.754 0 003.75-3.75v-.625h6.25c.69 0 1.25-.56 1.25-1.25V19.25h4.499a3.761 3.761 0 003.524-2.468l.239-.657H30.5c1.379 0 2.5-1.121 2.5-2.5v-5c0-1.379-1.121-2.5-2.5-2.5zM8 29.25c0 .69-.56 1.25-1.25 1.25H5.5v-6.25h1.25c.69 0 1.25.56 1.25 1.25v3.75zm14.499-12.5H5.5L5.499 5.5h21.967l-3.792 10.428c-.18.491-.651.822-1.175.822zm8.001-3.125h-3.329l1.818-5H30.5v5z" fill="#253678"/><path fill-rule="evenodd" clip-rule="evenodd" d="M28 23c.69 0 1.25.56 1.25 1.25v2.5h2.5a1.25 1.25 0 110 2.5h-2.5v2.5a1.25 1.25 0 11-2.5 0v-2.5h-2.5a1.25 1.25 0 110-2.5h2.5v-2.5c0-.69.56-1.25 1.25-1.25z" fill="#253678"/></svg><svg viewBox="0 0 48 48" id="ic_next-pagination" xmlns="http://www.w3.org/2000/svg"><path fill-rule="evenodd" clip-rule="evenodd" d="M20.293 17.293a1 1 0 011.414 0l6 6a1 1 0 010 1.414l-6 6a1 1 0 01-1.414-1.414L25.586 24l-5.293-5.293a1 1 0 010-1.414z"/></svg><svg fill="none" viewBox="0 0 24 24" id="ic_notifications" xmlns="http://www.w3.org/2000/svg"><path d="M11.987 1C7.904 1 4.582 4.452 4.582 8.695v6.027a2.192 2.192 0 00-1.142.818 2.336 2.336 0 00.201 2.972c.41.427.966.666 1.546.667h2.436C7.983 21.345 9.8 23 11.986 23c2.187 0 4.004-1.655 4.365-3.82h2.462c.58-.002 1.136-.241 1.546-.668a2.336 2.336 0 00.2-2.973 2.192 2.192 0 00-1.14-.817V8.695C19.418 4.452 16.095 1 11.986 1zm6.826 16.608H5.187a.665.665 0 01-.453-.22.718.718 0 01-.184-.482c0-.179.066-.351.184-.482a.666.666 0 01.453-.219h.15c.201 0 .394-.083.536-.23a.802.802 0 00.221-.556V8.695c0-3.377 2.644-6.124 5.919-6.124 3.249 0 5.893 2.747 5.893 6.124v6.724c0 .209.08.409.222.556.141.147.334.23.534.23h.151c.172.01.334.089.453.22a.718.718 0 010 .964.665.665 0 01-.453.219zm-9.636 1.571h5.618c-.334 1.291-1.46 2.25-2.808 2.25-1.347 0-2.474-.959-2.81-2.25z" fill="#253678"/><path d="M12.447 4.068c.2 0 .393.082.534.23a.802.802 0 01.222.555c0 .209-.08.409-.222.556a.742.742 0 01-.534.23C10.81 5.64 9.48 7.01 9.48 8.696c0 .208-.08.408-.222.555a.742.742 0 01-.534.23.742.742 0 01-.535-.23.802.802 0 01-.222-.555c0-2.552 2.01-4.628 4.48-4.628z" fill="#253678"/></svg><svg fill="none" viewBox="0 0 60 68" id="ic_pin" xmlns="http://www.w3.org/2000/svg"><g clip-path="url(#bdclip0_507_5633)"><g filter="url(#bdfilter0_f_507_5633)"><path d="M30.51 56.523a.5.5 0 01-.5.477c-.29 0-.51-.21-.52-.477-.145-3.168-1.756-5.217-4.832-6.147C14.53 47.968 7 38.863 7 28 7 15.297 17.297 5 30 5s23 10.297 23 23c0 10.863-7.53 19.968-17.658 22.376-3.076.93-4.687 2.98-4.83 6.147h-.002z" fill="red"/></g><path d="M30.51 56.523a.5.5 0 01-.5.477c-.29 0-.51-.21-.52-.477-.145-3.168-1.756-5.217-4.832-6.147C14.53 47.968 7 38.863 7 28 7 15.297 17.297 5 30 5s23 10.297 23 23c0 10.863-7.53 19.968-17.658 22.376-3.076.93-4.687 2.98-4.83 6.147h-.002z" fill="red"/><path d="M30 68c-2.21 0-4-1.79-4-4s1.79-4 4-4 4 1.79 4 4-1.79 4-4 4z" fill="#fff"/><path d="M30 66a2 2 0 10.09-3.998A2 2 0 0030 66z" fill="#000"/><path fill-rule="evenodd" clip-rule="evenodd" d="M30 34.2V39h11.4a.6.6 0 00.6-.6V24.6a.6.6 0 00-.6-.6h-4.954l-.158 2H40v1h-3.79l-.159 2H40v1h-4.028l-.373 4.715a.303.303 0 01-.323.284.306.306 0 01-.276-.309V18.4a.4.4 0 00-.4-.4H34v-.6a.4.4 0 00-.4-.4H23.4a.4.4 0 00-.4.4v.6h-.6a.4.4 0 00-.4.4v20a.6.6 0 00.6.6H27v-4.8c0-.11.09-.2.2-.2h2.6c.11 0 .2.09.2.2zM25.5 31v-6h2v6h-2zm4-6v6h2v-6h-2zm-4-2v-3h2v3h-2zm4-3v3h2v-3h-2zM37 33v-1h3v1h-3z" fill="#fff"/><path d="M36.525 23l.08-1h2.994c.22 0 .4.18.4.4v.6h-3.474z" fill="#fff"/></g><defs><clipPath id="bdclip0_507_5633"><path fill="#fff" d="M0 0h60v68H0z"/></clipPath><filter id="bdfilter0_f_507_5633" x="1" y="-1" width="58" height="64" filterUnits="userSpaceOnUse" color-interpolation-filters="sRGB"><feFlood flood-opacity="0" result="BackgroundImageFix"/><feBlend in="SourceGraphic" in2="BackgroundImageFix" result="shape"/><feGaussianBlur stdDeviation="3" result="effect1_foregroundBlur_507_5633"/></filter></defs></svg><svg fill="none" viewBox="0 0 24 24" id="ic_play" xmlns="http://www.w3.org/2000/svg"><path fill-rule="evenodd" clip-rule="evenodd" d="M6 5.869c0-1.598 1.78-2.55 3.11-1.664l9.197 6.131a2 2 0 010 3.328l-9.198 6.132C7.78 20.682 6 19.729 6 18.132V5.869zM17.197 12L8 5.87v12.263L17.197 12z" fill="#253678"/></svg><svg fill="none" viewBox="0 0 48 48" id="ic_play-video" xmlns="http://www.w3.org/2000/svg"><rect width="48" height="48" rx="24" fill="#fff"/><path d="M32.853 22.252c1.372.762 1.372 2.734 0 3.496L20.971 32.35c-1.333.74-2.971-.223-2.971-1.748V17.399c0-1.525 1.638-2.489 2.971-1.748l11.882 6.6z" fill="#253678"/></svg><svg viewBox="0 0 24 24" id="ic_plus" xmlns="http://www.w3.org/2000/svg"><path d="M17 3.667A3.337 3.337 0 0120.333 7v10A3.337 3.337 0 0117 20.333H7A3.337 3.337 0 013.667 17V7A3.337 3.337 0 017 3.667h10zM17 2H7a5 5 0 00-5 5v10a5 5 0 005 5h10a5 5 0 005-5V7a5 5 0 00-5-5z"/><path d="M12 17a.833.833 0 01-.833-.833v-3.334H7.833a.834.834 0 010-1.666h3.334V7.833a.834.834 0 011.666 0v3.334h3.334a.834.834 0 010 1.666h-3.334v3.334A.834.834 0 0112 17z"/></svg><svg viewBox="0 0 24 24" id="ic_plus-min" xmlns="http://www.w3.org/2000/svg"><path fill-rule="evenodd" clip-rule="evenodd" d="M12 4a1 1 0 011 1v6h6a1 1 0 110 2h-6v6a1 1 0 11-2 0v-6H5a1 1 0 110-2h6V5a1 1 0 011-1z"/></svg><svg viewBox="0 0 48 48" id="ic_prev-pagination" xmlns="http://www.w3.org/2000/svg"><path fill-rule="evenodd" clip-rule="evenodd" d="M27.707 17.293a1 1 0 010 1.414L22.414 24l5.293 5.293a1 1 0 01-1.414 1.414l-6-6a1 1 0 010-1.414l6-6a1 1 0 011.414 0z"/></svg><svg viewBox="0 0 24 24" id="ic_qr" xmlns="http://www.w3.org/2000/svg"><path d="M1.09 8.727C.437 8.727 0 8.291 0 7.637V3.272C0 1.418 1.418 0 3.273 0h4.363c.655 0 1.091.436 1.091 1.09 0 .655-.436 1.092-1.09 1.092H3.272c-.655 0-1.091.436-1.091 1.09v4.364c0 .655-.437 1.091-1.091 1.091zm21.82 0c-.655 0-1.092-.436-1.092-1.09V3.272c0-.655-.436-1.091-1.09-1.091h-4.364c-.655 0-1.091-.437-1.091-1.091 0-.655.436-1.091 1.09-1.091h4.364C22.582 0 24 1.418 24 3.273v4.363c0 .655-.436 1.091-1.09 1.091zM7.635 24H3.273C1.418 24 0 22.582 0 20.727v-4.363c0-.655.436-1.091 1.09-1.091.655 0 1.092.436 1.092 1.09v4.364c0 .655.436 1.091 1.09 1.091h4.364c.655 0 1.091.437 1.091 1.091 0 .655-.436 1.091-1.09 1.091zm13.091 0h-4.363c-.655 0-1.091-.436-1.091-1.09 0-.655.436-1.092 1.09-1.092h4.364c.655 0 1.091-.436 1.091-1.09v-4.364c0-.655.437-1.091 1.091-1.091.655 0 1.091.436 1.091 1.09v4.364C24 22.582 22.582 24 20.727 24z"/><path d="M9.818 10.909H5.455c-.655 0-1.091-.437-1.091-1.091V5.454c0-.654.436-1.09 1.09-1.09h4.364c.655 0 1.091.436 1.091 1.09v4.364c0 .654-.436 1.09-1.09 1.09zM6.546 8.727h2.181V6.545H6.546v2.182zm3.272 10.909H5.455c-.655 0-1.091-.436-1.091-1.09v-4.364c0-.655.436-1.091 1.09-1.091h4.364c.655 0 1.091.436 1.091 1.09v4.364c0 .655-.436 1.091-1.09 1.091zm-3.272-2.182h2.181v-2.182H6.546v2.182zm12-6.545h-4.364c-.655 0-1.091-.437-1.091-1.091V5.454c0-.654.436-1.09 1.091-1.09h4.364c.654 0 1.09.436 1.09 1.09v4.364c0 .654-.436 1.09-1.09 1.09zm-3.273-2.182h2.182V6.545h-2.182v2.182zm-1.091 7.636c-.655 0-1.091-.436-1.091-1.09V14.18c0-.654.436-1.09 1.091-1.09.654 0 1.09.436 1.09 1.09v1.091c0 .655-.436 1.091-1.09 1.091zm4.364-1.09h-1.091c-.655 0-1.091-.437-1.091-1.091 0-.655.436-1.091 1.09-1.091h1.092c.654 0 1.09.436 1.09 1.09 0 .655-.436 1.091-1.09 1.091zm0 4.363h-3.273c-.655 0-1.091-.436-1.091-1.09 0-.655.436-1.092 1.09-1.092h3.274c.654 0 1.09.437 1.09 1.091 0 .655-.436 1.091-1.09 1.091z"/></svg><svg fill="none" viewBox="0 0 36 36" id="ic_shlg" xmlns="http://www.w3.org/2000/svg"><g clip-path="url(#bkclip0_1305_3617)" fill="#253678"><path fill-rule="evenodd" clip-rule="evenodd" d="M8.79 4c-1.887 0-3.697.76-5.031 2.112a7.262 7.262 0 00-2.085 5.1v19.515c0 .703.563 1.273 1.256 1.273h11.721c.333 0 .653-.134.888-.373.236-.238.368-.562.368-.9V11.212c0-1.913-.75-3.747-2.084-5.1A7.069 7.069 0 008.79 4zm0 2.545c1.222 0 2.393.492 3.257 1.367a4.699 4.699 0 011.348 3.3v18.242H4.186V11.212c0-1.238.485-2.425 1.349-3.3A4.574 4.574 0 018.79 6.545z"/><path fill-rule="evenodd" clip-rule="evenodd" d="M36 13.758a4.699 4.699 0 00-1.349-3.3 4.574 4.574 0 00-3.256-1.367H14.651c-.333 0-.652.134-.888.373a1.282 1.282 0 00-.368.9v6.787c0 .703.563 1.273 1.256 1.273h16.744c.605 0 1.204-.12 1.762-.355a4.6 4.6 0 001.494-1.012 4.67 4.67 0 00.998-1.514c.232-.566.351-1.173.351-1.785zm-2.512 0c0 1.17-.937 2.12-2.093 2.12H15.907v-4.242h15.488c1.156 0 2.093.95 2.093 2.122zM16.326 29.455H1.256c-.333 0-.653.134-.888.372a1.282 1.282 0 000 1.8c.235.239.555.373.888.373h15.07c.333 0 .652-.134.888-.373a1.281 1.281 0 000-1.8 1.247 1.247 0 00-.888-.373z"/><path d="M8.79 12.91c.694 0 1.257-.57 1.257-1.274 0-.702-.563-1.272-1.256-1.272-.694 0-1.256.57-1.256 1.272 0 .703.562 1.273 1.256 1.273z"/><path fill-rule="evenodd" clip-rule="evenodd" d="M7.535 16.303v5.09c0 .338.132.662.368.9a1.247 1.247 0 001.776 0c.235-.238.367-.561.367-.9v-5.09c0-.338-.132-.661-.367-.9a1.247 1.247 0 00-1.776 0 1.281 1.281 0 00-.368.9zm21.062-6.508l-3.348 6.788a1.285 1.285 0 00.558 1.716 1.243 1.243 0 001.689-.579l3.349-6.788a1.29 1.29 0 00-.17-1.41 1.258 1.258 0 00-.864-.437 1.24 1.24 0 00-.915.314c-.124.11-.226.245-.299.396zm-6.697 0l-3.35 6.788a1.285 1.285 0 00.56 1.716 1.244 1.244 0 001.688-.579l3.349-6.788a1.285 1.285 0 00-.558-1.716 1.243 1.243 0 00-1.39.183c-.125.11-.226.245-.3.396z"/></g><defs><clipPath id="bkclip0_1305_3617"><path fill="#fff" d="M0 0h36v36H0z"/></clipPath></defs></svg><svg viewBox="0 0 24 24" id="ic_telegram" xmlns="http://www.w3.org/2000/svg"><path d="M23.633 2.58c-.293-.36-.733-.558-1.238-.558-.273 0-.562.058-.86.17L1.218 9.891C.137 10.3-.01 10.916 0 11.247c.01.33.188.932 1.276 1.28l4.31 1.58 2.27 5.198c.228.718.705 1.223 1.314 1.387.14.037.284.056.428.056.495 0 1.001-.218 1.438-.629l1.882-1.767 4.59 3.16c.414.305.864.466 1.303.466.89 0 1.6-.651 1.809-1.66l3.323-16.072c.136-.66.026-1.252-.31-1.666zM7.013 13.862l5.864-3.145-4.087 3.75a.704.704 0 00-.226.517l-.002.021-.014 2.37-1.535-3.513zm3.06 5.232a1.34 1.34 0 01-.13.108l.018-2.886 1.771 1.22-1.659 1.558zM22.566 3.962l-3.323 16.072c-.034.162-.143.54-.432.54-.136 0-.303-.07-.473-.197a.588.588 0 00-.022-.016l-5.06-3.483-.003-.002-2.861-1.97 7.559-6.933a.704.704 0 00-.808-1.138L6.055 12.78l-4.31-1.579-.01-.003 20.299-7.69c.171-.066.29-.08.36-.08.035 0 .12.005.148.04.037.046.084.201.024.493z"/></svg><svg viewBox="0 0 16 14" id="ic_tg" xmlns="http://www.w3.org/2000/svg"><path d="M6.279 9.096l-.265 3.723c.379 0 .543-.163.74-.358l1.775-1.697 3.679 2.695c.674.376 1.15.178 1.332-.621l2.415-11.316c.214-.997-.36-1.388-1.018-1.143L.743 5.813c-.969.376-.954.916-.165 1.161l3.629 1.129 8.43-5.274c.396-.263.757-.118.46.145L6.279 9.096z"/></svg><svg viewBox="0 0 22 22" id="ic_tooltip" xmlns="http://www.w3.org/2000/svg"><path fill-rule="evenodd" clip-rule="evenodd" d="M11 2a9 9 0 100 18 9 9 0 000-18zM0 11C0 4.925 4.925 0 11 0s11 4.925 11 11-4.925 11-11 11S0 17.075 0 11z"/><path fill-rule="evenodd" clip-rule="evenodd" d="M11.258 7.024a2 2 0 00-2.225 1.308 1 1 0 11-1.886-.664 4 4 0 017.773 1.333c0 1.53-1.135 2.54-1.945 3.081a8.044 8.044 0 01-1.686.848l-.035.013-.011.003-.004.002h-.002L10.92 12l.316.949a1 1 0 01-.633-1.897H10.6h.002l.016-.006.074-.027a6.051 6.051 0 001.172-.6c.69-.46 1.055-.95 1.055-1.419v-.001a2 2 0 00-1.662-1.975zM10 16a1 1 0 011-1h.01a1 1 0 110 2H11a1 1 0 01-1-1z"/></svg><svg viewBox="0 0 24 24" id="ic_trash" xmlns="http://www.w3.org/2000/svg"><path fill-rule="evenodd" clip-rule="evenodd" d="M2 6a1 1 0 011-1h18a1 1 0 110 2H3a1 1 0 01-1-1z"/><path fill-rule="evenodd" clip-rule="evenodd" d="M10 3a1 1 0 00-1 1v2a1 1 0 01-2 0V4a3 3 0 013-3h4a3 3 0 013 3v2a1 1 0 11-2 0V4a1 1 0 00-1-1h-4zM5 5a1 1 0 011 1v14a1 1 0 001 1h10a1 1 0 001-1V6a1 1 0 112 0v14a3 3 0 01-3 3H7a3 3 0 01-3-3V6a1 1 0 011-1z"/><path fill-rule="evenodd" clip-rule="evenodd" d="M10 10a1 1 0 011 1v6a1 1 0 11-2 0v-6a1 1 0 011-1zM14 10a1 1 0 011 1v6a1 1 0 11-2 0v-6a1 1 0 011-1z"/></svg><svg viewBox="0 0 16 13" id="ic_tw" xmlns="http://www.w3.org/2000/svg"><path d="M16 1.543a6.872 6.872 0 01-1.645 1.696 9.368 9.368 0 01-.376 3.066 9.453 9.453 0 01-1.177 2.517 9.91 9.91 0 01-1.868 2.143c-.724.615-1.597 1.11-2.62 1.482a9.666 9.666 0 01-3.278.548A9.106 9.106 0 010 11.523c.237.027.5.04.792.04a6.42 6.42 0 004.07-1.4 3.214 3.214 0 01-1.908-.65 3.235 3.235 0 01-1.157-1.625c.223.034.43.051.62.051.29 0 .578-.037.862-.112a3.259 3.259 0 01-1.888-1.126A3.201 3.201 0 01.65 4.609v-.04c.46.257.954.395 1.482.416a3.275 3.275 0 01-1.066-1.168A3.195 3.195 0 01.67 2.254c0-.596.149-1.147.447-1.655a9.373 9.373 0 002.985 2.426A9.22 9.22 0 007.878 4.03a3.643 3.643 0 01-.081-.75c0-.908.318-1.68.954-2.316A3.169 3.169 0 0111.076 0c.948 0 1.746.345 2.396 1.036a6.43 6.43 0 002.081-.792 3.184 3.184 0 01-1.441 1.807A6.534 6.534 0 0016 1.543z"/></svg><svg fill="none" viewBox="0 0 24 24" id="ic_user" xmlns="http://www.w3.org/2000/svg"><path d="M20 21v-2a4 4 0 00-4-4H8a4 4 0 00-4 4v2M16 7a4 4 0 11-8 0 4 4 0 018 0z" stroke="#253678" stroke-width="2" stroke-linecap="round" stroke-linejoin="round"/></svg><svg fill="none" viewBox="0 0 24 24" id="ic_users" xmlns="http://www.w3.org/2000/svg"><path d="M17 21v-2a4 4 0 00-4-4H5a4 4 0 00-4 4v2M9 11a4 4 0 100-8 4 4 0 000 8zM23 21v-2a4 4 0 00-3-3.87M16 3.13a4 4 0 010 7.75" stroke="#253678" stroke-width="2" stroke-linecap="round" stroke-linejoin="round"/></svg><svg viewBox="0 0 20 20" id="ic_vb" xmlns="http://www.w3.org/2000/svg"><path d="M17.745 1.948c-.524-.457-2.64-1.914-7.36-1.934 0 0-5.565-.316-8.276 2.043C.602 3.487.07 5.584.013 8.18c-.058 2.597-.128 7.464 4.819 8.784h.004l-.004 2.015s-.033.817.535.98c.684.204 1.088-.417 1.743-1.085.358-.367.852-.906 1.227-1.316 3.386.27 5.985-.348 6.281-.438.684-.21 4.552-.68 5.178-5.546.65-5.023-.313-8.194-2.051-9.627zm.572 9.26c-.531 4.062-3.666 4.32-4.242 4.496-.247.074-2.534.613-5.404.437 0 0-2.142 2.449-2.81 3.086-.218.207-.457.187-.452-.223 0-.27.016-3.347.016-3.347-.004 0-.004 0 0 0-4.193-1.102-3.946-5.246-3.9-7.413.045-2.168.477-3.945 1.754-5.14 2.294-1.973 7.019-1.68 7.019-1.68 3.99.016 5.902 1.156 6.347 1.539 1.47 1.195 2.22 4.054 1.672 8.245zm-5.725-3.156c.016.336-.515.36-.532.024-.045-.86-.469-1.278-1.342-1.324-.354-.02-.322-.524.029-.504 1.149.058 1.787.683 1.845 1.804zm.836.442c.041-1.656-1.05-2.953-3.122-3.098-.35-.023-.313-.527.037-.504 2.389.164 3.662 1.723 3.616 3.613-.004.336-.54.32-.531-.011zm1.936.523c.004.336-.532.34-.532.004-.024-3.183-2.26-4.918-4.975-4.937-.35-.004-.35-.504 0-.504 3.036.02 5.478 2.008 5.507 5.437zm-.466 3.832v.007c-.444.742-1.276 1.563-2.133 1.3l-.008-.01c-.87-.231-2.917-1.231-4.21-2.208-.667-.5-1.277-1.09-1.746-1.656a12.643 12.643 0 01-1.269-1.82c-.877-1.503-1.07-2.175-1.07-2.175-.277-.813.584-1.602 1.37-2.023h.009c.379-.188.741-.125.984.152 0 0 .511.578.73.863.205.266.481.691.626.93.25.425.094.859-.153 1.039l-.494.375c-.251.19-.218.546-.218.546s.733 2.629 3.472 3.293c0 0 .375.031.576-.207l.396-.469c.19-.234.646-.383 1.095-.144.606.324 1.376.828 1.887 1.285.288.222.354.562.156.921z"/></svg><svg viewBox="0 0 24 24" id="ic_viber" xmlns="http://www.w3.org/2000/svg"><path d="M23.155 13.893c.716-6.027-.344-9.832-2.256-11.553l.001-.001C17.814-.601 7.392-1.035 3.7 2.47 2.042 4.186 1.458 6.703 1.394 9.819c-.064 3.116-.14 8.955 5.301 10.54H6.7l-.005 2.418s-.037.98.59 1.177c.715.232 1.04-.223 3.266-2.883 3.724.323 6.584-.417 6.91-.524.751-.253 5.006-.816 5.694-6.655zm-12.237 5.476s-2.357 2.94-3.09 3.703c-.24.248-.503.225-.499-.267 0-.323.018-4.017.018-4.017-4.613-1.322-4.34-6.293-4.29-8.894.05-2.602.525-4.733 1.93-6.168C8.224.689 17.361 1.368 19.69 3.556c2.846 2.523 1.833 9.65 1.84 9.893-.586 4.874-4.034 5.184-4.668 5.394-.27.09-2.786.738-5.944.526z"/><path d="M12.222 4.297c-.385 0-.385.6 0 .605 2.987.023 5.447 2.105 5.474 5.924 0 .403.59.398.585-.005-.032-4.115-2.72-6.501-6.06-6.524z"/><path d="M16.151 10.192c-.009.398.58.417.585.014.05-2.269-1.35-4.138-3.979-4.335-.385-.028-.425.577-.04.605 2.28.173 3.48 1.73 3.434 3.716zm-.63 2.581c-.494-.286-.997-.108-1.205.173l-.435.563c-.22.286-.634.248-.634.248-3.014-.797-3.82-3.95-3.82-3.95s-.037-.428.24-.657l.543-.45c.272-.216.444-.736.167-1.247-.74-1.337-1.237-1.798-1.49-2.152-.266-.333-.666-.408-1.082-.183h-.009c-.865.506-1.812 1.453-1.509 2.428.517 1.028 1.467 4.305 4.495 6.781 1.423 1.171 3.675 2.371 4.631 2.648l.01.014c.941.314 1.857-.67 2.346-1.56v-.008c.217-.43.145-.839-.172-1.106-.562-.548-1.41-1.153-2.076-1.542z"/><path d="M13.169 8.104c.96.056 1.427.558 1.477 1.589.018.403.603.375.585-.028-.064-1.346-.766-2.096-2.03-2.166-.385-.023-.421.582-.032.605z"/></svg><svg viewBox="0 0 19 11" id="ic_vk" xmlns="http://www.w3.org/2000/svg"><path d="M17.57 8.059c-.393-.414-.84-.785-1.27-1.143-.154-.128-.313-.26-.466-.39-.438-.377-.454-.519-.107-.947.24-.295.495-.59.742-.876.224-.26.455-.527.677-.796l.045-.055c.424-.515.862-1.047 1.095-1.689.06-.17.124-.418-.021-.627-.145-.208-.427-.272-.627-.301a1.946 1.946 0 00-.287-.017l-2.774-.002h-.023c-.42 0-.702.174-.864.53a13.74 13.74 0 01-.519 1.05c-.385.688-.875 1.48-1.584 2.141l-.03.028c-.084.08-.179.169-.248.169a.133.133 0 01-.035-.006c-.147-.05-.246-.362-.241-.507v-.006L11.03 1.8l-.003-.03c-.07-.457-.226-.742-.817-.843a.278.278 0 00-.048-.004H7.278c-.47 0-.729.168-.972.419-.066.067-.202.206-.135.376.07.172.292.208.365.22.361.06.564.254.622.593.1.588.113 1.216.039 1.975a1.49 1.49 0 01-.129.514c-.015.032-.07.138-.127.138-.018 0-.07-.006-.165-.063-.224-.135-.387-.327-.578-.564A12.863 12.863 0 014.53 1.817a.986.986 0 00-.92-.592c-.46-.006-.878-.01-1.276-.01-.435 0-.839.004-1.232.012-.337.005-.57.093-.693.263s-.115.394.024.664C1.544 4.32 2.55 5.896 3.697 7.261c.804.956 1.61 1.618 2.536 2.082.977.49 2.071.729 3.345.729.145 0 .294-.003.445-.01.74-.031 1.015-.266 1.05-.9.016-.323.057-.662.238-.951.114-.183.22-.183.256-.183.067 0 .151.028.241.079.161.092.3.216.413.324l.317.31c.228.224.464.456.71.675.538.481 1.132.693 1.813.647h2.56a.755.755 0 00.602-.34c.16-.248.157-.564-.008-.847a4.587 4.587 0 00-.645-.817z"/></svg><svg viewBox="0 0 16 17" id="ic_wa" xmlns="http://www.w3.org/2000/svg"><path d="M9.719 9.385c.27-.34.451-.51.541-.51.09 0 .428.153 1.01.458.591.306.904.49.938.552.014.035.021.087.021.157 0 .229-.059.493-.177.791-.111.271-.358.5-.74.688-.381.18-.736.27-1.062.27-.396 0-1.056-.215-1.98-.645a5.945 5.945 0 01-1.77-1.23C6 9.41 5.486 8.768 4.958 7.99c-.5-.743-.746-1.417-.74-2.021v-.084c.022-.632.279-1.18.772-1.645a.788.788 0 01.541-.23c.042 0 .104.007.188.021.083.007.15.01.198.01.132 0 .222.025.27.074.056.041.112.135.167.28.056.14.17.445.344.918.174.472.26.732.26.78 0 .147-.121.348-.364.605-.236.25-.354.41-.354.48 0 .048.017.1.052.155.236.507.59.983 1.062 1.427.39.368.913.72 1.573 1.053.083.048.16.072.23.072.103 0 .29-.166.562-.5zm-1.573 5.01a6.33 6.33 0 002.531-.52 6.581 6.581 0 002.094-1.396 6.613 6.613 0 001.396-2.083c.347-.813.52-1.66.52-2.542a6.33 6.33 0 00-.52-2.531 6.582 6.582 0 00-1.396-2.094 6.581 6.581 0 00-2.094-1.396 6.329 6.329 0 00-2.531-.52c-.882 0-1.73.173-2.542.52-.805.348-1.5.813-2.083 1.396a6.582 6.582 0 00-1.396 2.094 6.329 6.329 0 00-.52 2.531c0 1.41.416 2.688 1.25 3.833l-.824 2.428 2.521-.803a6.406 6.406 0 003.594 1.084zM5.094.626A7.669 7.669 0 018.146 0c1.062 0 2.076.208 3.041.625a7.918 7.918 0 012.51 1.677 7.918 7.918 0 011.678 2.51c.417.966.625 1.98.625 3.042 0 1.063-.208 2.08-.625 3.052a7.947 7.947 0 01-1.677 2.5 7.916 7.916 0 01-2.51 1.677 7.594 7.594 0 01-3.042.625 7.735 7.735 0 01-3.802-.979L0 16.125l1.417-4.219A7.666 7.666 0 01.292 7.854c0-1.062.208-2.076.625-3.042a7.917 7.917 0 011.677-2.51 7.948 7.948 0 012.5-1.677z"/></svg><svg fill="none" viewBox="0 0 24 24" id="ic_wallet" xmlns="http://www.w3.org/2000/svg"><path d="M17.82 12.04a2.346 2.346 0 00-2.343 2.343 2.346 2.346 0 002.343 2.344h3.32l.04-.002.039.002c.431 0 .781-.35.781-.782V9.812c0-1.04-.511-1.962-1.295-2.53l-2.658-4.36a.782.782 0 00-1.079-.258l-1.96 1.216-.884-1.496a.78.78 0 00-1.078-.27L5.52 6.687H4.344a.782.782 0 01-.781-.761.782.782 0 01.78-.762H5.79a.781.781 0 100-1.562H4.344c-1.106 0-2.035.769-2.28 1.8A.778.778 0 002 5.711v13.164A3.129 3.129 0 005.125 22h13.75a3.121 3.121 0 002.965-2.136.781.781 0 00-1.482-.494 1.56 1.56 0 01-1.483 1.067H5.125c-.862 0-1.563-.7-1.563-1.562V8.116c.251.089.516.134.782.134h14.531c.862 0 1.563.7 1.563 1.562v2.227H17.82zm2.617 3.124H17.82a.782.782 0 010-1.562h2.617v1.562zM8.528 6.688l4.653-2.828.832 1.408a.791.791 0 00.113.19l.726 1.23H8.528zm8.14 0l-.865-1.463 1.32-.818 1.39 2.28h-1.846z" fill="#A8AFC9"/></svg><svg viewBox="0 0 24 24" id="ic_whatsapp" xmlns="http://www.w3.org/2000/svg"><path fill-rule="evenodd" clip-rule="evenodd" d="M19.15 3.27A11.077 11.077 0 0011.264 0C5.118 0 .116 5.001.114 11.149c0 1.965.512 3.883 1.488 5.574L.021 22.5l5.91-1.55a11.137 11.137 0 005.328 1.357h.005c6.144 0 11.146-5.002 11.149-11.15A11.08 11.08 0 0019.15 3.27zm-7.886 17.154h-.004a9.256 9.256 0 01-4.717-1.292l-.338-.201-3.508.92.937-3.42-.22-.35a9.244 9.244 0 01-1.418-4.932c.002-5.11 4.16-9.266 9.271-9.266 2.475 0 4.802.966 6.552 2.718a9.212 9.212 0 012.711 6.556c-.002 5.11-4.159 9.267-9.267 9.267zm5.083-6.94c-.279-.14-1.649-.814-1.904-.907-.255-.093-.441-.14-.627.14-.186.278-.72.906-.882 1.091-.162.187-.325.21-.603.07-.28-.14-1.177-.433-2.24-1.383-.829-.738-1.388-1.65-1.55-1.93-.163-.278-.002-.415.122-.568.301-.374.603-.767.696-.953.093-.186.046-.348-.023-.488-.07-.14-.627-1.51-.86-2.068-.225-.543-.455-.47-.626-.479A11.11 11.11 0 007.316 6c-.186 0-.487.07-.743.35-.255.278-.975.952-.975 2.323 0 1.372.998 2.696 1.138 2.882.139.186 1.964 3 4.759 4.207.664.287 1.183.458 1.588.587.667.212 1.274.182 1.755.11.535-.08 1.648-.674 1.88-1.325.232-.65.232-1.208.162-1.324-.07-.117-.255-.186-.533-.326z"/></svg></svg>